<svg width="1024" height="1024" viewBox="0 0 1024 1024" fill="none" xmlns="http://www.w3.org/2000/svg">
<path d="M338.752 104.704C326.754 116.706 320.014 132.981 320.014 149.952C320.014 166.923 326.754 183.198 338.752 195.2L655.552 512L338.752 828.8C327.094 840.871 320.643 857.037 320.789 873.818C320.935 890.598 327.665 906.65 339.532 918.516C351.398 930.383 367.45 937.113 384.23 937.259C401.011 937.405 417.177 930.954 429.248 919.296L791.296 557.248C803.294 545.246 810.034 528.971 810.034 512C810.034 495.029 803.294 478.754 791.296 466.752L429.248 104.704C417.246 92.7059 400.971 85.9657 384 85.9657C367.029 85.9657 350.754 92.7059 338.752 104.704Z" fill="white"/>
</svg>
