<svg version="1.2" xmlns="http://www.w3.org/2000/svg" viewBox="0 0 495 855" width="495" height="855">
	<title>arrow-right-bold-svg</title>
	<style>
		.s0 { fill: #ffffff } 
	</style>
	<path id="Layer" class="s0" d="m20.8 19.7c-12 12-18.8 28.3-18.8 45.3 0 16.9 6.8 33.2 18.8 45.2l316.8 316.8-316.8 316.8c-11.7 12.1-18.2 28.2-18 45 0.1 16.8 6.9 32.8 18.7 44.7 11.9 11.9 27.9 18.6 44.7 18.8 16.8 0.1 33-6.3 45-18l362.1-362.1c12-12 18.7-28.2 18.7-45.2 0-17-6.7-33.2-18.7-45.2l-362.1-362.1c-12-12-28.2-18.7-45.2-18.7-17 0-33.2 6.7-45.2 18.7z"/>
</svg>