<svg xmlns="http://www.w3.org/2000/svg" xmlns:xlink="http://www.w3.org/1999/xlink" width="63" height="63" viewBox="0 0 63 63">
  <defs>
    <clipPath id="clip-path">
      <rect id="Rectángulo_83" data-name="Rectángulo 83" width="63" height="63" transform="translate(0 0.379)" fill="none"/>
    </clipPath>
  </defs>
  <g id="Grupo_38" data-name="Grupo 38" transform="translate(0 -0.379)">
    <g id="Grupo_37" data-name="Grupo 37" clip-path="url(#clip-path)">
      <path id="Trazado_156" data-name="Trazado 156" d="M61.116,18a2.264,2.264,0,0,0-2.264,2.264V33.845a2.267,2.267,0,0,1-2.264,2.264H6.791a2.267,2.267,0,0,1-2.264-2.264V20.264a2.264,2.264,0,0,0-4.527,0V33.845a6.8,6.8,0,0,0,6.791,6.791h49.8a6.8,6.8,0,0,0,6.791-6.791V20.264A2.264,2.264,0,0,0,61.116,18" transform="translate(0 22.744)" fill="#e8732c"/>
      <path id="Trazado_157" data-name="Trazado 157" d="M21.567,0A2.264,2.264,0,0,0,19.3,2.264V42.07L11.85,34.616a2.263,2.263,0,0,0-3.2,3.2L19.967,49.135a2.254,2.254,0,0,0,3.185.016l.016-.016L34.485,37.817a2.263,2.263,0,0,0-3.2-3.2L23.831,42.07V2.264A2.264,2.264,0,0,0,21.567,0" transform="translate(10.122)" fill="#e8732c"/>
    </g>
  </g>
</svg>
