<svg xmlns="http://www.w3.org/2000/svg" width="114" height="114"><g data-name="Grupo 88"><g data-name="Componente 36 – 3"><circle cx="57" cy="57" r="57" fill="rgba(213,98,29,0.5)" data-name="Elipse 4"/></g><path fill="#fff" d="M69.5 25.3h13.3a1.8 1.8 0 0 1 1.8 1.8v62.6a1.8 1.8 0 0 1-1.8 1.8H31a1.8 1.8 0 0 1-1.8-1.8V27a1.8 1.8 0 0 1 1.8-1.8h13.3v-3.5A1.8 1.8 0 0 1 46 20h21.6a1.8 1.8 0 0 1 1.8 1.8Zm-13 51a1.8 1.8 0 1 1 0-3.5h17.2a1.8 1.8 0 0 1 0 3.6ZM39 75.9a1.8 1.8 0 0 1 2.5-2.5l2 2 5.4-5.3a1.8 1.8 0 0 1 2.5 2.5l-6.6 6.6a1.8 1.8 0 0 1-2.5 0Zm17.7-12.7a1.8 1.8 0 1 1 0-3.6h17a1.8 1.8 0 1 1 0 3.6Zm-17.7-.6a1.8 1.8 0 1 1 2.5-2.5l2 2 5.4-5.3a1.8 1.8 0 0 1 2.5 2.6l-6.6 6.5a1.8 1.8 0 0 1-2.5 0l-3.3-3.3m17.7-12.7a1.8 1.8 0 1 1 0-3.6h17a1.8 1.8 0 1 1 0 3.6Zm-17.7-.5a1.8 1.8 0 0 1 2.5-2.6l2 2 5.4-5.3a1.8 1.8 0 0 1 2.5 2.6l-6.6 6.6a1.8 1.8 0 0 1-2.5 0Zm5.4-20.4H32.8v59H81v-59H69.5v4.4a1.8 1.8 0 0 1-1.8 1.8H46.1a1.8 1.8 0 0 1-1.8-1.8v-4.4m21.6 2.6v-7.9H48v7.9Z" data-name="Trazado 164"/></g></svg>