<svg xmlns="http://www.w3.org/2000/svg" xmlns:xlink="http://www.w3.org/1999/xlink" width="114" height="114" viewBox="0 0 114 114">
  <defs>
    <clipPath id="clip-path">
      <rect id="Rectángulo_55" data-name="Rectángulo 55" width="81" height="81" fill="none"/>
    </clipPath>
  </defs>
  <g id="Grupo_61" data-name="Grupo 61" transform="translate(-449 -799)">
    <g id="Componente_36_1" data-name="Componente 36 – 1" transform="translate(449 799)">
      <circle id="Elipse_4" data-name="Elipse 4" cx="57" cy="57" r="57" fill="rgba(213,98,29,0.5)"/>
    </g>
    <g id="Grupo_32" data-name="Grupo 32" transform="translate(466 815.543)">
      <g id="Grupo_31" data-name="Grupo 31" transform="translate(0 0.457)" clip-path="url(#clip-path)">
        <path id="Trazado_60" data-name="Trazado 60" d="M149.023,76.175a27.472,27.472,0,0,1,5.688,16.48A26.712,26.712,0,0,1,128,119.367" transform="translate(-87.297 -52.359)" fill="none" stroke="#fff" stroke-linecap="round" stroke-linejoin="round" stroke-width="3"/>
        <path id="Trazado_61" data-name="Trazado 61" d="M70.712,97.423A26.712,26.712,0,1,1,86.056,48.845" transform="translate(-30.008 -30.415)" fill="none" stroke="#fff" stroke-linecap="round" stroke-linejoin="round" stroke-width="3"/>
        <path id="Trazado_62" data-name="Trazado 62" d="M25.154,14.362l-.466-.467-3.216-3.217A39.672,39.672,0,0,0,10.678,21.472L13.9,24.689l.466.465A34.1,34.1,0,0,0,9.95,35.8h-5.2a39.46,39.46,0,0,0,0,15.264h5.2a34.125,34.125,0,0,0,4.411,10.645l-.465.466-3.217,3.216A39.636,39.636,0,0,0,21.472,76.184l3.216-3.216.466-.466A30.578,30.578,0,0,0,35.8,76.913v5.2a39.444,39.444,0,0,0,15.264,0v-5.2A34.148,34.148,0,0,0,61.709,72.5l.466.466,3.217,3.217A39.669,39.669,0,0,0,76.185,65.392l-3.216-3.216-.467-.467a34.134,34.134,0,0,0,4.412-10.645h5.2a39.428,39.428,0,0,0,0-15.264h-5.2A34.147,34.147,0,0,0,72.5,25.154l.465-.465,3.218-3.217A39.639,39.639,0,0,0,65.39,10.678L62.174,13.9l-.465.465A34.118,34.118,0,0,0,51.063,9.95v-5.2a39.444,39.444,0,0,0-15.264,0v5.2A34.084,34.084,0,0,0,25.154,14.362Z" transform="translate(-2.728 -3.135)" fill="none" stroke="#fff" stroke-linecap="round" stroke-linejoin="round" stroke-width="3"/>
        <path id="Trazado_63" data-name="Trazado 63" d="M102.242,100.109a1.718,1.718,0,0,1-.945-1.576,1.894,1.894,0,0,1,.473-1.329,1.653,1.653,0,0,1,1.283-.518,2.133,2.133,0,0,1,1.036.27,12.2,12.2,0,0,0,5.81,1.891V88.039a10.687,10.687,0,0,1-6.057-2.882,7.661,7.661,0,0,1-2.049-5.494,8.616,8.616,0,0,1,2.229-6.125,8.936,8.936,0,0,1,5.877-2.747V69.035q0-1.216,1.126-1.216,1.08,0,1.081,1.216v1.756a13.625,13.625,0,0,1,5.629,1.667,1.742,1.742,0,0,1,.991,1.531,1.807,1.807,0,0,1-.5,1.261,1.587,1.587,0,0,1-1.216.54,2.132,2.132,0,0,1-1.036-.27,12.7,12.7,0,0,0-3.873-1.171V84.707q8.2,1.4,8.2,8.376a9.033,9.033,0,0,1-2.184,6.237,9.144,9.144,0,0,1-6.012,2.9v1.847q0,1.215-1.081,1.216-1.127,0-1.126-1.216V102.36a15.571,15.571,0,0,1-7.656-2.252M109.9,84.3V74.349a5.059,5.059,0,0,0-3.22,1.6,4.9,4.9,0,0,0-1.193,3.4A4.758,4.758,0,0,0,106.5,82.5a6.234,6.234,0,0,0,3.4,1.8m2.207,14.411a5.07,5.07,0,0,0,4.5-5.4q0-3.827-4.5-4.864Z" transform="translate(-69.085 -46.66)" fill="#fff"/>
      </g>
    </g>
  </g>
</svg>
