<svg xmlns="http://www.w3.org/2000/svg" width="101" height="87"><defs><clipPath id="a"><path fill="none" d="M-.5 0h101v87H-.5z" data-name="Rectángulo 18"/></clipPath></defs><g data-name="Grupo 17"><g fill="none" stroke="#fff" strokeLinecap="round" strokeLinejoin="round" strokeWidth="3" clip-path="url(#a)" data-name="Grupo 16" transform="translate(.5)"><path d="M25 59.7c18.3-14.9 6.8-43.4 5-52.3" data-name="Trazado 10"/><path d="M30 7.4v-.2C23.5 14.6 1.8 19.6 1.8 43 1.7 64.8 20 63 20 63" data-name="Trazado 11"/><path d="M96.5 55h0" data-name="Línea 17"/><path d="M90.3 18H67l-4 2a3.3 3.3 0 0 0-1.6 4.1l4 10.6-5.9-1a5 5 0 0 0-5.6 3.4l-.5 1.5a6.7 6.7 0 0 0 2.2 7.3l4.7 3.8 1.4 12c.1 1.8 3.2 3 5 3h3.6c3 0 4-2 4.8-4.8l2-6.8 1.6-8.4-5-5 1.7-3.4 10 5 6.7 5" data-name="Trazado 12"/><path d="M40.1 53h0l4.5.8a6.7 6.7 0 0 1 5.6 6.6v12.1a2.3 2.3 0 0 1-4 1.5L40 66.6a6.7 6.7 0 0 1-1.5-4.3v-2.6l-1.7-1.6" data-name="Trazado 13"/><path d="M40.1 21.3h1a6.7 6.7 0 0 0 5.9-3.7l3.2-6.4L58.5 8l16.8-1.7" data-name="Trazado 14"/><path d="M19.4 24.5A41.8 41.8 0 1 0 97 54.7" data-name="Trazado 15"/><path d="M97 54.7a41.8 41.8 0 0 0-56.9-50" data-name="Trazado 16"/></g></g></svg>