<svg xmlns="http://www.w3.org/2000/svg" width="114" height="114"><defs><clipPath id="a"><path fill="none" d="M0 0h62.3v69.9H0z" data-name="Rectángulo 106"/></clipPath></defs><g data-name="Grupo 85"><g data-name="Componente 36 – 6"><circle cx="57" cy="57" r="57" fill="rgba(213,98,29,0.5)" data-name="Elipse 4"/></g><g data-name="Grupo 81"><g fill="#fff" clip-path="url(#a)" data-name="Grupo 80" transform="translate(25.8 22)"><path d="M49.1 46" data-name="Trazado 169"/><path d="M1.5 70A1.5 1.5 0 0 1 0 68.3v-7.9a19.1 19.1 0 0 1 11.5-17.7 49.9 49.9 0 0 1 10.5-3l.3-.1v-3.4h-.1A20.6 20.6 0 0 1 15.4 22v-.4h-3a1.5 1.5 0 1 1 0-3h1.3v-.5a21.3 21.3 0 0 1 5.7-13A16.3 16.3 0 0 1 31.2 0 16.3 16.3 0 0 1 43 5.3a21.4 21.4 0 0 1 5.6 13v.3H50a1.5 1.5 0 1 1 0 3.1h-3v.4a20.8 20.8 0 0 1-6.8 14.1l-.2.2v3.3h.4A49.5 49.5 0 0 1 50.8 43a19.1 19.1 0 0 1 11.5 17.6v7.9a1.5 1.5 0 0 1-1.5 1.5Zm47.2-15.2h3a1.5 1.5 0 0 1 1.5 1.6v10.5h6v-6.4a16.3 16.3 0 0 0-2.6-9 15.8 15.8 0 0 0-7.3-6l-.6-.1Zm-36.4 12H50V58H12.3Zm.7-21.2a16.2 16.2 0 0 0-10 15v6.2h6.2V56.4a1.5 1.5 0 0 1 1.5-1.6h3v-9.5Zm9.2-2.8a46.4 46.4 0 0 0-5.2 1.3l-.3.1v10.6h29V44.2h-.4a46.4 46.4 0 0 0-5.1-1.4h-.4l-.1.3a7.6 7.6 0 0 1-6.2 5.5 16.1 16.1 0 0 1-4.7 0 7.6 7.6 0 0 1-6.1-5.5l-.2-.3Zm3.2-1.8a4.6 4.6 0 0 0 3.9 4.5 13.2 13.2 0 0 0 3.8 0 4.6 4.6 0 0 0 3.8-4.5v-2.6l-.6.2a13.4 13.4 0 0 1-5.1 1.1 13.2 13.2 0 0 1-5.2-1l-.6-.3Zm-6.9-18.8a19.2 19.2 0 0 0 3.7 9.6 11.3 11.3 0 0 0 8.9 4.8 11.9 11.9 0 0 0 9.1-4.9 18.8 18.8 0 0 0 3.6-9.5v-.5H18.6ZM31.2 3c-7.4 0-13.5 6.5-14.4 15v.5h28.8v-.4C44.5 9.6 38.4 3 31.1 3" data-name="Trazado 170"/><path d="M13.2 46" data-name="Trazado 171"/><path d="M31.2 16.4a5.5 5.5 0 1 1 5.5-5.5 5.5 5.5 0 0 1-5.5 5.5m0-8a2.4 2.4 0 1 0 2.4 2.5 2.4 2.4 0 0 0-2.4-2.5" data-name="Trazado 172"/></g></g></g></svg>