<svg xmlns="http://www.w3.org/2000/svg" xmlns:xlink="http://www.w3.org/1999/xlink" width="123.65" height="115.011" viewBox="0 0 123.65 115.011">
  <defs>
    <clipPath id="clip-path">
      <rect id="Rectángulo_126" data-name="Rectángulo 126" width="123.65" height="115.011" fill="#03773a"/>
    </clipPath>
  </defs>
  <g id="Grupo_140" data-name="Grupo 140" transform="translate(0 0)">
    <g id="Grupo_139" data-name="Grupo 139" transform="translate(0 0)" clip-path="url(#clip-path)">
      <path id="Trazado_247" data-name="Trazado 247" d="M43.565,113.833a3.135,3.135,0,0,1-.832-.111,57.867,57.867,0,1,1,72.988-56.438,3.188,3.188,0,0,1-3.157,3.221,3.211,3.211,0,0,1-3.223-3.16,51.483,51.483,0,1,0-64.954,50.221,3.188,3.188,0,0,1-.823,6.267" transform="translate(0 0.001)" fill="#03773a"/>
      <path id="Trazado_248" data-name="Trazado 248" d="M44.127,88.379a3.172,3.172,0,0,1-2.261-.938,3.12,3.12,0,0,1-.923-2.231V80.919l-1.111-.3a16.711,16.711,0,0,1-12.4-16.07,17.034,17.034,0,0,1,.368-3.523,3.211,3.211,0,0,1,3.14-2.519,3.184,3.184,0,0,1,3.1,3.844,10.328,10.328,0,1,0,20.42,2.192,10.038,10.038,0,0,0-.234-2.189,10.379,10.379,0,0,0-10.1-8.143A16.8,16.8,0,0,1,27.782,41.034a17.011,17.011,0,0,1-.371-3.532,16.7,16.7,0,0,1,12.4-16.072l1.112-.3V16.846a3.19,3.19,0,1,1,6.38,0v4.287l1.111.3A16.718,16.718,0,0,1,60.822,37.5a16.364,16.364,0,0,1-.377,3.534,3.213,3.213,0,0,1-3.113,2.516,3.038,3.038,0,0,1-.677-.075,3.194,3.194,0,0,1-2.447-3.8,9.924,9.924,0,0,0,.234-2.178,10.326,10.326,0,0,0-20.652,0,10.2,10.2,0,0,0,.234,2.2,10.371,10.371,0,0,0,10.1,8.125A16.785,16.785,0,0,1,60.455,61.007a16.311,16.311,0,0,1,.377,3.524,16.7,16.7,0,0,1-12.4,16.07l-1.112.3v4.287a3.193,3.193,0,0,1-3.19,3.19" transform="translate(13.735 6.843)" fill="#03773a"/>
      <path id="Trazado_249" data-name="Trazado 249" d="M41.272,89.763a3.187,3.187,0,0,1-2.258-5.441l21.56-21.56a3.212,3.212,0,0,1,2.258-.932,3.169,3.169,0,0,1,2.258.932l11.292,11.3L93.345,57.1H85.194a3.357,3.357,0,0,1,0-6.714h16.021a3.357,3.357,0,0,1,3.353,3.353V69.763a3.345,3.345,0,0,1-.977,2.372,3.245,3.245,0,0,1-2.334.989,3.347,3.347,0,0,1-3.391-3.367V61.6L78.645,80.822a3.213,3.213,0,0,1-2.258.932,3.176,3.176,0,0,1-2.258-.932l-11.292-11.3L43.529,88.831a3.186,3.186,0,0,1-2.258.932" transform="translate(19.081 25.249)" fill="#03773a"/>
    </g>
  </g>
</svg>
