<svg xmlns="http://www.w3.org/2000/svg" xmlns:xlink="http://www.w3.org/1999/xlink" width="114" height="114" viewBox="0 0 114 114">
  <defs>
    <clipPath id="clip-path">
      <rect id="Rectángulo_106" data-name="Rectángulo 106" width="62.342" height="69.936" fill="none"/>
    </clipPath>
  </defs>
  <g id="Grupo_85" data-name="Grupo 85" transform="translate(-1329 -5748)">
    <g id="Componente_36_6" data-name="Componente 36 – 6" transform="translate(1329 5748)">
      <circle id="Elipse_4" data-name="Elipse 4" cx="57" cy="57" r="57" fill="rgba(213,98,29,0.5)"/>
    </g>
    <g id="Grupo_81" data-name="Grupo 81" transform="translate(1354.829 5770.032)">
      <g id="Grupo_80" data-name="Grupo 80" clip-path="url(#clip-path)">
        <path id="Trazado_169" data-name="Trazado 169" d="M49.132,45.97h0" transform="translate(0 -0.001)" fill="#fff"/>
        <path id="Trazado_170" data-name="Trazado 170" d="M1.547,69.937A1.549,1.549,0,0,1,0,68.39V60.531A19.122,19.122,0,0,1,11.507,42.843,49.877,49.877,0,0,1,21.994,39.72l.343-.063V36.343l-.148-.125a20.629,20.629,0,0,1-6.765-14.123l-.031-.385H12.374a1.546,1.546,0,1,1,0-3.093h1.3l.032-.384A21.314,21.314,0,0,1,19.363,5.271,16.3,16.3,0,0,1,31.171,0a16.3,16.3,0,0,1,11.81,5.271,21.379,21.379,0,0,1,5.665,12.976l.032.383h1.3a1.547,1.547,0,1,1,0,3.093H46.964l-.032.384a20.8,20.8,0,0,1-6.767,14.125l-.146.125v3.313l.342.063a49.513,49.513,0,0,1,10.474,3.123A19.112,19.112,0,0,1,62.342,60.531V68.39a1.549,1.549,0,0,1-1.547,1.547ZM48.714,54.818h2.913a1.549,1.549,0,0,1,1.546,1.547V66.858h6.076V60.545a16.289,16.289,0,0,0-2.691-8.991A15.788,15.788,0,0,0,49.3,45.583l0,0-.037-.013-.55-.182ZM12.262,66.858H50.08V57.912H12.262Zm.784-21.292A16.177,16.177,0,0,0,3.093,60.531v6.313H9.169V56.351A1.541,1.541,0,0,1,10.7,54.8h2.913V45.348Zm9.128-2.724a46.436,46.436,0,0,0-5.161,1.308l-.292.093V54.818h28.9V44.243l-.292-.093a46.436,46.436,0,0,0-5.161-1.308l-.373-.072-.107.365a7.617,7.617,0,0,1-6.153,5.417,16.146,16.146,0,0,1-4.728,0,7.649,7.649,0,0,1-6.153-5.418l-.108-.364Zm3.256-1.874a4.562,4.562,0,0,0,3.827,4.524,13.154,13.154,0,0,0,3.828,0,4.562,4.562,0,0,0,3.827-4.524v-2.6l-.582.247a13.4,13.4,0,0,1-5.162,1.1,13.15,13.15,0,0,1-5.156-1.1l-.582-.247Zm-6.91-18.8A19.193,19.193,0,0,0,22.2,31.818a11.311,11.311,0,0,0,8.876,4.8H31.1a11.9,11.9,0,0,0,9.143-4.875,18.788,18.788,0,0,0,3.574-9.578l.042-.457H18.478ZM31.171,3.094c-7.325,0-13.494,6.476-14.35,15.063l-.046.46H45.568l-.047-.46C44.652,9.57,38.483,3.094,31.171,3.094" transform="translate(0 -0.001)" fill="#fff"/>
        <path id="Trazado_171" data-name="Trazado 171" d="M13.2,45.97h0c-.042.014-.014.014,0,0" transform="translate(0 -0.001)" fill="#fff"/>
        <path id="Trazado_172" data-name="Trazado 172" d="M31.171,16.373a5.518,5.518,0,1,1,5.518-5.518,5.524,5.524,0,0,1-5.518,5.518m0-7.943A2.425,2.425,0,1,0,33.6,10.855,2.428,2.428,0,0,0,31.171,8.43" transform="translate(0 -0.001)" fill="#fff"/>
      </g>
    </g>
  </g>
</svg>
