<svg xmlns="http://www.w3.org/2000/svg" width="114" height="114"><defs><clipPath id="a"><path fill="none" d="M0 0h84.1v64H0z" data-name="Rectángulo 111"/></clipPath></defs><g data-name="Grupo 88"><g data-name="Componente 36 – 11"><circle cx="57" cy="57" r="57" fill="rgba(213,98,29,0.5)" data-name="Elipse 4"/></g><g data-name="Grupo 105"><g clip-path="url(#a)" data-name="Grupo 104" transform="translate(16 20)"><path fill="#fff" d="M82.6 61H70.9a1.3 1.3 0 0 0 0-.2V48.3c5.9-.8 10.4-6 10.4-12.5 0-7-5.3-12.7-11.9-12.7s-11.9 5.7-11.9 12.7c0 6.4 4.6 11.7 10.4 12.5v12.5a1.3 1.3 0 0 0 0 .2H41.8V36.9a18.5 18.5 0 1 0-3 0v24H13.6V50c5.9-.7 10.4-6 10.4-12.5 0-7-5.3-12.6-11.9-12.6S.2 30.5.2 37.4C.2 44 4.8 49.2 10.6 50v11H1.5a1.5 1.5 0 0 0 0 3h81a1.5 1.5 0 0 0 0-3m-22-25.2c0-5.3 4-9.7 8.9-9.7s8.9 4.4 8.9 9.7a9.5 9.5 0 0 1-7.4 9.5v-4l4.6-5a1.5 1.5 0 0 0-2.2-2l-2.4 2.5V34a1.5 1.5 0 0 0-3 0v3l-2.2-2.5a1.5 1.5 0 0 0-2.2 2l4.4 4.8v4a9.5 9.5 0 0 1-7.4-9.4M24.8 18.5a15.5 15.5 0 1 1 17 15.4v-6.3l9-9a1.5 1.5 0 1 0-2.2-2l-6.8 6.8v-8.2a1.5 1.5 0 1 0-3 0v8.2l-6.5-6.6A1.5 1.5 0 0 0 30 19l8.7 8.6V34a15.5 15.5 0 0 1-14-15.4m-21.6 19c0-5.4 4-9.7 9-9.7s8.8 4.3 8.8 9.6a9.5 9.5 0 0 1-7.4 9.5v-4l4.6-5a1.5 1.5 0 0 0-2.2-2l-2.4 2.6v-2.9a1.5 1.5 0 0 0-3 0v2.9L8.4 36a1.5 1.5 0 0 0-2.2 2l4.4 4.8v4a9.5 9.5 0 0 1-7.4-9.5" data-name="Trazado 187"/></g></g></g></svg>