<svg xmlns="http://www.w3.org/2000/svg" width="114" height="114" viewBox="0 0 114 114">
  <g id="Grupo_88" data-name="Grupo 88" transform="translate(-171 -5748)">
    <g id="Componente_36_3" data-name="Componente 36 – 3" transform="translate(171 5748)">
      <circle id="Elipse_4" data-name="Elipse 4" cx="57" cy="57" r="57" fill="rgba(213,98,29,0.5)"/>
    </g>
    <path id="Trazado_164" data-name="Trazado 164" d="M40.334,5.306H53.576a1.8,1.8,0,0,1,1.8,1.8V69.681a1.8,1.8,0,0,1-1.8,1.8H1.8a1.8,1.8,0,0,1-1.8-1.8V7.107a1.8,1.8,0,0,1,1.8-1.8H15.043V1.8a1.8,1.8,0,0,1,1.8-1.8h21.69a1.8,1.8,0,0,1,1.8,1.8ZM27.361,56.357a1.8,1.8,0,1,1,0-3.6H44.445a1.8,1.8,0,0,1,0,3.6Zm-17.7-.541A1.8,1.8,0,0,1,12.2,53.27L14.237,55.3l5.32-5.318A1.8,1.8,0,0,1,22.1,52.532l-6.592,6.592a1.8,1.8,0,0,1-2.546,0Zm17.7-12.742a1.8,1.8,0,1,1,0-3.6H44.445a1.8,1.8,0,1,1,0,3.6Zm-17.7-.541A1.8,1.8,0,1,1,12.2,39.988l2.034,2.036,5.32-5.32A1.8,1.8,0,0,1,22.1,39.249l-6.592,6.592a1.8,1.8,0,0,1-2.546,0L9.657,42.533m17.7-12.739a1.8,1.8,0,1,1,0-3.6H44.445a1.8,1.8,0,1,1,0,3.6Zm-17.7-.541A1.8,1.8,0,0,1,12.2,26.707l2.034,2.034,5.32-5.318A1.8,1.8,0,0,1,22.1,25.969l-6.592,6.592a1.8,1.8,0,0,1-2.546,0ZM15.04,8.907H3.6V67.88H51.772V8.907H40.331v4.378a1.8,1.8,0,0,1-1.8,1.8H16.841a1.8,1.8,0,0,1-1.8-1.8V8.907m21.69,2.577V3.6H18.641v7.883Z" transform="translate(200.21 5768.008)" fill="#fff"/>
  </g>
</svg>
