<svg xmlns="http://www.w3.org/2000/svg" xmlns:xlink="http://www.w3.org/1999/xlink" width="151.631" height="154.238" viewBox="0 0 151.631 154.238">
  <defs>
    <clipPath id="clip-path">
      <rect id="Rectángulo_128" data-name="Rectángulo 128" width="151.631" height="154.238" fill="#009145"/>
    </clipPath>
  </defs>
  <g id="Grupo_144" data-name="Grupo 144" transform="translate(0 0)">
    <g id="Grupo_143" data-name="Grupo 143" transform="translate(0 0)" clip-path="url(#clip-path)">
      <path id="Trazado_252" data-name="Trazado 252" d="M75.483,0a2.967,2.967,0,0,0-1.76.572l-72.5,52.9a2.984,2.984,0,0,0,3.519,4.82L75.492,6.672l28.687,20.743A2.985,2.985,0,0,0,108.913,25V14.092H120.1V36.825a3,3,0,0,0,1.2,2.394l25.563,19.04a2.985,2.985,0,0,0,3.567-4.787L126.07,35.327V11.107a2.987,2.987,0,0,0-2.983-2.983H105.928a2.987,2.987,0,0,0-2.983,2.983v8.05L77.232.565A2.972,2.972,0,0,0,75.483,0" transform="translate(0 0.001)" fill="#009145"/>
      <path id="Trazado_253" data-name="Trazado 253" d="M16.539,114.354v-60a2.984,2.984,0,0,0-5.968,0v60a2.984,2.984,0,0,0,5.968,0" transform="translate(7.593 36.9)" fill="#009145"/>
      <path id="Trazado_254" data-name="Trazado 254" d="M23.51,104.233V68.3a2.984,2.984,0,0,0-5.968,0v35.937a2.984,2.984,0,0,0,5.968,0" transform="translate(12.6 46.915)" fill="#009145"/>
      <path id="Trazado_255" data-name="Trazado 255" d="M30.482,114.247V54.354a2.984,2.984,0,0,0-5.968,0v59.893a2.984,2.984,0,0,0,5.968,0" transform="translate(17.608 36.9)" fill="#009145"/>
      <path id="Trazado_256" data-name="Trazado 256" d="M10.2,95.176V69.442a7.943,7.943,0,0,1,5.117-7.4l.392-.148a40.922,40.922,0,0,1,29.2.11,7.95,7.95,0,0,1,5.066,7.377,2.984,2.984,0,0,0,5.968,0,13.963,13.963,0,0,0-8.887-12.949,47.117,47.117,0,0,0-6.626-2,12.336,12.336,0,0,0,2.62-7.6V42.647A12.422,12.422,0,0,0,30.639,30.241h-.9A12.421,12.421,0,0,0,17.334,42.647v4.189a12.334,12.334,0,0,0,2.639,7.624,46.965,46.965,0,0,0-6.366,1.852l-.392.148A13.94,13.94,0,0,0,4.234,69.442V95.176a2.984,2.984,0,0,0,5.968,0m20.437-41.9h-.9a6.448,6.448,0,0,1-6.442-6.44V42.647a6.449,6.449,0,0,1,6.442-6.44h.9a6.448,6.448,0,0,1,6.44,6.44v4.189a6.447,6.447,0,0,1-6.44,6.44" transform="translate(3.041 21.723)" fill="#009145"/>
      <path id="Trazado_257" data-name="Trazado 257" d="M43.255,108.882V61.972a2.984,2.984,0,0,0-5.968,0v46.91a2.984,2.984,0,0,0,5.968,0" transform="translate(26.783 42.372)" fill="#009145"/>
      <path id="Trazado_258" data-name="Trazado 258" d="M49.4,100.671V73.292a2.984,2.984,0,0,0-5.968,0v27.379a2.984,2.984,0,0,0,5.968,0" transform="translate(31.197 50.504)" fill="#009145"/>
      <path id="Trazado_259" data-name="Trazado 259" d="M55.547,108.8V61.973a2.984,2.984,0,0,0-5.968,0V108.8a2.984,2.984,0,0,0,5.968,0" transform="translate(35.613 42.373)" fill="#009145"/>
      <path id="Trazado_260" data-name="Trazado 260" d="M73.426,77.452V96.135a2.983,2.983,0,0,0,5.966,0V77.452A16.8,16.8,0,0,0,67.058,61.29c-.806-.222-1.62-.406-2.437-.581a10.727,10.727,0,0,0,1.9-6.1V51.13a10.816,10.816,0,0,0-10.8-10.8h-.746a10.817,10.817,0,0,0-10.8,10.8v3.476a10.734,10.734,0,0,0,1.9,6.109c-.814.174-1.627.359-2.431.579l-.184.05A16.8,16.8,0,0,0,31.123,77.506v17.63a2.984,2.984,0,0,0,5.968,0V77.506A10.817,10.817,0,0,1,45.036,67.1l.186-.052a38.414,38.414,0,0,1,20.262,0,10.812,10.812,0,0,1,7.942,10.406M55.717,59.443h-.746a4.843,4.843,0,0,1-4.837-4.837V51.13a4.843,4.843,0,0,1,4.837-4.837h.746a4.841,4.841,0,0,1,4.835,4.837v3.476a4.841,4.841,0,0,1-4.835,4.837" transform="translate(22.356 28.966)" fill="#009145"/>
      <path id="Trazado_261" data-name="Trazado 261" d="M93.905,53.752a2.986,2.986,0,0,0-2.443-3.443,3.037,3.037,0,0,0-.495-.041,2.978,2.978,0,0,0-2.943,2.485l-1.9,11.155H73.968l-1.9-11.155a2.979,2.979,0,0,0-2.945-2.485,3.122,3.122,0,0,0-.5.041,2.981,2.981,0,0,0-2.44,3.44l2.26,13.514-8.4,28.177a2.981,2.981,0,0,0,2.859,3.837h3.8l.064,15.776a2.988,2.988,0,0,0,2.985,2.973h.01a2.98,2.98,0,0,0,2.973-2.978v-.017l-.065-15.753h4.4l.06,15.776a2.987,2.987,0,0,0,2.983,2.973h.009A2.98,2.98,0,0,0,83.1,115.04v-.01l-.058-15.753h4.535l.058,15.776a2.988,2.988,0,0,0,2.983,2.973h.01A2.983,2.983,0,0,0,93.6,115.04v-.01l-.06-15.753h3.713a2.985,2.985,0,0,0,2.856-3.847l-8.5-28.189ZM86.137,69.875l7.1,23.434H66.916L73.9,69.875Z" transform="translate(43.047 36.107)" fill="#009145"/>
      <path id="Trazado_262" data-name="Trazado 262" d="M81.381,31.691a13.025,13.025,0,0,0-9.87,21.546c-.871.268-1.739.56-2.593.9l-.478.191a16.307,16.307,0,0,0-10.272,15.2,2.984,2.984,0,1,0,5.968,0,10.365,10.365,0,0,1,6.53-9.66l.478-.191a26.178,26.178,0,0,1,19.944.12A10.385,10.385,0,0,1,97.5,69.413V89.2a2.984,2.984,0,1,0,5.968,0V69.413a16.339,16.339,0,0,0-10.09-15.124c-.765-.318-1.543-.579-2.321-.837a13.02,13.02,0,0,0-9.676-21.761M74.3,44.735a7.077,7.077,0,1,1,7.076,7.076A7.085,7.085,0,0,1,74.3,44.735" transform="translate(41.782 22.764)" fill="#009145"/>
    </g>
  </g>
</svg>
