<svg xmlns="http://www.w3.org/2000/svg" width="114" height="114"><defs><clipPath id="a"><path fill="none" d="M0 0h71v82H0z" data-name="Rectángulo 105"/></clipPath></defs><g data-name="Grupo 86"><g data-name="Componente 36 – 5"><circle cx="57" cy="57" r="57" fill="rgba(213,98,29,0.5)" data-name="Elipse 4"/></g><g data-name="Grupo 79"><g clip-path="url(#a)" data-name="Grupo 78" transform="translate(16 11)"><path fill="#fff" d="M32 41a2 2 0 0 0-2 2l-3 10a27 27 0 0 0-1 7 14 14 0 0 0-13 6 11 11 0 0 0-2 0A12 12 0 0 0 0 78a2 2 0 0 0 4 0 8 8 0 0 1 7-8 8 8 0 0 1 3 0 2 2 0 0 0 2-1 10 10 0 0 1 19 3 2 2 0 0 0 3 2 5 5 0 0 1 2-1 5 5 0 0 1 5 4 2 2 0 0 0 3 1l1-1c3-1 10-2 14 4a2 2 0 0 0 3-2 14 14 0 0 0-11-6 25 25 0 0 0 6-11l3-10a2 2 0 0 0-2-3l-9-2 8-32h3a6 6 0 1 0 3-11L51 0a6 6 0 0 0-3 11l2 1-8 32Zm28 11-3 9c-1 6-4 10-9 13a9 9 0 0 0-8-5 9 9 0 0 0-2 0 14 14 0 0 0-8-8 23 23 0 0 1 1-7l2-9 8 2v1l-1 2v1a11 11 0 0 0 0 2 18 18 0 0 0 1 5 5 5 0 0 0 1 2 2 2 0 0 0 1 1 1 1 0 1 0 1-2 3 3 0 0 1-1-1 16 16 0 0 1 0-5 16 16 0 0 1 0-2h1v-2l1-2v-1l2-8 4 1-2 9a2 2 0 0 0 1 2ZM53 9l-4-2a2 2 0 0 1 1-3l16 4a2 2 0 1 1-1 4l-4-1a2 2 0 0 0-3 1l-6 24-4-1 7-24a2 2 0 0 0-2-2" data-name="Trazado 168"/></g></g></g></svg>