<svg xmlns="http://www.w3.org/2000/svg" width="114" height="114"><defs><clipPath id="a"><path fill="none" d="M0 0h64.9v69.4H0z" data-name="Rectángulo 113"/></clipPath></defs><g data-name="Grupo 88"><g data-name="Componente 36 – 13"><circle cx="57" cy="57" r="57" fill="rgba(213,98,29,0.5)" data-name="Elipse 4"/></g><g data-name="Grupo 109"><g clip-path="url(#a)" data-name="Grupo 108" transform="translate(24.6 22.3)"><path fill="#fff" d="M49.6.2h-42A7.5 7.5 0 0 0 .3 7.7v54a7.5 7.5 0 0 0 7.5 7.5h42a1.5 1.5 0 0 0 1.5-1.6V1.7A1.5 1.5 0 0 0 49.6.2M8 3.2H48v3h-36a1.5 1.5 0 0 0 0 3h36v3H7.7a4.5 4.5 0 0 1-4.5-4.7A4.7 4.7 0 0 1 8 3.2m-.3 63a4.5 4.5 0 0 1-4.5-4.6V13.7a7.4 7.4 0 0 0 4.5 1.5H48v51Z" data-name="Trazado 190"/><path fill="none" stroke="#fff" stroke-miterlimit="10" stroke-width=".3" d="M49.6.2h-42A7.5 7.5 0 0 0 .3 7.7v54a7.5 7.5 0 0 0 7.5 7.5h42a1.5 1.5 0 0 0 1.5-1.6V1.7A1.5 1.5 0 0 0 49.6.2ZM8 3.2H48v3h-36a1.5 1.5 0 0 0 0 3h36v3H7.7a4.5 4.5 0 0 1-4.5-4.7A4.7 4.7 0 0 1 8 3.2Zm-.3 63a4.5 4.5 0 0 1-4.5-4.6V13.7a7.4 7.4 0 0 0 4.5 1.5H48v51Z" data-name="Trazado 191"/><path fill="#fff" d="M18.2 28.7h15a1.5 1.5 0 0 1 0 3h-15a1.5 1.5 0 0 1 0-3" data-name="Trazado 192"/><path fill="none" stroke="#fff" stroke-miterlimit="10" stroke-width=".3" d="M18.2 28.7h15a1.5 1.5 0 0 1 0 3h-15a1.5 1.5 0 0 1 0-3Z" data-name="Trazado 193"/><path fill="#fff" d="M13.7 37.7h24a1.5 1.5 0 0 1 0 3h-24a1.5 1.5 0 1 1 0-3" data-name="Trazado 194"/><path fill="none" stroke="#fff" stroke-miterlimit="10" stroke-width=".3" d="M13.7 37.7h24a1.5 1.5 0 0 1 0 3h-24a1.5 1.5 0 1 1 0-3Z" data-name="Trazado 195"/><path fill="#fff" d="M61.7 1.7h-3a3 3 0 0 0-3 3v55.5a1.5 1.5 0 0 0 .1.7l3 6a1.5 1.5 0 0 0 2.7 0l3-6a1.5 1.5 0 0 0 .2-.7V4.7a3 3 0 0 0-3-3m0 9h-3v-6h3Zm-1 51h-1l-1-1.9V13.7h3v46.1Z" data-name="Trazado 196"/><path fill="none" stroke="#fff" stroke-miterlimit="10" stroke-width=".3" d="M61.7 1.7h-3a3 3 0 0 0-3 3v55.5a1.5 1.5 0 0 0 .1.7l3 6a1.5 1.5 0 0 0 2.7 0l3-6a1.5 1.5 0 0 0 .2-.7V4.7a3 3 0 0 0-3-3Zm0 9h-3v-6h3Zm-1 51h-1l-1-1.9V13.7h3v46.1Z" data-name="Trazado 197"/></g></g></g></svg>