<svg xmlns="http://www.w3.org/2000/svg" width="114" height="114"><defs><clipPath id="a"><path fill="none" d="M0 0h73.9v73.5H0z" data-name="Rectángulo 107"/></clipPath></defs><g data-name="Grupo 88"><g data-name="Componente 36 – 7"><circle cx="57" cy="57" r="57" fill="rgba(213,98,29,0.5)" data-name="Elipse 4"/></g><g data-name="Grupo 97"><g fill="#fff" clip-path="url(#a)" data-name="Grupo 96" transform="translate(23.1 18.2)"><path d="M73.5 51a4.5 4.5 0 0 0-5.5-2.3L54 54.5v-.7a5.3 5.3 0 0 0-1.2-3 5.4 5.4 0 0 0-3.5-1.8H41c-4.2 0-4.3-.3-10.3-1.1s-6.2-2.2-11.5-2.2h-.8a18.7 18.7 0 0 0-8.2 2.4 2.2 2.2 0 0 0-2.1-2h-6A2.2 2.2 0 0 0 0 48.2v23.1a2.2 2.2 0 0 0 2.2 2.2H8a2.2 2.2 0 0 0 2.2-2.2v-.6a14.3 14.3 0 0 1 3-1.4 19 19 0 0 1 6.4-.8h.2a32.8 32.8 0 0 1 6.4.6c2.8.6 3.2 1 6.4 1.6l4.2.5h4.4a20.3 20.3 0 0 0 9.7-3l21-11.7a4.5 4.5 0 0 0 1.5-5.6m-66.3-.7v20.2h-4V49.2h4Zm63.2 3.7-21 11.6a17.2 17.2 0 0 1-8.2 2.7h-4.1a38.7 38.7 0 0 1-3.9-.5A20 20 0 0 1 30 67a28.8 28.8 0 0 0-3.1-.8 36.1 36.1 0 0 0-7-.7h-.3a21.8 21.8 0 0 0-7.3 1 17.1 17.1 0 0 0-2 .7V51.8a15.7 15.7 0 0 1 8.2-2.9h.7a14.2 14.2 0 0 1 5.2.9 31.4 31.4 0 0 0 5.9 1.3l4.3.6a32 32 0 0 0 6.3.6h8.4A2 2 0 0 1 49 56H30.7a1.6 1.6 0 1 0-.3 3.1 1.5 1.5 0 0 0 .3 0h19.4a6 6 0 0 0 2-.4l3.3-1.4 13.7-5.8a1.2 1.2 0 0 1 .4 0 1.3 1.3 0 0 1 .8 2.3Z" data-name="Trazado 174"/><path d="M31 25.9a7.6 7.6 0 0 0 2.3 1.2 11 11 0 0 0 2.7.6v1.5a1.2 1.2 0 0 0 .3.9 1.3 1.3 0 0 0 1.9 0 1.2 1.2 0 0 0 .3-1v-1.5a6.3 6.3 0 0 0 3.7-1.6 4.4 4.4 0 0 0 1.3-3.3 3.8 3.8 0 0 0-.8-2.5 4.9 4.9 0 0 0-1.8-1.4 20.9 20.9 0 0 0-2.9-1l-2-.5a3.4 3.4 0 0 1-1.4-.8 1.7 1.7 0 0 1-.5-1.3 2.2 2.2 0 0 1 1-1.8 4 4 0 0 1 2.3-.7 5.7 5.7 0 0 1 2.1.4 9 9 0 0 1 1.9 1 3 3 0 0 0 .5.3 1.3 1.3 0 0 0 .4 0 .9.9 0 0 0 .7-.4 1.4 1.4 0 0 0 .3-.9 1.4 1.4 0 0 0-.5-1.1 8.1 8.1 0 0 0-4.3-1.9V8.8a1.2 1.2 0 0 0-.3-.9 1.3 1.3 0 0 0-1.8 0 1.2 1.2 0 0 0-.4.9v1.5a6.4 6.4 0 0 0-3.6 1.7 4.5 4.5 0 0 0-1.4 3.4 3.9 3.9 0 0 0 .8 2.6 5.1 5.1 0 0 0 2 1.4 21.7 21.7 0 0 0 2.9 1l2 .6a3.6 3.6 0 0 1 1.2.7 1.5 1.5 0 0 1 .5 1 2.1 2.1 0 0 1-.9 2 4.3 4.3 0 0 1-2.5.6 7.4 7.4 0 0 1-2.2-.4 9 9 0 0 1-2.2-1l-.6-.3a1.2 1.2 0 0 0-.4 0 .9.9 0 0 0-.7.4 1.4 1.4 0 0 0-.3.9 1.5 1.5 0 0 0 .1.6 1.2 1.2 0 0 0 .4.4" data-name="Trazado 175"/><path d="M37 38a19 19 0 1 0-19-19 19 19 0 0 0 19 19M37 3Z" data-name="Trazado 176"/></g></g></g></svg>