<svg xmlns="http://www.w3.org/2000/svg" width="143.8" height="123.9"><defs><clipPath id="a"><path fill="none" d="M0 0h143.8v123.9H0z" data-name="Rectángulo 18"/></clipPath></defs><g fill="none" stroke="#03773a" strokeLinecap="round" strokeLinejoin="round" strokeWidth="5" clip-path="url(#a)" data-name="Grupo 16"><path d="M36.4 85c26-21.1 9.5-61.8 7-74.5" data-name="Trazado 10"/><path d="m43.4 10.5.1-.2C34 20.8 3.1 27.9 3.1 61.3c0 31 26.2 28.5 26.2 28.5" data-name="Trazado 11"/><path d="M138.1 78.3h0" data-name="Línea 17"/><path d="M129.3 25.5H95.9l-5.6 2.9a4.8 4.8 0 0 0-2.4 6l5.7 15-8.3-1.4a7.1 7.1 0 0 0-8 4.8l-.7 2.2a9.5 9.5 0 0 0 3 10.4l6.8 5.4 2 17.2c.2 2.4 4.6 4.2 7 4.2h5.3c4.2 0 5.6-2.8 6.7-6.9l2.8-9.7 2.4-12-7.1-7.1 2.3-4.8 14.3 7.2 9.6 7.1" data-name="Trazado 12"/><path d="M57.8 75.6h0l6.4 1a9.5 9.5 0 0 1 8 9.4v17.3a3.2 3.2 0 0 1-5.8 2L57.7 95a9.5 9.5 0 0 1-2.2-6.1V85L53 82.7" data-name="Trazado 13"/><path d="M57.8 30.3h1.3a9.5 9.5 0 0 0 8.5-5.3l4.5-9 12-4.8L107.8 9" data-name="Trazado 14"/><path d="M28.3 35a59.5 59.5 0 1 0 110.5 43" data-name="Trazado 15"/><path d="M138.8 78a59.5 59.5 0 0 0-81-71.3" data-name="Trazado 16"/></g></svg>