<svg xmlns="http://www.w3.org/2000/svg" width="148.7" height="150.6"><defs><clipPath id="a"><path fill="none" d="M0 0h149v151H0z" data-name="Rectángulo 19"/></clipPath></defs><g fill="none" stroke="#009145" strokeLinecap="round" strokeLinejoin="round" strokeWidth="5" clip-path="url(#a)" data-name="Grupo 18"><path d="M58 124h20a11 11 0 0 0 5-1l18-8a3 3 0 0 0 1-5 12 12 0 0 0-14-5l-10 4c-4 0-31-21-50-2a12 12 0 0 1-3 2l-8 4" data-name="Trazado 17"/><path d="m102 110 17-12a11 11 0 0 1 16 4 3 3 0 0 1-1 4l-22 15-17 14a36 36 0 0 1-30 7l-26-5a11 11 0 0 0-7 0l-15 8" data-name="Trazado 18"/><path d="M76 35h0a9 9 0 0 1-9-9v-4a9 9 0 0 1 18 0v4a9 9 0 0 1-9 9Z" data-name="Trazado 19"/><path d="M109 35h0a9 9 0 0 1-9-9v-4a9 9 0 0 1 17 0v4a9 9 0 0 1-8 9Z" data-name="Trazado 20"/><path d="M43 35h0a9 9 0 0 1-9-9v-4a9 9 0 0 1 18 0v4a9 9 0 0 1-9 9Z" data-name="Trazado 21"/><path d="M65 59v29c-6 0-11-7-11-13V64" data-name="Trazado 22"/><path d="M98 64v11c0 6-5 13-11 13V59" data-name="Trazado 23"/><path d="M54 68v-7a18 18 0 0 1 18-17h8a18 18 0 0 1 18 17v11" data-name="Trazado 24"/><path d="M32 59v29c-6 0-11-7-11-13V64" data-name="Trazado 25"/><path d="M52 44a18 18 0 0 0-5 0h-8a18 18 0 0 0-18 17v7" data-name="Trazado 26"/><path d="M131 64v11c0 6-5 13-11 13V59" data-name="Trazado 27"/><path d="M131 72V61a18 18 0 0 0-18-17h-9a18 18 0 0 0-4 0" data-name="Trazado 28"/></g></svg>