<svg xmlns="http://www.w3.org/2000/svg" xmlns:xlink="http://www.w3.org/1999/xlink" width="179.258" height="156" viewBox="0 0 179.258 156">
  <defs>
    <clipPath id="clip-path">
      <rect id="Rectángulo_127" data-name="Rectángulo 127" width="179.258" height="156" fill="#009145"/>
    </clipPath>
  </defs>
  <g id="Grupo_142" data-name="Grupo 142" transform="translate(0 0)">
    <g id="Grupo_141" data-name="Grupo 141" transform="translate(0 0)" clip-path="url(#clip-path)">
      <path id="Trazado_250" data-name="Trazado 250" d="M93.394,93.158c-6.691-9.149-16.578-14.451-27.187-14.6v-1.89c13.728-.227,20.406-6.746,20.69-7.028A2.9,2.9,0,0,0,86,64.9c-4.611-1.951-7.436-9.962-8.055-12.58a1.118,1.118,0,0,0-.037-.143,28.987,28.987,0,0,0,1.193-6.9,6.328,6.328,0,0,0,3.887-5.839V35.507a6.344,6.344,0,0,0-2.839-5.261,29.185,29.185,0,0,0-20.781-26.5A5,5,0,0,0,54.521,0H46.287a5.016,5.016,0,0,0-4.795,3.572A29.389,29.389,0,0,0,20.641,30.25a6.368,6.368,0,0,0-2.817,5.258v3.926a6.328,6.328,0,0,0,3.887,5.839,28.5,28.5,0,0,0,1.364,7.448c-1.42,4.919-4.224,10.6-8,12.19a2.914,2.914,0,0,0-.9,4.735c.284.28,6.963,6.786,20.713,7.026v1.891C15.6,78.914,0,96.329,0,117.683v19.133a2.907,2.907,0,0,0,2.9,2.9H71.7a1.191,1.191,0,0,0,1.191-1.19V135.1a1.191,1.191,0,0,0-1.191-1.19H53.355V106.307a4.266,4.266,0,0,1,2.188-3.881c6.441-3.147,10.507-11.385,11.015-18.047a25.813,25.813,0,0,1,3.157.32c-1.312,13.915,3.346,20.293,7.6,24.3a1.187,1.187,0,0,0,1.845-.267,33.52,33.52,0,0,1,1.862-2.85,1.188,1.188,0,0,0-.129-1.548c-2.751-2.694-6.237-7.478-5.45-18.125A29.991,29.991,0,0,1,88.6,96.428a1.191,1.191,0,0,0,1.649.256,31.328,31.328,0,0,1,2.776-1.79,1.192,1.192,0,0,0,.37-1.735M41.241,20.343a11.641,11.641,0,0,0-2.308,6.978,12.1,12.1,0,0,0,.136,1.832h-12.5A23.514,23.514,0,0,1,41.241,9.776Zm12.5-4.286a11.72,11.72,0,0,0-6.663.129V5.807h6.663ZM50.617,33.2A5.878,5.878,0,1,1,56.5,27.321,5.884,5.884,0,0,1,50.617,33.2m0,5.807a11.654,11.654,0,0,0,8.843-4.045H76.606a.542.542,0,0,1,.548.548v3.926a.541.541,0,0,1-.548.548H24.2a.561.561,0,0,1-.571-.548V35.507a.561.561,0,0,1,.571-.548H41.777A11.65,11.65,0,0,0,50.617,39m11.536-9.852a11.209,11.209,0,0,0,.149-1.832,11.654,11.654,0,0,0-2.759-7.516V9.933A23.369,23.369,0,0,1,74.23,29.153ZM18.641,105c-5.059,4.621-5.314,11.413-5.314,12.729v16.183H5.807v-16.23c0-13.841,7.566-26.105,18.984-31.046.692,10.645-2.89,15.4-6.15,18.363m7.951-45.074a28.455,28.455,0,0,0,8.3,8.108v2.8a29.871,29.871,0,0,1-13.512-3.26,24.752,24.752,0,0,0,5.215-7.652m3.9,24.925a25.586,25.586,0,0,1,3.736-.44c.514,6.65,4.606,14.871,11.081,18.012a4.333,4.333,0,0,1,2.215,3.882v27.607H19.133V117.73a11.939,11.939,0,0,1,3.42-8.427c4.4-4.008,9.227-10.4,7.939-24.451M60.4,79.817a19.2,19.2,0,0,1-19.7-.01V70.912c.234.083.481.168.742.256a31.328,31.328,0,0,0,8.92,1.18,35.02,35.02,0,0,0,9.057-1.186c.342-.121.67-.241.986-.362ZM50.428,99.093a9.493,9.493,0,0,0-2.58-1.9c-3.413-1.631-6.5-6.3-7.513-11.025a25.157,25.157,0,0,0,20.089.146c-1.047,4.674-4.1,9.276-7.421,10.882l-.013,0a9.461,9.461,0,0,0-2.562,1.895M57.7,65.613a29.707,29.707,0,0,1-14.469.033l-.035-.008A23.016,23.016,0,0,1,27.58,45.788H73.225A22.99,22.99,0,0,1,57.7,65.613m8.5,5.206v-2.94a28.933,28.933,0,0,0,8.181-8.218,25.087,25.087,0,0,0,5.359,7.922,29.478,29.478,0,0,1-13.54,3.235" transform="translate(0 -0.001)" fill="#009145"/>
      <path id="Trazado_251" data-name="Trazado 251" d="M113.229,88.375V77.682a28.655,28.655,0,0,0,12.883-22.6A6.362,6.362,0,0,0,130,49.244V45.324a6.329,6.329,0,0,0-2.826-5.26,29.219,29.219,0,0,0-20.791-26.51A5,5,0,0,0,101.54,9.8H93.312a5.049,5.049,0,0,0-4.8,3.589A29.371,29.371,0,0,0,67.673,40.064a6.331,6.331,0,0,0-2.822,5.258v3.921a6.365,6.365,0,0,0,3.886,5.842A28.614,28.614,0,0,0,81.9,77.853V88.377c-19.294.357-34.89,17.766-34.89,39.114v19.142a2.91,2.91,0,0,0,2.907,2.907h95.444a2.91,2.91,0,0,0,2.907-2.907V127.482c0-21.4-15.681-38.841-35.041-39.106M88.278,30.147a11.626,11.626,0,0,0-2.187,8.81h-12.5A23.526,23.526,0,0,1,88.278,19.6Zm12.483-4.276a11.631,11.631,0,0,0-6.67.128V15.618h6.67Zm8.425,13.084a11.612,11.612,0,0,0-2.613-9.338v-9.88a23.37,23.37,0,0,1,14.683,19.218ZM97.641,43.013a5.878,5.878,0,1,1,5.878-5.877,5.884,5.884,0,0,1-5.878,5.877m0,5.814a11.615,11.615,0,0,0,8.835-4.057h17.161a.553.553,0,0,1,.552.552v3.921a.552.552,0,0,1-.552.552H71.219a.553.553,0,0,1-.552-.554l0-3.919a.553.553,0,0,1,.552-.552H88.8a11.611,11.611,0,0,0,8.837,4.057M65.666,114.816c-5.067,4.626-5.324,11.4-5.324,12.717v16.192H52.826V127.493c0-13.834,7.571-26.1,19-31.049.682,10.629-2.9,15.4-6.157,18.372M120.25,55.609a22.936,22.936,0,0,1-15.5,19.8,29.369,29.369,0,0,1-14.5.05A23.04,23.04,0,0,1,74.6,55.609ZM77.514,94.662a26.548,26.548,0,0,1,3.745-.441c.508,6.655,4.594,14.879,11.071,18.023a4.256,4.256,0,0,1,2.227,3.877v27.6h-28.4V127.531a11.918,11.918,0,0,1,3.429-8.424c4.4-4.015,9.227-10.411,7.929-24.446m29.9-5.021a19.2,19.2,0,0,1-19.7-.01V80.725q.373.137.742.257l.013,0a32.3,32.3,0,0,0,8.911,1.163,34.809,34.809,0,0,0,9.029-1.176c.327-.108.659-.226,1-.357ZM87.363,95.976a25.032,25.032,0,0,0,10.209,2.2h.012a25.041,25.041,0,0,0,9.857-2.044c-1.045,4.661-4.1,9.266-7.416,10.887a9.188,9.188,0,0,0-2.568,1.886,9.216,9.216,0,0,0-2.588-1.89c-3.4-1.651-6.489-6.321-7.5-11.037m13.006,20.145a4.253,4.253,0,0,1,2.207-3.879c6.446-3.151,10.507-11.385,11.007-18.042a25.863,25.863,0,0,1,3.167.315c-1.342,14.131,3.5,20.56,7.917,24.59a11.928,11.928,0,0,1,3.431,8.425v16.193H100.369Zm28.219-1.307c-3.305-3.018-6.93-7.871-6.127-18.783,11.845,4.6,20,17.3,20,31.449l0,16.245h-8.543V127.531c0-1.311-.257-8.088-5.324-12.717" transform="translate(30.988 6.461)" fill="#009145"/>
    </g>
  </g>
</svg>
