<svg xmlns="http://www.w3.org/2000/svg" width="114" height="114"><defs><clipPath id="a"><path fill="none" d="M0 0h66.2v66.2H0z" data-name="Rectángulo 109"/></clipPath></defs><g data-name="Grupo 88"><g data-name="Componente 36 – 9"><circle cx="57" cy="57" r="57" fill="rgba(213,98,29,0.5)" data-name="Elipse 4"/></g><g data-name="Grupo 101"><g fill="#fff" clip-path="url(#a)" data-name="Grupo 100" transform="translate(24 24)"><path d="M33 0a33 33 0 1 0 33.2 33A33.1 33.1 0 0 0 33 0m0 61A27.9 27.9 0 1 1 61 33a28 28 0 0 1-28 28" data-name="Trazado 180"/><path d="M16.7 31a2.6 2.6 0 0 0 2.6-2.6 2 2 0 0 1 4.1 0 2.6 2.6 0 0 0 5.3 0 7.3 7.3 0 0 0-14.6 0 2.6 2.6 0 0 0 2.6 2.6" data-name="Trazado 181"/><path d="M44.8 21.1a7.3 7.3 0 0 0-7.3 7.3 2.6 2.6 0 1 0 5.2 0 2 2 0 0 1 4.2 0 2.6 2.6 0 1 0 5.2 0 7.3 7.3 0 0 0-7.3-7.3" data-name="Trazado 182"/><path d="M49.5 37.5H16.7a2.6 2.6 0 0 0-2 1 2.6 2.6 0 0 0-.6 2c1 5.7 6.1 16.3 19 16.3s18-10.6 19-16.3a2.6 2.6 0 0 0-.6-2 2.6 2.6 0 0 0-2-1m-16.4 14c-8 0-11.5-5.2-13-8.8h26c-1.5 3.5-5 8.9-13 8.9" data-name="Trazado 183"/></g></g></g></svg>