<svg width="1024" height="1024" viewBox="0 0 1024 1024" fill="none" xmlns="http://www.w3.org/2000/svg">
<path d="M512 306.9C398.5 306.9 306.9 398.5 306.9 512C306.9 625.5 398.5 717.1 512 717.1C625.5 717.1 717.1 625.5 717.1 512C717.1 398.5 625.5 306.9 512 306.9ZM512 645.3C438.6 645.3 378.7 585.4 378.7 512C378.7 438.6 438.6 378.7 512 378.7C585.4 378.7 645.3 438.6 645.3 512C645.3 585.4 585.4 645.3 512 645.3ZM725.5 250.7C699 250.7 677.6 272.1 677.6 298.6C677.6 325.1 699 346.5 725.5 346.5C752 346.5 773.4 325.2 773.4 298.6C773.408 292.307 772.174 286.075 769.77 280.26C767.366 274.445 763.838 269.161 759.388 264.712C754.939 260.262 749.655 256.734 743.84 254.33C738.025 251.926 731.793 250.692 725.5 250.7ZM911.8 512C911.8 456.8 912.3 402.1 909.2 347C906.1 283 891.5 226.2 844.7 179.4C797.8 132.5 741.1 118 677.1 114.9C621.9 111.8 567.2 112.3 512.1 112.3C456.9 112.3 402.2 111.8 347.1 114.9C283.1 118 226.3 132.6 179.5 179.4C132.6 226.3 118.1 283 115 347C111.9 402.2 112.4 456.9 112.4 512C112.4 567.1 111.9 621.9 115 677C118.1 741 132.7 797.8 179.5 844.6C226.4 891.5 283.1 906 347.1 909.1C402.3 912.2 457 911.7 512.1 911.7C567.3 911.7 622 912.2 677.1 909.1C741.1 906 797.9 891.4 844.7 844.6C891.6 797.7 906.1 741 909.2 677C912.4 621.9 911.8 567.2 911.8 512ZM823.8 747.8C816.5 766 807.7 779.6 793.6 793.6C779.5 807.7 766 816.5 747.8 823.8C695.2 844.7 570.3 840 512 840C453.7 840 328.7 844.7 276.1 823.9C257.9 816.6 244.3 807.8 230.3 793.7C216.2 779.6 207.4 766.1 200.1 747.9C179.3 695.2 184 570.3 184 512C184 453.7 179.3 328.7 200.1 276.1C207.4 257.9 216.2 244.3 230.3 230.3C244.4 216.3 257.9 207.4 276.1 200.1C328.7 179.3 453.7 184 512 184C570.3 184 695.3 179.3 747.9 200.1C766.1 207.4 779.7 216.2 793.7 230.3C807.8 244.4 816.6 257.9 823.9 276.1C844.7 328.7 840 453.7 840 512C840 570.3 844.7 695.2 823.8 747.8Z" fill="white"/>
</svg>
