<svg xmlns="http://www.w3.org/2000/svg" width="114" height="114"><defs><clipPath id="a"><path fill="none" d="M0 0h76.1v70H0z" data-name="Rectángulo 112"/></clipPath></defs><g data-name="Grupo 94"><g data-name="Componente 36 – 12"><circle cx="57" cy="57" r="57" fill="rgba(213,98,29,0.5)" data-name="Elipse 4"/></g><g data-name="Grupo 107"><g fill="#fff" clip-path="url(#a)" data-name="Grupo 106" transform="translate(19 22)"><path d="M38 70a2.5 2.5 0 0 1-1.7-.7L6.8 39.8A23.3 23.3 0 0 1 23.3 0a23.1 23.1 0 0 1 14.1 4.8l.6.4.6-.4a23.3 23.3 0 0 1 30.6 2 23.4 23.4 0 0 1 0 33.2L39.8 69.3a2.5 2.5 0 0 1-1.8.7M23.3 5a18.4 18.4 0 0 0-13 31.3L38 64l27.7-27.7a18.4 18.4 0 1 0-25.9-26 2.5 2.5 0 0 1-3.5 0 18.2 18.2 0 0 0-13-5.3" data-name="Trazado 188"/><path d="M38 46.6a2.5 2.5 0 0 1-2.5-2.5v-7.9h-7.9a2.5 2.5 0 0 1 0-5h8v-7.9a2.5 2.5 0 1 1 5 0v8h7.8a2.5 2.5 0 0 1 0 5h-7.9V44a2.5 2.5 0 0 1-2.5 2.5" data-name="Trazado 189"/></g></g></g></svg>