<svg xmlns="http://www.w3.org/2000/svg" width="114" height="114"><defs><clipPath id="a"><path fill="none" d="M0 0h84v84H0z" data-name="Rectángulo 53"/></clipPath></defs><g data-name="Grupo 63"><g data-name="Componente 38 – 1"><circle cx="57" cy="57" r="57" fill="rgba(213,98,29,0.5)" data-name="Elipse 6"/></g><g data-name="Grupo 27"><g fill="none" stroke="#fff" strokeLinecap="round" strokeLinejoin="round" strokeWidth="3" clip-path="url(#a)" data-name="Grupo 26" transform="translate(15 15)"><path d="M15.7 43.3a14.4 14.4 0 0 1-6.5-2.6C2.6 33 4.6 19.1 11.8 12 19.7 4 31.5 1.4 44.7 1.4c-7 6.8 1 19.1-8.4 31.5" data-name="Trazado 45"/><path d="M61.6 21h-7.2a2.6 2.6 0 0 0-2.5 1.8l-1.6 4.8a1.3 1.3 0 0 0 .9 1.7L57 31a3.5 3.5 0 0 1 2.4 2.5h0a2.6 2.6 0 0 1-2.5 3.3h-7.8a3.1 3.1 0 0 0-2.5 1.9L44.8 42a2.6 2.6 0 0 0 .1 2.4l3.8 6.1a4 4 0 0 0 3.3 2h1a1.3 1.3 0 0 1 1.1.7l6.2 13.3a2.6 2.6 0 0 0 4 1h0a6.6 6.6 0 0 0 2.6-5.2v-2l3.6-5.8c1.9-3 2.7-6 1.2-8.5l-2-3.6a1.3 1.3 0 0 1 1.1-1.8h4" data-name="Trazado 46"/><path d="M19.7 70.9c-18.4 0-18.4-17-18.4-22.3 4 5.2 22.2 4.6 18.4 22.3Z" data-name="Trazado 47"/><path d="M19.3 70.9A70.8 70.8 0 0 1 9.2 59.6" data-name="Trazado 48"/><path d="M29.8 51.2A30.2 30.2 0 0 1 19 71" data-name="Trazado 49"/><path d="M17 49.9c4.8-8.6 11.8-7.9 14.5-13.1 4 2.6 13.5 28.6-12.6 33.9" data-name="Trazado 50"/><path d="M38 81.4s0-6.6 7.9-6.6c2.6 0 4 2.6 4 2.6l2.6-1.3" data-name="Trazado 51"/><path d="M26.2 11.8A46 46 0 0 0 9.2 46" data-name="Trazado 52"/><path d="M19 70.9A36.7 36.7 0 1 0 49.7 9.4" data-name="Trazado 53"/></g></g></g></svg>