<svg xmlns="http://www.w3.org/2000/svg" xmlns:xlink="http://www.w3.org/1999/xlink" width="138.808" height="138.817" viewBox="0 0 138.808 138.817">
  <defs>
    <clipPath id="clip-path">
      <rect id="Rectángulo_67" data-name="Rectángulo 67" width="138.808" height="138.817" fill="#03773a"/>
    </clipPath>
  </defs>
  <g id="Grupo_36" data-name="Grupo 36" transform="translate(0 0)">
    <g id="Grupo_35" data-name="Grupo 35" transform="translate(0 0)" clip-path="url(#clip-path)">
      <path id="Trazado_153" data-name="Trazado 153" d="M115.644,69.43c20.585-1.619,23.129-24.979,23.129-25.21a2.3,2.3,0,0,0-2.082-2.544h-.231a23.317,23.317,0,0,0-20.816,11.8v-11.8c20.585-1.619,23.129-24.979,23.129-25.21a2.3,2.3,0,0,0-2.082-2.544h-.231a23.317,23.317,0,0,0-20.816,11.8c0-6.013-2.082-21.51-20.353-25.673a2.341,2.341,0,0,0-2.775,1.85v.231c0,.463-1.156,13.877,6.245,21.972a18.052,18.052,0,0,0,12.258,5.782v11.8a23.746,23.746,0,0,0-25.9-9.483,2.537,2.537,0,0,0-1.85,2.775c0,.231,4.857,18.04,26.136,18.04h1.619v53.2H94.6A9.266,9.266,0,0,0,83.5,99.5a9.783,9.783,0,0,0-6.707,6.707H71.7V78.682c20.585-1.388,23.129-22.666,23.129-22.9a2.3,2.3,0,0,0-2.082-2.544h-.231A23.27,23.27,0,0,0,71.7,64.111V50.927c0-.231-.231-23.129-23.129-23.129a2.185,2.185,0,0,0-2.313,2.313c0,.231.231,21.51,20.816,23.129v8.1a23.746,23.746,0,0,0-25.9-9.483c-.694.231-1.156.463-1.388,1.156-.463.231-.463.925-.463,1.388,0,.231,4.857,18.04,26.136,18.04h1.619v34H27.755V97.185c20.585-1.388,23.129-22.666,23.129-22.9A2.3,2.3,0,0,0,48.8,71.743h-.231A23.02,23.02,0,0,0,27.755,82.614C26.6,72.9,20.122,55.553,2.313,55.553A2.185,2.185,0,0,0,0,57.866V58.1C.925,67.117,6.707,84,23.129,85.389v21.047H0v32.38H138.773v-32.38H115.644Zm18.04-22.9c-1.156,5.32-5.088,16.653-17.578,18.272,1.156-5.551,5.088-16.884,17.578-18.272M88.815,36.356c12.49-1.388,18.734,7.4,21.279,12.258-13.877.231-19.428-8.1-21.279-12.258m44.87-17.578c-1.156,5.32-5.088,16.653-17.578,18.272,1.156-5.551,5.088-16.884,17.578-18.272M97.141,5.364A20.408,20.408,0,0,1,111.25,25.254a14.3,14.3,0,0,1-9.02-4.163c-4.163-4.626-5.088-11.8-5.088-15.728M89.74,58.1A20.415,20.415,0,0,1,72.393,74.056,19.649,19.649,0,0,1,89.74,58.1M44.87,55.784c12.49-1.388,18.734,7.4,21.279,12.258-13.877,0-19.428-8.1-21.279-12.258m6.245-23.129c12.258,1.156,15.034,11.1,15.728,15.959C54.584,47.227,51.809,37.281,51.115,32.656M45.8,76.6A20.415,20.415,0,0,1,28.448,92.559,19.649,19.649,0,0,1,45.8,76.6M5.088,60.41c12.721,1.619,16.653,14.8,17.809,20.585C10.177,79.144,6.245,66.192,5.088,60.41m80.488,43.713a4.626,4.626,0,1,1-4.626,4.626,4.639,4.639,0,0,1,4.626-4.626m48.571,30.067H4.626V111.062H76.556a9.266,9.266,0,0,0,11.1,6.707,9.783,9.783,0,0,0,6.707-6.707h39.782Z" transform="translate(0 0)" fill="#03773a"/>
      <path id="Trazado_154" data-name="Trazado 154" d="M10.939,50.019a6.939,6.939,0,1,0,0,13.877,6.939,6.939,0,1,0,0-13.877m0,9.252a2.313,2.313,0,1,1,0-4.626,2.313,2.313,0,1,1,0,4.626" transform="translate(5.252 65.669)" fill="#03773a"/>
      <rect id="Rectángulo_62" data-name="Rectángulo 62" width="4.626" height="4.626" transform="translate(27.755 124.94)" fill="#03773a"/>
      <rect id="Rectángulo_63" data-name="Rectángulo 63" width="9.252" height="4.626" transform="translate(37.006 120.314)" fill="#03773a"/>
      <rect id="Rectángulo_64" data-name="Rectángulo 64" width="4.626" height="9.252" transform="translate(120.27 120.314)" fill="#03773a"/>
      <path id="Trazado_155" data-name="Trazado 155" d="M32.626,52.019A4.626,4.626,0,1,1,28,56.645a4.624,4.624,0,0,1,4.626-4.626" transform="translate(36.761 68.295)" fill="#03773a"/>
      <rect id="Rectángulo_65" data-name="Rectángulo 65" width="4.626" height="4.626" transform="translate(92.515 120.314)" fill="#03773a"/>
      <rect id="Rectángulo_66" data-name="Rectángulo 66" width="9.252" height="4.626" transform="translate(97.141 124.94)" fill="#03773a"/>
    </g>
  </g>
</svg>
