<svg xmlns="http://www.w3.org/2000/svg" width="114" height="114"><defs><clipPath id="a"><path fill="none" d="M0 0h76v76H0z" data-name="Rectángulo 54"/></clipPath></defs><g data-name="Grupo 62"><g data-name="Componente 37 – 1"><circle cx="57" cy="57" r="57" fill="rgba(213,98,29,0.5)" data-name="Elipse 5"/></g><g data-name="Grupo 30"><path fill="none" stroke="#fff" strokeLinecap="round" strokeLinejoin="round" strokeWidth="3" d="M46 47v19" data-name="Línea 39"/><path fill="none" stroke="#fff" strokeLinecap="round" strokeLinejoin="round" strokeWidth="3" d="M68 47v19" data-name="Línea 40"/><g data-name="Grupo 29"><g fill="none" stroke="#fff" strokeLinecap="round" strokeLinejoin="round" strokeWidth="3" clip-path="url(#a)" data-name="Grupo 28" transform="translate(19 17)"><path d="M53 75h17V19" data-name="Trazado 54"/><path d="M6 46v29h16" data-name="Trazado 55"/><path d="m70 12 4 5V2H59l5 5-26 26-13-13L1 44" data-name="Trazado 56"/><path d="M44 56v-2a2 2 0 0 0-3-3h-7a2 2 0 0 0-2 3v2" data-name="Trazado 57"/><path d="M26 61a2 2 0 0 0 2 2h19a2 2 0 0 0 3-2v-4a1 1 0 0 0-2-1H27a1 1 0 0 0-1 1Z" data-name="Trazado 58"/><path d="M27 68v4a2 2 0 0 0 3 3h16a2 2 0 0 0 2-3v-4" data-name="Trazado 59"/><path d="M43 63v2" data-name="Línea 41"/><path d="M32 63v2" data-name="Línea 42"/></g></g></g></g></svg>