<svg xmlns="http://www.w3.org/2000/svg" xmlns:xlink="http://www.w3.org/1999/xlink" width="129.363" height="108.778" viewBox="0 0 129.363 108.778">
  <defs>
    <clipPath id="clip-path">
      <rect id="Rectángulo_125" data-name="Rectángulo 125" width="129.363" height="108.778" fill="#03773a"/>
    </clipPath>
  </defs>
  <g id="Grupo_138" data-name="Grupo 138" transform="translate(0 0)">
    <g id="Grupo_137" data-name="Grupo 137" transform="translate(0 0)" clip-path="url(#clip-path)">
      <path id="Trazado_245" data-name="Trazado 245" d="M2.945,52.919a2.93,2.93,0,0,0,1.51-.419L47.23,26.834,78.165,40.9a2.942,2.942,0,0,0,2.883-.256l41.065-28.282-1.457,7.3a2.942,2.942,0,0,0,2.306,3.461,2.991,2.991,0,0,0,.579.056,2.94,2.94,0,0,0,2.88-2.363L129.3,6.4A2.935,2.935,0,0,0,127,2.941l0,0L112.582.058a2.939,2.939,0,1,0-1.154,5.764l7.6,1.521L79.082,34.848,48.256,20.837a2.944,2.944,0,0,0-2.728.157L1.428,47.458a2.94,2.94,0,0,0,1.516,5.461" transform="translate(0 0)" fill="#03773a"/>
      <path id="Trazado_246" data-name="Trazado 246" d="M126.419,91.184V26.5a5.886,5.886,0,0,0-5.88-5.88h-14.7a5.886,5.886,0,0,0-5.88,5.88V91.184h-5.88v-44.1A5.886,5.886,0,0,0,88.2,41.2H73.5a5.886,5.886,0,0,0-5.88,5.88v44.1H61.74V38.265a5.886,5.886,0,0,0-5.88-5.88H41.16a5.886,5.886,0,0,0-5.88,5.88V91.184H29.4V55.9a5.888,5.888,0,0,0-5.88-5.88H8.821a5.888,5.888,0,0,0-5.88,5.88V91.184a2.94,2.94,0,0,0,0,5.88H126.419a2.94,2.94,0,1,0,0-5.88M105.839,26.5h14.7V91.184h-14.7ZM73.5,47.085H88.2v44.1H73.5ZM41.16,38.265h14.7V91.184H41.16ZM8.821,55.9h14.7V91.184H8.821Z" transform="translate(0.001 11.715)" fill="#03773a"/>
    </g>
  </g>
</svg>
