<svg xmlns="http://www.w3.org/2000/svg" xmlns:xlink="http://www.w3.org/1999/xlink" width="114" height="114" viewBox="0 0 114 114">
  <defs>
    <clipPath id="clip-path">
      <rect id="Rectángulo_104" data-name="Rectángulo 104" width="78.594" height="71.929" fill="none"/>
    </clipPath>
  </defs>
  <g id="Grupo_87" data-name="Grupo 87" transform="translate(-524 -5748)">
    <g id="Componente_36_4" data-name="Componente 36 – 4" transform="translate(524 5748)">
      <circle id="Elipse_4" data-name="Elipse 4" cx="57" cy="57" r="57" fill="rgba(213,98,29,0.5)"/>
    </g>
    <g id="Grupo_77" data-name="Grupo 77" transform="translate(541.703 5772.28)">
      <g id="Grupo_76" data-name="Grupo 76" clip-path="url(#clip-path)">
        <path id="Trazado_165" data-name="Trazado 165" d="M33.651,2.122a5.126,5.126,0,0,0-4.528,2.734l-.684,1.282A15.892,15.892,0,1,0,15.2,31.77l-8.2,16.063a1.709,1.709,0,0,0,1.538,2.478H16.99c.513,6.75,3.589,11.962,7.69,13.158v6.75a1.709,1.709,0,1,0,3.418,0V63.47c4.016-1.2,7.092-6.408,7.69-13.158h23.07a1.709,1.709,0,0,0,1.538-2.478l-2.307-4.358h3.93c.854,4.785,3.332,8.373,6.408,9.4v5.639a1.709,1.709,0,1,0,3.418,0V52.875c3.93-1.282,6.75-6.75,6.75-13.5S74.92,25.618,70.135,25.618c-2.222,0-4.272,1.367-5.725,3.589L56.293,12.46a5.041,5.041,0,0,0-4.614-2.905h-.085a5.041,5.041,0,0,0-4.614,2.991L44.673,17.5,38.265,4.856a5.127,5.127,0,0,0-4.614-2.734M15.879,28.353a12.475,12.475,0,1,1,10.766-18.8l-9.655,18.8ZM28.012,59.8V52.02a1.709,1.709,0,1,0-3.418,0V59.8c-2.307-1.453-4.358-5.81-4.358-11.535,0-7.177,3.161-12.133,6.066-12.133s6.066,4.956,6.066,12.133c0,5.639-2.051,10-4.358,11.535M70.135,29.036c2.392,0,5.041,4.272,5.041,10.339,0,4.614-1.538,8.2-3.332,9.655V42.707a1.709,1.709,0,1,0-3.418,0V49.03c-1.794-1.453-3.332-5.041-3.332-9.655,0-6.152,2.649-10.339,5.041-10.339M50.141,14a1.7,1.7,0,0,1,3.076-.085l9.313,19.31a21.438,21.438,0,0,0-.854,6.152v.684h-5.3L46.724,21.432Zm5.9,32.981H35.7c-.342-8.117-4.358-14.269-9.4-14.269s-9.057,6.152-9.4,14.269H11.265L32.2,6.479a1.709,1.709,0,0,1,3.076,0Z" transform="translate(0 0)" fill="#fff"/>
        <path id="Trazado_166" data-name="Trazado 166" d="M65.818,68.883H46.593a1.709,1.709,0,1,0,0,3.418H65.818a1.709,1.709,0,0,0,0-3.418" transform="translate(-6.534 -10.027)" fill="#fff"/>
        <path id="Trazado_167" data-name="Trazado 167" d="M64.884,81.592A1.708,1.708,0,0,0,66.593,83.3H81.545a1.709,1.709,0,0,0,0-3.418H66.593a1.708,1.708,0,0,0-1.709,1.709" transform="translate(-9.445 -11.628)" fill="#fff"/>
      </g>
    </g>
  </g>
</svg>
