<svg xmlns="http://www.w3.org/2000/svg" xmlns:xlink="http://www.w3.org/1999/xlink" width="114" height="114" viewBox="0 0 114 114">
  <defs>
    <clipPath id="clip-path">
      <rect id="Rectángulo_105" data-name="Rectángulo 105" width="70.781" height="81.677" fill="none"/>
    </clipPath>
  </defs>
  <g id="Grupo_86" data-name="Grupo 86" transform="translate(-985 -5748)">
    <g id="Componente_36_5" data-name="Componente 36 – 5" transform="translate(985 5748)">
      <circle id="Elipse_4" data-name="Elipse 4" cx="57" cy="57" r="57" fill="rgba(213,98,29,0.5)"/>
    </g>
    <g id="Grupo_79" data-name="Grupo 79" transform="translate(1001 5759.454)">
      <g id="Grupo_78" data-name="Grupo 78" clip-path="url(#clip-path)">
        <path id="Trazado_168" data-name="Trazado 168" d="M32.17,41.227a1.889,1.889,0,0,0-2.313,1.335l-2.75,10.265a27.127,27.127,0,0,0-.966,7.212,14.032,14.032,0,0,0-13.005,5.8,11.369,11.369,0,0,0-2.082-.106A11.523,11.523,0,0,0,.008,77.689a1.889,1.889,0,0,0,3.774-.148,7.742,7.742,0,0,1,7.42-8.03,7.838,7.838,0,0,1,2.328.262,1.893,1.893,0,0,0,2.124-.875A10.344,10.344,0,0,1,34.8,72.31a1.889,1.889,0,0,0,2.745,1.347,5.316,5.316,0,0,1,2.312-.627,5.432,5.432,0,0,1,5.369,3.757,1.889,1.889,0,0,0,2.84,1c.093-.061.209-.122.316-.183q.384-.178.778-.38c3.178-1.321,9.606-1.81,13.364,3.634a1.888,1.888,0,0,0,3.108-2.145,13.794,13.794,0,0,0-10.383-6.056,24.778,24.778,0,0,0,5.764-10.744L63.768,51.65a1.888,1.888,0,0,0-1.336-2.312l-9.659-2.587,8.592-32.066,2.281.611A5.665,5.665,0,1,0,66.578,4.351L51.072.193a5.666,5.666,0,0,0-2.932,10.946l2.28.611L41.828,43.815ZM59.63,52.495l-2.261,8.441c-1.577,5.884-4.771,10.129-9.477,12.676a9.194,9.194,0,0,0-8.177-4.357,9.012,9.012,0,0,0-1.747.236,14.183,14.183,0,0,0-8-8.47,22.74,22.74,0,0,1,.784-7.216l2.261-8.441,7.93,2.125c-.025.118-.05.238-.077.365-.141.665-.306,1.439-.483,2.27l-.042.193-.025.16c-.02.121-.051.308-.062.427-.03.26-.047.51-.059.757-.024.5-.024.983-.009,1.467a17.972,17.972,0,0,0,.871,5.3,4.589,4.589,0,0,0,1.11,1.825,2.24,2.24,0,0,0,.978.529.944.944,0,1,0,.489-1.824c-.007-.016.012.006-.075-.109a2.984,2.984,0,0,1-.384-1.058,15.728,15.728,0,0,1-.069-4.561c.048-.419.109-.836.185-1.225.038-.195.079-.382.126-.552l.153-.481c.263-.807.508-1.561.718-2.207l.7-2.154c.02-.061.038-.127.052-.192v0l2.2-8.227,3.649.978-2.257,8.42a1.889,1.889,0,0,0,1.335,2.313ZM53.222,8.59l-4.1-1.1A1.889,1.889,0,0,1,50.1,3.84L65.6,8a1.889,1.889,0,1,1-.978,3.649l-4.1-1.1A1.889,1.889,0,0,0,58.2,11.88L51.868,35.526l-3.649-.978L54.556,10.9A1.885,1.885,0,0,0,53.222,8.59" transform="translate(0 0)" fill="#fff"/>
      </g>
    </g>
  </g>
</svg>
