<svg xmlns="http://www.w3.org/2000/svg" width="114" height="114"><defs><clipPath id="a"><path fill="none" d="M0 0h84v84H0z" data-name="Rectángulo 52"/></clipPath></defs><g data-name="Grupo 64"><g data-name="Componente 39 – 1"><circle cx="57" cy="57" r="57" fill="rgba(232,115,44,0.5)" data-name="Elipse 7"/></g><g data-name="Grupo 25"><g fill="none" stroke="#fff" stroke-linecap="round" stroke-linejoin="round" stroke-width="3" clip-path="url(#a)" data-name="Grupo 24" transform="translate(17 15)"><path d="M31 64v13" data-name="Línea 36"/><path d="M30 47a5 5 0 0 1-4-5v-4a5 5 0 0 1 9 0v4a5 5 0 0 1-5 5Z" data-name="Trazado 32"/><path d="M30 47h2l11-4a2 2 0 0 1 2 4l-8 7v23" data-name="Trazado 33"/><path d="M30 47h-1l-11-4a2 2 0 0 0-2 4l8 7v23" data-name="Trazado 34"/><path d="M17 21a5 5 0 0 1-5-6v-4a5 5 0 0 1 5-4 5 5 0 0 1 5 4v4a5 5 0 0 1-5 6Z" data-name="Trazado 35"/><path d="M17 21a5 5 0 0 1-5-6v-4a5 5 0 0 1 5-4 5 5 0 0 1 5 4v4a5 5 0 0 1-5 6Z" data-name="Trazado 36"/><path d="M19 21h-3l-7 2c-1 1-2 2-2 5v20a3 3 0 0 0 3 3h1v26" data-name="Trazado 37"/><path d="M62 21a5 5 0 0 0 5-6v-4a5 5 0 0 0-10 0v4a5 5 0 0 0 5 6Z" data-name="Trazado 38"/><path d="M75 48v29" data-name="Línea 37"/><path d="M44 21a5 5 0 0 0 5-6v-4a5 5 0 0 0-11 0v4a5 5 0 0 0 6 6Z" data-name="Trazado 39"/><path d="M44 21a5 5 0 0 0 5-6v-4a5 5 0 0 0-11 0v4a5 5 0 0 0 6 6Z" data-name="Trazado 40"/><path d="M42 21h3l7 2c1 1 2 2 2 5v20a3 3 0 0 1-3 3h-1l4 13h-9v13" data-name="Trazado 41"/><path d="M67 77V29" data-name="Línea 38"/><path d="m62 21 6 1a7 7 0 0 1 5 4l4 14a3 3 0 0 1-5 2l-5-13" data-name="Trazado 42"/><path d="M28 30v-2c0-3-1-4-3-5l-6-2" data-name="Trazado 43"/><path d="M33 30v-2c0-3 1-4 3-5l6-2" data-name="Trazado 44"/></g></g></g></svg>