<svg xmlns="http://www.w3.org/2000/svg" width="114" height="114"><defs><clipPath id="a"><path fill="none" d="M0 0h70.3v71.2H0z" data-name="Rectángulo 114"/></clipPath></defs><g data-name="Grupo 88"><g data-name="Componente 36 – 7"><circle cx="57" cy="57" r="57" fill="rgba(213,98,29,0.5)" data-name="Elipse 4"/></g><g data-name="Grupo 111"><g fill="#fff" clip-path="url(#a)" data-name="Grupo 110" transform="translate(19.6 16.8)"><path d="M68.8 43.8a9.2 9.2 0 0 0-11.4-.4l-6 4.3-1 .4a9.7 9.7 0 0 0-9.2-2.6l-3.7.9a60.2 60.2 0 0 1-6.8-1.2c-8.8-4-16.3-3.1-24.8 2.9l-4.7 1.7a1.8 1.8 0 0 0 1.2 3.4l5-1.8a1.8 1.8 0 0 0 .4-.3c7.7-5.4 13.7-6.1 21.6-2.5a1.8 1.8 0 0 0 .4.1c7.1 1.5 8.1 1.3 8.5 1.2L42 49a6 6 0 0 1 6.7 2.8.4.4 0 0 1 0 .4.3.3 0 0 1-.2.2l-14 3.4-10.2-1.5a1.8 1.8 0 1 0-.6 3.6l10.6 1.6a1.8 1.8 0 0 0 .7 0l14.3-3.6a4 4 0 0 0 2.7-2.3 4 4 0 0 0 .3-2.3l.6-.3a1.8 1.8 0 0 0 .4-.2l6.1-4.5a5.6 5.6 0 0 1 7 .2.6.6 0 0 1 .2.5.6.6 0 0 1-.1.5l-10 9.6-21.2 8L14 63.5a1.8 1.8 0 0 0-.7.1l-12 4a1.8 1.8 0 1 0 1 3.4l11.8-3.8 21.5 1.3a1.9 1.9 0 0 0 .7 0l22-8.3a1.8 1.8 0 0 0 .6-.4L69.1 50a4.2 4.2 0 0 0-.3-6.2" data-name="Trazado 198"/><path d="M39.6 42.6a21.3 21.3 0 1 0-21.2-21.3 21.3 21.3 0 0 0 21.2 21.3m0-39A17.7 17.7 0 1 1 22 21.3 17.7 17.7 0 0 1 39.6 3.6" data-name="Trazado 199"/><path d="m37.4 22.7 3.8.7a2.2 2.2 0 0 1 1.5.9 1.3 1.3 0 0 1 .1 1 2.2 2.2 0 0 1-2.6 1.4l-4.6-1a1.8 1.8 0 1 0-.7 3.6l3 .6v2.3a1.8 1.8 0 0 0 3.6 0v-2a5.6 5.6 0 0 0 4.8-4 4.9 4.9 0 0 0-.6-3.9 5.8 5.8 0 0 0-3.8-2.4l-3.8-.7a2.1 2.1 0 0 1-1.5-1 1.3 1.3 0 0 1-.2-1A2.2 2.2 0 0 1 39 16l4.7.9a1.8 1.8 0 0 0 .6-3.6l-2.8-.5v-2.4a1.8 1.8 0 1 0-3.7 0v2a5.6 5.6 0 0 0-4.9 4 4.9 4.9 0 0 0 .7 4 5.8 5.8 0 0 0 3.8 2.4" data-name="Trazado 200"/></g></g></g></svg>