<svg xmlns="http://www.w3.org/2000/svg" width="138.8" height="138.8"><defs><clipPath id="a"><path fill="#009145" d="M0 0h139v139H0z" data-name="Rectángulo 67"/></clipPath></defs><g data-name="Grupo 36"><g fill="#009145" clip-path="url(#a)" data-name="Grupo 35"><path d="M116 69c20-1 23-25 23-25a2 2 0 0 0-2-2h-1a23 23 0 0 0-20 11V42c20-2 23-25 23-26a2 2 0 0 0-2-2h-1a23 23 0 0 0-20 12c0-6-2-22-21-26a2 2 0 0 0-2 2c0 1-2 14 6 22a18 18 0 0 0 12 6v12a24 24 0 0 0-26-10 3 3 0 0 0-2 3s5 18 26 18h2v53H95a9 9 0 0 0-11-6 10 10 0 0 0-7 6h-5V79c20-2 23-23 23-23a2 2 0 0 0-2-3 23 23 0 0 0-21 11V51s-1-23-23-23a2 2 0 0 0-3 2s0 22 21 23v8a24 24 0 0 0-26-9l-1 1-1 1c0 1 5 18 26 18h2v34H28v-9c20-1 23-22 23-23a2 2 0 0 0-2-2 23 23 0 0 0-21 11c-1-10-8-27-26-27a2 2 0 0 0-2 2c1 9 7 26 23 27v21H0v33h139v-33h-23Zm18-22c-1 5-5 16-18 18 1-6 5-17 18-18M89 36c12-1 19 8 21 13-14 0-19-8-21-13m45-17c-1 5-5 16-18 18 1-6 5-17 18-18M97 5a20 20 0 0 1 14 20 14 14 0 0 1-9-4c-4-5-5-12-5-16m-7 53a20 20 0 0 1-18 16 20 20 0 0 1 18-16m-45-2c12-2 19 7 21 12-14 0-19-8-21-12m6-23c12 1 15 11 16 16-12-2-15-12-16-16m-5 44a20 20 0 0 1-18 16 20 20 0 0 1 18-16M5 60c13 2 17 15 18 21C10 79 6 66 5 60m81 44a5 5 0 1 1-5 5 5 5 0 0 1 5-5m48 30H5v-23h72a9 9 0 0 0 11 7 10 10 0 0 0 6-7h40Z" data-name="Trazado 153"/><path d="M16 116a7 7 0 1 0 0 14 7 7 0 1 0 0-14m0 9a2 2 0 1 1 0-5 2 2 0 1 1 0 5" data-name="Trazado 154"/><path d="M28 125h5v5h-5z" data-name="Rectángulo 62"/><path d="M37 120h9v5h-9z" data-name="Rectángulo 63"/><path d="M120 120h5v9h-5z" data-name="Rectángulo 64"/><path d="M69 120a5 5 0 1 1-4 5 5 5 0 0 1 4-5" data-name="Trazado 155"/><path d="M93 120h5v5h-5z" data-name="Rectángulo 65"/><path d="M97 125h9v5h-9z" data-name="Rectángulo 66"/></g></g></svg>