<svg xmlns="http://www.w3.org/2000/svg" width="114" height="114"><defs><clipPath id="a"><path fill="none" stroke="#fff" stroke-width=".3" d="M0 0h69.3v72.4H0z" data-name="Rectángulo 110"/></clipPath></defs><g data-name="Grupo 88"><g data-name="Componente 36 – 10"><circle cx="57" cy="57" r="57" fill="rgba(213,98,29,0.5)" data-name="Elipse 4"/></g><g data-name="Grupo 103"><g fill="#fff" clip-path="url(#a)" data-name="Grupo 102" transform="translate(22.4 20.8)"><g data-name="Trazado 184"><path d="M55.7 72.6h-5.3c-1 0-2-.4-2.6-1-.7-.7-1-1.7-1-2.6v-5.2H22.5V69c0 1-.4 1.9-1 2.5-.7.7-1.7 1-2.6 1h-5.3c-1 0-2-.3-2.6-1-.7-.6-1-1.6-1-2.5v-5.4c-.6-.1-1.2-.5-1.6-1-.5-.5-.7-1.1-.7-1.8V33.5H4.1a4.2 4.2 0 0 1-4.2-4.2V18.9a4.4 4.4 0 0 1 4.3-4.4h3.5V6.3c0-.7.5-1.3 1-1.5a70.2 70.2 0 0 1 51.9 0c.4.2 1 .8 1 1.5v8.2h3.6a4.2 4.2 0 0 1 4.2 4.5v10.4a4.2 4.2 0 0 1-4.2 4.2h-3.6v27.2a3 3 0 0 1-.7 2c-.4.4-1 .8-1.6.9V69c0 1-.4 1.9-1 2.5-.7.7-1.6 1-2.6 1ZM50 63.8V69c0 .2 0 .3.3.3h5.3c.2 0 .3-.1.3-.3v-5.2h-6Zm-36.8 0V69c0 .2 0 .3.3.3h5.3c.2 0 .3-.1.3-.3v-5.2h-6ZM11 60.5h47.2V42.1H11v18.4Zm0-21.7h47.2V15.4H11v23.4Zm-6.6-8.3h3.4V18H4.2c-.5 0-.9.4-.9 1v10.3c0 .5.4 1 1 1Zm57.3-.3h3.6c.6 0 1-.4 1-1V18.8c0-.5-.4-.9-1-.9h-3.6v12.4ZM11 12h47.4V7.5a66.4 66.4 0 0 0-47.4 0v4.6Z"/><path d="M34.7 0C25.9 0 17 1.7 8.7 5c-.4.1-.9.7-.9 1.3v8.3H4.2c-2.4 0-4.2 2-4.2 4.3v10.4a4 4 0 0 0 4 4h3.8v27.5c0 1.4 1.1 2.4 2.3 2.7V69c0 2 1.5 3.4 3.5 3.4h5.3c2 0 3.4-1.5 3.4-3.4v-5.3H47V69c0 2 1.5 3.4 3.5 3.4h5.3c2 0 3.4-1.5 3.4-3.4v-5.5c1.4-.1 2.3-1.3 2.3-2.7V33.5h3.8a4 4 0 0 0 4-4V19a4 4 0 0 0-4-4.4h-3.8V6.3c0-.6-.4-1.2-.9-1.3-8.3-3.3-17-5-25.8-5m23.8 12.2H11V7.4a66.6 66.6 0 0 1 47.6 0v4.8M58.4 39H10.9V15.2h47.5V39m7-8.6h-3.8V17.7h3.7c.6 0 1 .4 1 1v10.6c0 .6-.4 1-1 1M8 30.6H4.2v-.1a1 1 0 0 1-1-1V19c0-.6.4-1 1-1H8v12.6m50.4 30h.1H11V42h47.5v18.8m-39.5 8.7h-5.3c-.3 0-.5-.1-.5-.4v-5.3h6.2V69c0 .3-.1.4-.4.4m36.8 0h-5.3c-.3 0-.5-.1-.5-.4v-5.3h6.2V69c0 .3-.1.4-.4.4M34.7-.3c8.9 0 17.6 1.7 26 5 .5.2 1 1 1 1.6v8h3.5a4.3 4.3 0 0 1 4.4 4.7v10.4a4.3 4.3 0 0 1-4.4 4.4h-3.5v27c0 .7-.2 1.5-.7 2-.4.5-1 .8-1.6 1V69c0 1-.3 2-1 2.6-.7.7-1.7 1.1-2.7 1.1h-5.3c-1 0-2-.4-2.7-1-.7-.8-1-1.7-1-2.7v-5h-24v5c0 1-.5 2-1.2 2.6-.7.7-1.6 1.1-2.6 1.1h-5.3c-1 0-2-.4-2.7-1-.7-.8-1-1.7-1-2.7v-5.3c-.7-.1-1.2-.5-1.6-1a3 3 0 0 1-.8-1.9V33.6H4.1a4.3 4.3 0 0 1-4.4-4.3V18.9a4.5 4.5 0 0 1 4.5-4.6h3.3v-8c0-.7.5-1.4 1.1-1.6 8.4-3.3 17.2-5 26-5Zm23.5 7.9a66.2 66.2 0 0 0-47 0v4.3h47V7.6Zm-.1 8H11v23h47v-23ZM65.3 30c.5 0 .8-.3.8-.7V18.7c0-.4-.3-.7-.8-.7H62v12h3.4ZM7.7 18.3H4.2c-.4 0-.7.3-.7.7v10.4c0 .5.3.8.7.8h.3v.1h3.2v-12Zm50.4 24H11v18h47v-18ZM19 64h-5.7v5l.2.1h5.3l.1-.1v-5Zm36.7 0h-5.6v5l.2.1h5.3l.1-.1v-5Z"/></g><path stroke="#fff" stroke-width=".3" d="M49.8 56.9a6.2 6.2 0 0 0 6.2-6.2 6.1 6.1 0 1 0-12.2 0 6.2 6.2 0 0 0 6 6.2m0-9.2a3.2 3.2 0 0 1 0 6.3 3.1 3.1 0 0 1-3-3.3 3 3 0 0 1 3-3" data-name="Trazado 185"/><path stroke="#fff" stroke-width=".3" d="M19.6 56.9a6.2 6.2 0 0 0 6.2-6.2 6.2 6.2 0 1 0-6.2 6.2m0-9.2a3.2 3.2 0 1 1 0 6.3 3.2 3.2 0 1 1 0-6.3" data-name="Trazado 186"/></g></g></g></svg>