<svg xmlns="http://www.w3.org/2000/svg" width="114" height="123"><defs><clipPath id="a"><path fill="none" d="M0 0h102v96.9H0z" data-name="Rectángulo 108"/></clipPath></defs><g data-name="Grupo 94"><g data-name="Componente 36 – 8"><circle cx="57" cy="57" r="57" fill="rgba(213,98,29,0.5)" data-name="Elipse 4"/></g><g data-name="Grupo 99"><g fill="#fff" clip-path="url(#a)" data-name="Grupo 98" transform="translate(4.1 26)"><path d="M84.3 9.7h-15V7a4.5 4.5 0 0 0-4.5-4.6H44.3A4.5 4.5 0 0 0 39.8 7v2.7H24.6A4.5 4.5 0 0 0 20 14v34.4a4.5 4.5 0 0 0 4.5 4.5h59.7a4.5 4.5 0 0 0 4.4-4.5V14.1a4.5 4.5 0 0 0-4.4-4.4M44 7a.3.3 0 0 1 .3-.4h20.5a.3.3 0 0 1 .3.4v2.7H44Zm-19.4 6.9h59.7a.2.2 0 0 1 .2.2v7.3c0 .6-1.5 2.6-8 4.5a84.1 84.1 0 0 1-22 2.6 84.1 84.1 0 0 1-22.2-2.6c-6.5-1.9-7.9-3.9-7.9-4.5V14a.2.2 0 0 1 .2-.2m59.7 34.9H24.6a.2.2 0 0 1-.2-.3V27.2a29 29 0 0 0 6.8 2.7 88.4 88.4 0 0 0 23.3 2.8 88.4 88.4 0 0 0 23.2-2.8 29 29 0 0 0 6.8-2.7v21.3a.2.2 0 0 1-.2.3" data-name="Trazado 178"/><path d="M54.4 27.2a5.3 5.3 0 1 0-5.2-5.2 5.3 5.3 0 0 0 5.2 5.2m0-6.3a1 1 0 1 1-1 1 1 1 0 0 1 1-1" data-name="Trazado 179"/></g></g></g></svg>