<svg xmlns="http://www.w3.org/2000/svg" width="63" height="63"><defs><clipPath id="a"><path fill="none" d="M0 0h63v63H0z" data-name="Rectángulo 83"/></clipPath></defs><g data-name="Grupo 38"><g fill="#e8732c" clip-path="url(#a)" data-name="Grupo 37"><path d="M61 41a2 2 0 0 0-2 2v14a2 2 0 0 1-2 2H7a2 2 0 0 1-2-2V43a2 2 0 0 0-5 0v14a7 7 0 0 0 7 6h50a7 7 0 0 0 6-6V43a2 2 0 0 0-2-2" data-name="Trazado 156"/><path d="M32 0a2 2 0 0 0-3 2v40l-7-7a2 2 0 0 0-3 3l11 11a2 2 0 0 0 3 0l12-11a2 2 0 0 0-4-3l-7 7V2a2 2 0 0 0-2-2" data-name="Trazado 157"/></g></g></svg>