<svg xmlns="http://www.w3.org/2000/svg" width="114" height="114"><defs><clipPath id="a"><path fill="none" d="M0 0h78.6v71.9H0z" data-name="Rectángulo 104"/></clipPath></defs><g data-name="Grupo 87"><g data-name="Componente 36 – 4"><circle cx="57" cy="57" r="57" fill="rgba(213,98,29,0.5)" data-name="Elipse 4"/></g><g data-name="Grupo 77"><g fill="#fff" clip-path="url(#a)" data-name="Grupo 76" transform="translate(17.7 24.3)"><path d="M33.7 2.1A5.1 5.1 0 0 0 29 5L28.4 6a15.9 15.9 0 1 0-13.2 25.7L7 47.8a1.7 1.7 0 0 0 1.5 2.5H17c.5 6.8 3.6 12 7.7 13.2v6.7a1.7 1.7 0 1 0 3.4 0v-6.7c4-1.2 7-6.4 7.7-13.2h23a1.7 1.7 0 0 0 1.6-2.5l-2.3-4.3h4c.8 4.8 3.3 8.3 6.3 9.4v5.6a1.7 1.7 0 1 0 3.4 0V53c4-1.3 6.8-6.8 6.8-13.5S74.9 25.6 70 25.6c-2.2 0-4.2 1.4-5.7 3.6l-8.1-16.7a5 5 0 0 0-4.6-3h-.1a5 5 0 0 0-4.6 3l-2.3 5-6.4-12.6A5.1 5.1 0 0 0 33.7 2M15.9 28.4A12.5 12.5 0 1 1 26.6 9.6L17 28.4ZM28 59.8V52a1.7 1.7 0 1 0-3.4 0v7.8c-2.3-1.5-4.4-5.8-4.4-11.5 0-7.2 3.2-12.2 6.1-12.2s6 5 6 12.2c0 5.6-2 10-4.3 11.5M70.1 29c2.4 0 5 4.3 5 10.4 0 4.6-1.5 8.2-3.3 9.6v-6.3a1.7 1.7 0 1 0-3.4 0V49c-1.8-1.4-3.3-5-3.3-9.6 0-6.2 2.6-10.4 5-10.4m-20-15a1.7 1.7 0 0 1 3.1 0l9.3 19.2a21.4 21.4 0 0 0-.8 6.2v.7h-5.3l-9.7-18.7Zm6 33H35.6c-.3-8.1-4.4-14.3-9.4-14.3s-9 6.2-9.4 14.3h-5.6L32.2 6.5a1.7 1.7 0 0 1 3 0Z" data-name="Trazado 165"/><path d="M59.3 58.9H40a1.7 1.7 0 1 0 0 3.4h19.2a1.7 1.7 0 0 0 0-3.4" data-name="Trazado 166"/><path d="M55.4 70a1.7 1.7 0 0 0 1.7 1.7h15a1.7 1.7 0 0 0 0-3.4h-15a1.7 1.7 0 0 0-1.7 1.7" data-name="Trazado 167"/></g></g></g></svg>