<svg xmlns="http://www.w3.org/2000/svg" xmlns:xlink="http://www.w3.org/1999/xlink" width="114" height="114" viewBox="0 0 114 114">
  <defs>
    <clipPath id="clip-path">
      <rect id="Rectángulo_53" data-name="Rectángulo 53" width="84" height="84" transform="translate(0 0)" fill="none"/>
    </clipPath>
  </defs>
  <g id="Grupo_63" data-name="Grupo 63" transform="translate(-1055 -799)">
    <g id="Componente_38_1" data-name="Componente 38 – 1" transform="translate(1055 799)">
      <circle id="Elipse_6" data-name="Elipse 6" cx="57" cy="57" r="57" fill="rgba(213,98,29,0.5)"/>
    </g>
    <g id="Grupo_27" data-name="Grupo 27" transform="translate(1070 814.067)">
      <g id="Grupo_26" data-name="Grupo 26" transform="translate(0 -0.067)" clip-path="url(#clip-path)">
        <path id="Trazado_45" data-name="Trazado 45" d="M26.3,45.969a14.391,14.391,0,0,1-6.558-2.623c-6.62-7.869-4.62-21.61,2.623-28.854C30.231,6.623,42.034,4,55.212,4c-6.981,6.871,1.012,19.136-8.357,31.565" transform="translate(-10.558 -2.626)" fill="none" stroke="#fff" stroke-linecap="round" stroke-linejoin="round" stroke-width="3"/>
        <path id="Trazado_46" data-name="Trazado 46" d="M153.049,64h-7.29a2.623,2.623,0,0,0-2.488,1.794l-1.592,4.776a1.312,1.312,0,0,0,.884,1.676l5.9,1.685a3.541,3.541,0,0,1,2.463,2.546v0a2.623,2.623,0,0,1-2.545,3.259H140.6a3.106,3.106,0,0,0-2.522,1.9l-1.851,3.44a2.623,2.623,0,0,0,.117,2.371l3.75,6.141a3.935,3.935,0,0,0,3.358,1.884h.888a1.311,1.311,0,0,1,1.191.762l6.158,13.342a2.623,2.623,0,0,0,3.956,1l.027-.02a6.558,6.558,0,0,0,2.623-5.246v-1.967l3.65-5.84c1.821-2.914,2.7-5.938,1.176-8.489l-2.1-3.516a1.312,1.312,0,0,1,1.206-1.828h3.935" transform="translate(-91.408 -42.953)" fill="none" stroke="#fff" stroke-linecap="round" stroke-linejoin="round" stroke-width="3"/>
        <path id="Trazado_47" data-name="Trazado 47" d="M22.361,170.422C4,170.422,4,153.372,4,148.188,7.934,153.372,26.208,152.722,22.361,170.422Z" transform="translate(-2.688 -99.538)" fill="none" stroke="#fff" stroke-linecap="round" stroke-linejoin="round" stroke-width="3"/>
        <path id="Trazado_48" data-name="Trazado 48" d="M38.176,192.819A70.776,70.776,0,0,1,28.037,181.51" transform="translate(-18.844 -121.934)" fill="none" stroke="#fff" stroke-linecap="round" stroke-linejoin="round" stroke-width="3"/>
        <path id="Trazado_49" data-name="Trazado 49" d="M68.625,156A30.247,30.247,0,0,1,57.7,175.659" transform="translate(-38.779 -104.787)" fill="none" stroke="#fff" stroke-linecap="round" stroke-linejoin="round" stroke-width="3"/>
        <path id="Trazado_50" data-name="Trazado 50" d="M52,125.117c4.8-8.553,11.8-7.871,14.427-13.117,3.935,2.623,13.525,28.569-12.538,33.892" transform="translate(-34.95 -75.215)" fill="none" stroke="#fff" stroke-linecap="round" stroke-linejoin="round" stroke-width="3"/>
        <path id="Trazado_51" data-name="Trazado 51" d="M116,234.558S116,228,123.868,228c2.623,0,3.935,2.623,3.935,2.623l2.623-1.312" transform="translate(-77.965 -153.181)" fill="none" stroke="#fff" stroke-linecap="round" stroke-linejoin="round" stroke-width="3"/>
        <path id="Trazado_52" data-name="Trazado 52" d="M45.049,35.928C34.792,44.724,28,57.063,28,70.051" transform="translate(-18.819 -24.085)" fill="none" stroke="#fff" stroke-linecap="round" stroke-linejoin="round" stroke-width="3"/>
        <path id="Trazado_53" data-name="Trazado 53" d="M57.695,90.04A36.724,36.724,0,1,0,88.539,28.611" transform="translate(-38.778 -19.168)" fill="none" stroke="#fff" stroke-linecap="round" stroke-linejoin="round" stroke-width="3"/>
      </g>
    </g>
  </g>
</svg>
