<svg xmlns="http://www.w3.org/2000/svg" width="1024" height="1024" fill="none"><path fill="#fff" d="M512 307a205 205 0 1 0-1 410 205 205 0 0 0 1-410Zm0 338a134 134 0 0 1 0-266 134 134 0 0 1 0 266Zm214-394a48 48 0 1 0-1 95 48 48 0 0 0 1-95Zm186 261c0-55 0-110-3-165-3-64-17-121-64-168-47-46-104-61-168-64-55-3-110-3-165-3s-110 0-165 3c-64 3-121 18-167 64-47 47-62 104-65 168-3 55-3 110-3 165s0 110 3 165c3 64 18 121 65 168 46 47 103 61 167 64 55 3 110 3 165 3s110 0 165-3c64-3 121-18 168-64 47-47 61-104 64-168 3-55 3-110 3-165Zm-88 236c-7 18-16 32-30 46s-28 23-46 30c-53 21-178 16-236 16s-183 5-236-16c-18-7-32-16-46-30s-23-28-30-46c-21-53-16-178-16-236s-5-183 16-236c7-18 16-32 30-46s28-23 46-30c53-21 178-16 236-16s183-5 236 16c18 7 32 16 46 30s23 28 30 46c21 53 16 178 16 236s5 183-16 236Z"/></svg>