<svg xmlns="http://www.w3.org/2000/svg" width="86" height="95"><defs><clipPath id="a"><path fill="none" d="M0 0h86v95H0z" data-name="Rectángulo 19"/></clipPath></defs><g data-name="Grupo 19"><g fill="none" stroke="#000" strokeLinecap="round" strokeLinejoin="round" strokeWidth="3" clip-path="url(#a)" data-name="Grupo 18"><path d="M30 79h15a8 8 0 0 0 3-1l13-6a2 2 0 0 0 0-3 8 8 0 0 0-10-3l-7 3c-2 0-21-15-35-2a9 9 0 0 1-2 2l-5 3" data-name="Trazado 17"/><path d="m61 70 12-9a7 7 0 0 1 11 3 2 2 0 0 1-1 2L68 77 56 87a26 26 0 0 1-21 5l-18-4a8 8 0 0 0-5 0L2 93" data-name="Trazado 18"/><path d="M43 17h0a6 6 0 0 1-6-6V8a6 6 0 0 1 12 0v3a6 6 0 0 1-6 6Z" data-name="Trazado 19"/><path d="M66 17h0a6 6 0 0 1-6-6V8a6 6 0 1 1 12 0v3a6 6 0 0 1-6 6Z" data-name="Trazado 20"/><path d="M20 17h0a6 6 0 0 1-6-6V8a6 6 0 1 1 12 0v3a6 6 0 0 1-6 6Z" data-name="Trazado 21"/><path d="M35 34v20c-4 0-7-5-7-10v-7" data-name="Trazado 22"/><path d="M58 37v7c0 5-3 10-7 10V34" data-name="Trazado 23"/><path d="M28 40v-5a12 12 0 0 1 12-12h6a12 12 0 0 1 12 12v8" data-name="Trazado 24"/><path d="M12 34v20c-4 0-7-5-7-10v-7" data-name="Trazado 25"/><path d="M26 23a13 13 0 0 0-3 0h-6A12 12 0 0 0 5 35v5" data-name="Trazado 26"/><path d="M81 37v7c0 5-3 10-7 10V34" data-name="Trazado 27"/><path d="M81 43v-8a12 12 0 0 0-12-12h-6a13 13 0 0 0-3 0" data-name="Trazado 28"/></g></g></svg>