<svg xmlns="http://www.w3.org/2000/svg" width="114" height="114"><defs><clipPath id="a"><path fill="none" d="M0 0h81v81H0z" data-name="Rectángulo 55"/></clipPath></defs><g data-name="Grupo 61"><g data-name="Componente 36 – 1"><circle cx="57" cy="57" r="57" fill="rgba(213,98,29,0.5)" data-name="Elipse 4"/></g><g data-name="Grupo 32"><g clip-path="url(#a)" data-name="Grupo 31" transform="translate(17 17)"><path fill="none" stroke="#fff" strokeLinecap="round" strokeLinejoin="round" strokeWidth="3" d="M62 24a27 27 0 0 1 5 16 27 27 0 0 1-26 27" data-name="Trazado 60"/><path fill="none" stroke="#fff" strokeLinecap="round" strokeLinejoin="round" strokeWidth="3" d="M41 67a27 27 0 1 1 15-49" data-name="Trazado 61"/><path fill="none" stroke="#fff" strokeLinecap="round" strokeLinejoin="round" strokeWidth="3" d="M22 11h0l-3-3A40 40 0 0 0 8 18l3 4h1a34 34 0 0 0-5 11H2a39 39 0 0 0 0 15h5a34 34 0 0 0 5 11h-1l-3 3a40 40 0 0 0 11 11l3-3v-1a31 31 0 0 0 11 5v5a39 39 0 0 0 15 0v-5a34 34 0 0 0 11-5v1l4 3a40 40 0 0 0 10-11l-3-3h0a34 34 0 0 0 4-11h5a39 39 0 0 0 0-15h-5a34 34 0 0 0-4-11h0l3-4A40 40 0 0 0 63 8l-4 3h0a34 34 0 0 0-11-4V2a39 39 0 0 0-15 0v5a34 34 0 0 0-11 4Z" data-name="Trazado 62"/><path fill="#fff" d="M33 53a2 2 0 0 1-1-1 2 2 0 0 1 1-1 2 2 0 0 1 1-1 2 2 0 0 1 1 0 12 12 0 0 0 6 2V41a11 11 0 0 1-6-3 8 8 0 0 1-2-5 9 9 0 0 1 2-6 9 9 0 0 1 6-3v-2l1-1 1 1v2a14 14 0 0 1 6 2 2 2 0 0 1 1 1 2 2 0 0 1-1 2 2 2 0 0 1-1 0 2 2 0 0 1-1 0 13 13 0 0 0-4-1v10q8 1 8 8a9 9 0 0 1-2 7 9 9 0 0 1-6 3v1l-1 2-1-2v-1a16 16 0 0 1-8-3m8-15V28a5 5 0 0 0-3 1 5 5 0 0 0-2 4 5 5 0 0 0 1 3 6 6 0 0 0 4 2m2 14a5 5 0 0 0 5-5q0-4-5-5Z" data-name="Trazado 63"/></g></g></g></svg>