<?xml version="1.0" encoding="utf-8"?>
<!-- Generator: Adobe Illustrator 27.4.1, SVG Export Plug-In . SVG Version: 6.00 Build 0)  -->
<svg version="1.1" id="Capa_1" xmlns="http://www.w3.org/2000/svg" xmlns:xlink="http://www.w3.org/1999/xlink" x="0px" y="0px"
	 viewBox="0 0 192.4 109.9" style="enable-background:new 0 0 192.4 109.9;" xml:space="preserve">
<style type="text/css">
	.st0{clip-path:url(#SVGID_00000078728118042499694150000009857565571504205500_);}
	.st1{fill:#ABABAB;}
	.st2{fill:#E8732C;}
	.st3{enable-background:new    ;}
	.st4{fill:#FAF8EF;}
	.st5{clip-path:url(#SVGID_00000074423340424372277650000015403851540608572826_);}
</style>
<g id="Logo_header" transform="translate(-68 -39)">
	<g id="Grupo_9" transform="translate(68 39)">
		<g id="Logo_Minera" transform="translate(0 0)">
			<g>
				<defs>
					<rect id="SVGID_1_" width="192.4" height="109.9"/>
				</defs>
				<clipPath id="SVGID_00000059286761337995729040000017636896293610309045_">
					<use xlink:href="#SVGID_1_"  style="overflow:visible;"/>
				</clipPath>
				<g id="Grupo_5" style="clip-path:url(#SVGID_00000059286761337995729040000017636896293610309045_);">
					<path id="Trazado_2" class="st1" d="M-1.7,59.4c0,0,12.6-4.8,21.7-12C30.5,39.1,49.4,6.3,72.5,1.1c20.3-4.7,40.3,6.6,63.2,24.6
						c0,0-36.6-22.4-59.3-16.8C53,14.6,45,35.8,31.6,46.5C22.9,53.5,13.8,59.2-1.7,59.4"/>
					<path id="Trazado_3" class="st2" d="M37.6,62c0,0,10.1-9.7,14.9-15.3s21.7-25.9,38.1-26.1c16.4-0.2,20.3,3.3,32.7,11
						s27.9,19,41.1,20.5c8,0.9,16.1,0.4,24-1.5c0,0-10.4,8.9-28.7,8.9c-24.1,0-44.3-20.9-66.7-20S61.5,53,37.6,62"/>
				</g>
			</g>
		</g>
		<g class="st3">
			<path class="st4" d="M28.9,81.8C28.9,81.8,28.9,81.8,28.9,81.8c-0.1,0-0.2,0-0.2,0c-0.1,0-0.2,0.1-0.5,0.2s-0.6,0.3-1,0.5
				c-0.4,0.2-0.8,0.3-1.3,0.4s-1,0.2-1.6,0.2c-0.7,0-1.4-0.1-2.1-0.3c-0.7-0.2-1.2-0.5-1.7-0.8c-0.5-0.4-0.9-0.9-1.2-1.4
				c-0.3-0.6-0.4-1.2-0.4-2c0-0.7,0.1-1.4,0.4-2s0.7-1.1,1.2-1.4c0.5-0.4,1.1-0.7,1.7-0.9s1.3-0.3,2.1-0.3c0.6,0,1.1,0,1.6,0.1
				c0.5,0.1,0.9,0.2,1.2,0.3c0.4,0.1,0.6,0.2,0.8,0.3s0.3,0.1,0.4,0.1c0.1,0,0.1,0,0.1-0.1c0-0.1,0.1-0.1,0.1-0.1l0.3,0.2l-1.3,2.1
				l-0.2-0.1c0,0,0-0.1,0-0.1s0-0.1,0-0.1c0-0.1-0.1-0.3-0.3-0.4c-0.2-0.1-0.5-0.2-0.8-0.3c-0.3-0.1-0.6-0.2-1-0.3
				c-0.3-0.1-0.6-0.1-0.9-0.1c-0.5,0-0.9,0.1-1.4,0.2c-0.4,0.1-0.8,0.3-1.1,0.6c-0.3,0.3-0.6,0.6-0.8,1c-0.2,0.4-0.3,0.8-0.3,1.3
				c0,0.5,0.1,0.9,0.3,1.3c0.2,0.4,0.5,0.7,0.8,1c0.3,0.3,0.7,0.5,1.1,0.6c0.4,0.1,0.9,0.2,1.4,0.2c0.4,0,0.7,0,1.1-0.1
				c0.4-0.1,0.8-0.2,1.1-0.3c0.3-0.1,0.6-0.3,0.8-0.4c0.2-0.2,0.3-0.3,0.3-0.5c0-0.1,0-0.1-0.1-0.2l0.2-0.1l1.1,1.8L28.9,81.8z"/>
			<path class="st4" d="M35.5,75.4c0.6,0,1.2,0.1,1.8,0.2c0.5,0.2,1,0.4,1.4,0.7c0.4,0.3,0.7,0.7,1,1.2c0.2,0.5,0.4,1,0.4,1.7
				c0,0.6-0.1,1.2-0.4,1.7c-0.2,0.5-0.6,0.9-1,1.2c-0.4,0.3-0.9,0.5-1.4,0.7s-1.1,0.2-1.8,0.2c-0.6,0-1.2-0.1-1.8-0.2
				s-1-0.4-1.4-0.7c-0.4-0.3-0.7-0.7-1-1.2c-0.2-0.5-0.4-1-0.4-1.7c0-0.6,0.1-1.2,0.4-1.7c0.2-0.5,0.6-0.9,1-1.2
				c0.4-0.3,0.9-0.6,1.4-0.7C34.3,75.5,34.9,75.4,35.5,75.4z M35.5,76.7c-0.4,0-0.7,0.1-1.1,0.2s-0.7,0.3-0.9,0.5
				c-0.3,0.2-0.5,0.5-0.7,0.8c-0.2,0.3-0.2,0.7-0.2,1.1s0.1,0.8,0.2,1.1c0.2,0.3,0.4,0.6,0.7,0.8c0.3,0.2,0.6,0.4,0.9,0.5
				c0.3,0.1,0.7,0.2,1.1,0.2c0.4,0,0.7-0.1,1.1-0.2c0.3-0.1,0.7-0.3,0.9-0.5c0.3-0.2,0.5-0.5,0.7-0.8c0.2-0.3,0.2-0.7,0.2-1.1
				s-0.1-0.8-0.2-1.1c-0.2-0.3-0.4-0.6-0.7-0.8c-0.3-0.2-0.6-0.4-0.9-0.5S35.9,76.7,35.5,76.7z"/>
			<path class="st4" d="M42.3,82.7c0.1,0,0.1,0,0.1-0.1c0,0,0.1-0.1,0.1-0.2v-6.2c0-0.2,0-0.3,0-0.3c0,0-0.1-0.1-0.2-0.1v-0.3h2.4
				v0.3c-0.1,0-0.2,0.1-0.2,0.2c0,0,0,0.1,0.1,0.2c0,0.1,0.1,0.2,0.2,0.3l2.1,3.8l2.1-3.8c0.1-0.1,0.1-0.2,0.2-0.3s0.1-0.1,0.1-0.2
				c0-0.1,0-0.2-0.1-0.2v-0.3h2.4v0.3c-0.1,0-0.1,0-0.2,0c-0.1,0-0.1,0.1-0.1,0.2v6.4c0,0.1,0,0.2,0.1,0.2c0.1,0,0.1,0.1,0.2,0.1V83
				h-2v-0.3c0.2,0,0.3-0.1,0.3-0.3v-4.8h0L46.8,83h-0.1l-2.7-5.3h0h0v4.8c0,0.2,0.1,0.3,0.3,0.3V83h-1.9V82.7z"/>
			<path class="st4" d="M54.5,76.1c0-0.2-0.1-0.3-0.4-0.3v-0.3h4.9c0.9,0,1.6,0.2,2.1,0.5c0.5,0.3,0.7,0.9,0.7,1.7
				c0,0.8-0.2,1.4-0.7,1.7s-1.1,0.5-2.1,0.5h-2.9v2.6c0,0.2,0.1,0.3,0.4,0.3V83h-2.4v-0.3c0.3,0,0.4-0.1,0.4-0.3V76.1z M59,78.6
				c0.3,0,0.6-0.1,0.8-0.2c0.2-0.1,0.3-0.4,0.3-0.7c0-0.4-0.1-0.6-0.3-0.7c-0.2-0.1-0.5-0.2-0.8-0.2h-2.9v1.9H59z"/>
			<path class="st4" d="M62.7,82.7c0.1,0,0.2-0.1,0.3-0.2c0.1-0.1,0.2-0.2,0.2-0.3l2.5-5.5c0.1-0.2,0.1-0.3,0.2-0.4
				c0-0.1,0.1-0.2,0.1-0.3c0-0.1,0-0.1,0-0.1c0,0-0.1,0-0.1-0.1v-0.3h2.6v0.3c0,0-0.1,0-0.1,0.1c0,0-0.1,0.1-0.1,0.1
				c0,0.1,0,0.2,0.1,0.2c0.1,0.1,0.1,0.2,0.2,0.3l2.8,5.8c0.1,0.1,0.1,0.2,0.2,0.2c0.1,0,0.1,0.1,0.2,0.1V83h-2.4v-0.3
				c0.1,0,0.1,0,0.2-0.1c0.1,0,0.1-0.1,0.1-0.2c0-0.1,0-0.1,0-0.2c0-0.1-0.1-0.1-0.1-0.2l-0.5-1h-3.6L64.8,82c0,0.1-0.1,0.2-0.1,0.2
				c0,0.1,0,0.1,0,0.2c0,0.1,0,0.1,0.1,0.2s0.1,0,0.2,0V83h-2.3V82.7z M68.4,79.9L67,77l-1.2,2.9H68.4z"/>
			<path class="st4" d="M73.3,82.7c0.2,0,0.3-0.1,0.3-0.3v-6.4c0-0.2-0.1-0.3-0.3-0.3v-0.3h2.5v0.3c-0.1,0-0.1,0-0.1,0.1
				c0,0.1,0.1,0.2,0.4,0.5l4.1,4.3v-4.6c0-0.2-0.1-0.3-0.3-0.3v-0.3h2.1v0.3c-0.2,0-0.3,0.1-0.3,0.3v6.4c0,0.2,0.1,0.3,0.3,0.3V83
				h-2.2v-0.3c0.1,0,0.1,0,0.1-0.1c0,0-0.1-0.1-0.2-0.2s-0.2-0.2-0.4-0.4L75,77.5v4.9c0,0.2,0.1,0.3,0.4,0.3V83h-2.1V82.7z
				 M80.5,72.5c-0.1,0.3-0.1,0.5-0.2,0.7c-0.1,0.2-0.2,0.4-0.4,0.6c-0.1,0.2-0.3,0.3-0.5,0.4s-0.5,0.2-0.8,0.2c-0.2,0-0.4,0-0.6-0.1
				s-0.4-0.1-0.7-0.2C77.2,74,77,74,76.8,73.9c-0.2-0.1-0.4-0.1-0.6-0.1c-0.2,0-0.4,0.1-0.5,0.2c-0.1,0.2-0.2,0.3-0.2,0.5h-1
				c0.1-0.5,0.3-1,0.5-1.4c0.3-0.4,0.7-0.6,1.3-0.6c0.2,0,0.4,0,0.6,0.1c0.2,0.1,0.4,0.1,0.7,0.2s0.4,0.2,0.7,0.2s0.4,0.1,0.6,0.1
				c0.2,0,0.4-0.1,0.5-0.2s0.2-0.3,0.3-0.5H80.5z"/>
			<path class="st4" d="M84.7,82.7c0.2,0,0.3,0,0.4-0.1c0.1,0,0.1-0.1,0.1-0.2v-6.4c0-0.1,0-0.2-0.1-0.2c-0.1,0-0.2-0.1-0.4-0.1
				v-0.3h2.6v0.3c-0.3,0-0.5,0.1-0.5,0.3v6.4c0,0.2,0.2,0.3,0.5,0.3V83h-2.6V82.7z M86.2,74.7h-1.4l1.5-2.4h2.3L86.2,74.7z"/>
			<path class="st4" d="M89.1,82.7c0.1,0,0.2-0.1,0.3-0.2c0.1-0.1,0.2-0.2,0.2-0.3l2.5-5.5c0.1-0.2,0.1-0.3,0.2-0.4
				c0-0.1,0.1-0.2,0.1-0.3c0-0.1,0-0.1,0-0.1c0,0-0.1,0-0.1-0.1v-0.3h2.6v0.3c0,0-0.1,0-0.1,0.1c0,0-0.1,0.1-0.1,0.1
				c0,0.1,0,0.2,0.1,0.2c0.1,0.1,0.1,0.2,0.2,0.3l2.8,5.8c0.1,0.1,0.1,0.2,0.2,0.2c0.1,0,0.1,0.1,0.2,0.1V83h-2.4v-0.3
				c0.1,0,0.1,0,0.2-0.1c0.1,0,0.1-0.1,0.1-0.2c0-0.1,0-0.1,0-0.2c0-0.1-0.1-0.1-0.1-0.2l-0.5-1h-3.6L91.2,82c0,0.1-0.1,0.2-0.1,0.2
				c0,0.1,0,0.1,0,0.2c0,0.1,0,0.1,0.1,0.2s0.1,0,0.2,0V83h-2.3V82.7z M94.8,79.9L93.4,77l-1.2,2.9H94.8z"/>
			<path class="st4" d="M105,82.7c0.1,0,0.2,0,0.2-0.1c0.1-0.1,0.1-0.1,0.1-0.2v-7.8c0-0.1,0-0.2-0.1-0.2c-0.1,0-0.1-0.1-0.2-0.1
				v-0.3h3.2v0.3c-0.1,0-0.1,0-0.2,0.1c-0.1,0-0.1,0.1-0.1,0.2c0,0.1,0,0.1,0.1,0.2c0,0.1,0.1,0.2,0.2,0.3l2.4,4.4l2.4-4.4
				c0.1-0.1,0.1-0.3,0.2-0.3s0.1-0.2,0.1-0.2c0-0.1-0.1-0.2-0.2-0.2v-0.3h3.1v0.3c-0.1,0-0.2,0-0.2,0.1c-0.1,0-0.1,0.1-0.1,0.2v7.8
				c0,0.1,0,0.2,0.1,0.2c0.1,0.1,0.1,0.1,0.2,0.1V83h-2.7v-0.3c0.3,0,0.5-0.1,0.5-0.3v-5.6h0l-3.4,6.3h-0.1l-3.3-6.3h0v5.7
				c0,0.2,0.2,0.3,0.5,0.3V83H105V82.7z"/>
			<path class="st4" d="M119.2,82.7c0.2,0,0.3,0,0.4-0.1c0.1,0,0.1-0.1,0.1-0.2v-6.4c0-0.1,0-0.2-0.1-0.2c-0.1,0-0.2-0.1-0.4-0.1
				v-0.3h2.6v0.3c-0.3,0-0.5,0.1-0.5,0.3v6.4c0,0.2,0.2,0.3,0.5,0.3V83h-2.6V82.7z"/>
			<path class="st4" d="M124.7,82.7c0.2,0,0.3-0.1,0.3-0.3v-6.4c0-0.2-0.1-0.3-0.3-0.3v-0.3h2.5v0.3c-0.1,0-0.1,0-0.1,0.1
				c0,0.1,0.1,0.2,0.4,0.5l4.1,4.3v-4.6c0-0.2-0.1-0.3-0.3-0.3v-0.3h2.1v0.3c-0.2,0-0.3,0.1-0.3,0.3v6.4c0,0.2,0.1,0.3,0.3,0.3V83
				h-2.2v-0.3c0.1,0,0.1,0,0.1-0.1c0,0-0.1-0.1-0.2-0.2c-0.1-0.1-0.2-0.2-0.4-0.4l-4.2-4.5v4.9c0,0.2,0.1,0.3,0.4,0.3V83h-2.1V82.7z
				"/>
			<path class="st4" d="M142.6,77.1c0-0.2-0.2-0.3-0.5-0.3H138v1.7h2.6c0.2,0,0.3,0,0.4,0c0.1,0,0.1-0.1,0.1-0.2h0.3V80h-0.3
				c0-0.1,0-0.2-0.1-0.2c-0.1,0-0.3,0-0.5,0H138v2h4.4c0.1,0,0.2,0,0.3-0.1s0.1-0.1,0.1-0.2h0.3v1.8h-0.3c0-0.1,0-0.2-0.1-0.2
				c-0.1,0-0.2,0-0.3,0h-6.2v-0.3c0.1,0,0.1,0,0.2-0.1s0.1-0.1,0.1-0.2v-6.4c0-0.1,0-0.2-0.1-0.2s-0.1-0.1-0.2-0.1v-0.3h6
				c0.4,0,0.5-0.1,0.5-0.3h0.3v1.9H142.6z"/>
			<path class="st4" d="M150.1,75.5c1,0,1.8,0.2,2.4,0.5c0.6,0.3,0.9,0.9,0.9,1.7c0,0.3-0.1,0.6-0.2,0.8s-0.3,0.4-0.5,0.6
				c-0.2,0.2-0.4,0.3-0.6,0.4s-0.5,0.2-0.7,0.2l1.7,2.4c0.1,0.1,0.2,0.2,0.3,0.3c0.1,0.1,0.2,0.1,0.3,0.1V83h-2.6v-0.3
				c0.1,0,0.2-0.1,0.2-0.2c0-0.1-0.1-0.3-0.3-0.5l-1.3-2h-2.4v2.4c0,0.1,0,0.2,0.1,0.2c0.1,0,0.1,0.1,0.2,0.1V83h-2.3v-0.3
				c0.2,0,0.3-0.1,0.3-0.3v-6.4c0-0.2-0.1-0.3-0.3-0.3v-0.3H150.1z M150.1,78.8c1.1,0,1.7-0.4,1.7-1.1c0-0.3-0.1-0.5-0.4-0.7
				c-0.3-0.2-0.7-0.2-1.3-0.2h-2.7v2H150.1z"/>
			<path class="st4" d="M154.8,82.7c0.1,0,0.2-0.1,0.3-0.2c0.1-0.1,0.2-0.2,0.2-0.3l2.5-5.5c0.1-0.2,0.1-0.3,0.2-0.4
				c0-0.1,0.1-0.2,0.1-0.3c0-0.1,0-0.1,0-0.1c0,0-0.1,0-0.1-0.1v-0.3h2.6v0.3c0,0-0.1,0-0.1,0.1c0,0-0.1,0.1-0.1,0.1
				c0,0.1,0,0.2,0.1,0.2c0.1,0.1,0.1,0.2,0.2,0.3l2.8,5.8c0.1,0.1,0.1,0.2,0.2,0.2c0.1,0,0.1,0.1,0.2,0.1V83h-2.4v-0.3
				c0.1,0,0.1,0,0.2-0.1c0.1,0,0.1-0.1,0.1-0.2c0-0.1,0-0.1,0-0.2s-0.1-0.1-0.1-0.2l-0.5-1h-3.6l-0.5,0.9c0,0.1-0.1,0.2-0.1,0.2
				c0,0.1,0,0.1,0,0.2c0,0.1,0,0.1,0.1,0.2s0.1,0,0.2,0V83h-2.3V82.7z M160.4,79.9l-1.4-2.9l-1.2,2.9H160.4z"/>
		</g>
		<g id="Grupo_8" transform="translate(0 0)">
			<g>
				<defs>
					<rect id="SVGID_00000006681464654201170010000018308273925744054182_" width="192.4" height="109.9"/>
				</defs>
				<clipPath id="SVGID_00000121995024255947880880000000102245127414236552_">
					<use xlink:href="#SVGID_00000006681464654201170010000018308273925744054182_"  style="overflow:visible;"/>
				</clipPath>
				<g id="Grupo_7" style="clip-path:url(#SVGID_00000121995024255947880880000000102245127414236552_);">
					<g class="st3">
						<path class="st4" d="M14.9,89.8c-0.2,0-0.4,0.1-0.5,0.2c-0.1,0.2-0.2,0.3-0.2,0.4l-3,6.6c-0.1,0.2-0.2,0.4-0.3,0.5
							c-0.1,0.1-0.1,0.2-0.1,0.3s0,0.1,0,0.1c0,0,0.1,0.1,0.1,0.1v0.3H8.4v-0.3c0.1,0,0.2-0.1,0.2-0.2c0-0.1,0-0.2-0.1-0.3
							s-0.2-0.4-0.3-0.7l-3.1-6.6C5,90.2,4.9,90.1,4.8,90s-0.2-0.1-0.4-0.2v-0.3h3v0.3c-0.1,0-0.2,0-0.2,0.1c-0.1,0-0.1,0.1-0.1,0.2
							c0,0.1,0,0.3,0.1,0.5c0.1,0.2,0.2,0.4,0.3,0.7L9.8,96l2.1-4.6c0.1-0.3,0.3-0.6,0.4-0.8c0.1-0.2,0.2-0.4,0.2-0.5
							c0-0.2-0.2-0.3-0.5-0.3v-0.3h3V89.8z"/>
						<path class="st4" d="M16.9,98.2c0.2,0,0.3,0,0.4-0.1c0.1,0,0.1-0.1,0.1-0.2v-6.4c0-0.1,0-0.2-0.1-0.2c-0.1,0-0.2-0.1-0.4-0.1
							V91h2.6v0.3c-0.3,0-0.5,0.1-0.5,0.3v6.4c0,0.2,0.2,0.3,0.5,0.3v0.3h-2.6V98.2z"/>
						<path class="st4" d="M26.6,92.3h-3.9c-0.1,0-0.3,0-0.3,0.1s-0.1,0.1-0.1,0.2H22v-2h0.3c0,0.3,0.1,0.4,0.4,0.4h6.8v0.3
							l-4.7,5.9h4.1c0.3,0,0.4-0.1,0.4-0.4h0.3v1.8h-0.3c0-0.1-0.1-0.2-0.4-0.2H22v-0.3L26.6,92.3z"/>
						<path class="st4" d="M37.7,93.1C37.7,93.1,37.7,93.1,37.7,93.1c0-0.1,0-0.1,0-0.2c0-0.1-0.1-0.1-0.2-0.2
							c-0.1-0.1-0.3-0.2-0.5-0.3c-0.2-0.1-0.5-0.2-0.7-0.2s-0.6-0.1-0.9-0.1c-0.4,0-0.8,0.1-1.1,0.2c-0.3,0.1-0.6,0.3-0.9,0.5
							c-0.2,0.2-0.4,0.5-0.6,0.8c-0.1,0.3-0.2,0.7-0.2,1.1s0.1,0.8,0.2,1.1c0.2,0.3,0.4,0.6,0.6,0.8c0.2,0.2,0.5,0.4,0.9,0.5
							c0.3,0.1,0.6,0.2,1,0.2c0.3,0,0.6,0,0.9-0.1c0.3-0.1,0.6-0.2,0.9-0.3c0.3-0.1,0.5-0.2,0.6-0.3c0.2-0.1,0.2-0.2,0.2-0.3v-0.1
							c0-0.1,0-0.1,0-0.2l0.2-0.2l1.3,1.8l-0.2,0.1c-0.1-0.1-0.2-0.1-0.3-0.1c-0.1,0-0.2,0.1-0.4,0.2c-0.2,0.1-0.5,0.2-0.8,0.3
							c-0.3,0.1-0.7,0.2-1.1,0.3c-0.4,0.1-0.9,0.1-1.4,0.1c-0.5,0-1-0.1-1.5-0.2c-0.5-0.1-1-0.4-1.4-0.7c-0.4-0.3-0.7-0.7-1-1.2
							c-0.2-0.5-0.4-1-0.4-1.7s0.1-1.2,0.4-1.7c0.2-0.5,0.6-0.9,1-1.2c0.4-0.3,0.9-0.6,1.4-0.7c0.5-0.2,1.1-0.2,1.6-0.2
							c0.4,0,0.8,0,1.2,0.1s0.7,0.2,0.9,0.3c0.3,0.1,0.5,0.2,0.7,0.3s0.3,0.1,0.4,0.1c0.1,0,0.1,0,0.1-0.1c0,0,0.1-0.1,0.1-0.1
							l0.2,0.1l-1.1,1.6L37.7,93.1z"/>
						<path class="st4" d="M40.2,98.2c0.1,0,0.2-0.1,0.3-0.2c0.1-0.1,0.2-0.2,0.2-0.3l2.5-5.5c0.1-0.2,0.1-0.3,0.2-0.4
							c0-0.1,0.1-0.2,0.1-0.3c0-0.1,0-0.1,0-0.1c0,0-0.1,0-0.1-0.1V91h2.6v0.3c0,0-0.1,0-0.1,0.1c0,0-0.1,0.1-0.1,0.1
							c0,0.1,0,0.2,0.1,0.2c0.1,0.1,0.1,0.2,0.2,0.3l2.8,5.8c0.1,0.1,0.1,0.2,0.2,0.2c0.1,0,0.1,0.1,0.2,0.1v0.3h-2.4v-0.3
							c0.1,0,0.1,0,0.2-0.1c0.1,0,0.1-0.1,0.1-0.2c0-0.1,0-0.1,0-0.2c0-0.1-0.1-0.1-0.1-0.2l-0.5-1h-3.6l-0.5,0.9
							c0,0.1-0.1,0.2-0.1,0.2c0,0.1,0,0.1,0,0.2c0,0.1,0,0.1,0.1,0.2s0.1,0,0.2,0v0.3h-2.3V98.2z M45.8,95.3l-1.4-2.9l-1.2,2.9H45.8
							z"/>
						<path class="st4" d="M56.6,93.1C56.6,93.1,56.6,93.1,56.6,93.1c0-0.1,0-0.1,0-0.2c0-0.1-0.1-0.1-0.2-0.2
							c-0.1-0.1-0.3-0.2-0.5-0.3c-0.2-0.1-0.5-0.2-0.7-0.2s-0.6-0.1-0.9-0.1c-0.4,0-0.8,0.1-1.1,0.2c-0.3,0.1-0.6,0.3-0.9,0.5
							c-0.2,0.2-0.4,0.5-0.6,0.8c-0.1,0.3-0.2,0.7-0.2,1.1s0.1,0.8,0.2,1.1c0.2,0.3,0.4,0.6,0.6,0.8c0.2,0.2,0.5,0.4,0.9,0.5
							c0.3,0.1,0.6,0.2,1,0.2c0.3,0,0.6,0,0.9-0.1c0.3-0.1,0.6-0.2,0.9-0.3c0.3-0.1,0.5-0.2,0.6-0.3c0.2-0.1,0.2-0.2,0.2-0.3v-0.1
							c0-0.1,0-0.1,0-0.2l0.2-0.2l1.3,1.8l-0.2,0.1c-0.1-0.1-0.2-0.1-0.3-0.1c-0.1,0-0.2,0.1-0.4,0.2c-0.2,0.1-0.5,0.2-0.8,0.3
							c-0.3,0.1-0.7,0.2-1.1,0.3c-0.4,0.1-0.9,0.1-1.4,0.1c-0.5,0-1-0.1-1.5-0.2c-0.5-0.1-1-0.4-1.4-0.7c-0.4-0.3-0.7-0.7-1-1.2
							c-0.2-0.5-0.4-1-0.4-1.7s0.1-1.2,0.4-1.7c0.2-0.5,0.6-0.9,1-1.2c0.4-0.3,0.9-0.6,1.4-0.7c0.5-0.2,1.1-0.2,1.6-0.2
							c0.4,0,0.8,0,1.2,0.1s0.7,0.2,0.9,0.3c0.3,0.1,0.5,0.2,0.7,0.3s0.3,0.1,0.4,0.1c0.1,0,0.1,0,0.1-0.1c0,0,0.1-0.1,0.1-0.1
							l0.2,0.1l-1.1,1.6L56.6,93.1z"/>
						<path class="st4" d="M62.2,97.9c0,0.1,0,0.2,0.1,0.2c0.1,0,0.1,0.1,0.2,0.1v0.3h-2.1v-0.3c0.1,0,0.1,0,0.2-0.1
							c0.1,0,0.1-0.1,0.1-0.2v-6.4c0-0.1,0-0.2-0.1-0.2c-0.1,0-0.1-0.1-0.2-0.1V91h2.1v0.3c-0.1,0-0.1,0-0.2,0.1
							c-0.1,0-0.1,0.1-0.1,0.2V94h4.6v-2.4c0-0.1,0-0.2-0.1-0.2c-0.1,0-0.1-0.1-0.2-0.1V91h2.1v0.3c-0.1,0-0.1,0-0.2,0.1
							c-0.1,0-0.1,0.1-0.1,0.2v6.4c0,0.1,0,0.2,0.1,0.2c0.1,0,0.1,0.1,0.2,0.1v0.3h-2.1v-0.3c0.1,0,0.1,0,0.2-0.1
							c0.1,0,0.1-0.1,0.1-0.2v-2.6h-4.6V97.9z"/>
						<path class="st4" d="M71.7,98.2c0.2,0,0.3,0,0.4-0.1c0.1,0,0.1-0.1,0.1-0.2v-6.4c0-0.1,0-0.2-0.1-0.2c-0.1,0-0.2-0.1-0.4-0.1
							V91h2.6v0.3c-0.3,0-0.5,0.1-0.5,0.3v6.4c0,0.2,0.2,0.3,0.5,0.3v0.3h-2.6V98.2z"/>
						<path class="st4" d="M79,98.2c0.1,0,0.1,0,0.2-0.1c0.1,0,0.1-0.1,0.1-0.2v-5.7H77c-0.1,0-0.2,0-0.3,0.1
							c-0.1,0-0.1,0.1-0.1,0.2h-0.3v-2h0.3c0,0.2,0,0.3,0.1,0.3C76.9,91,76.9,91,77,91h6.1c0.1,0,0.2,0,0.3-0.1
							c0.1-0.1,0.1-0.2,0.1-0.3h0.3v2h-0.3c0-0.1,0-0.2-0.1-0.2c-0.1,0-0.2-0.1-0.3-0.1h-2.2v5.7c0,0.2,0.1,0.3,0.3,0.3v0.3H79V98.2
							z"/>
						<path class="st4" d="M84.6,98.2c0.1,0,0.2-0.1,0.3-0.2c0.1-0.1,0.2-0.2,0.2-0.3l2.5-5.5c0.1-0.2,0.1-0.3,0.2-0.4
							c0-0.1,0.1-0.2,0.1-0.3c0-0.1,0-0.1,0-0.1c0,0-0.1,0-0.1-0.1V91h2.6v0.3c0,0-0.1,0-0.1,0.1c0,0-0.1,0.1-0.1,0.1
							c0,0.1,0,0.2,0.1,0.2c0.1,0.1,0.1,0.2,0.2,0.3l2.8,5.8c0.1,0.1,0.1,0.2,0.2,0.2c0.1,0,0.1,0.1,0.2,0.1v0.3h-2.4v-0.3
							c0.1,0,0.1,0,0.2-0.1c0.1,0,0.1-0.1,0.1-0.2c0-0.1,0-0.1,0-0.2c0-0.1-0.1-0.1-0.1-0.2l-0.5-1h-3.6l-0.5,0.9
							c0,0.1-0.1,0.2-0.1,0.2c0,0.1,0,0.1,0,0.2c0,0.1,0,0.1,0.1,0.2s0.1,0,0.2,0v0.3h-2.3V98.2z M90.2,95.3l-1.4-2.9l-1.2,2.9H90.2
							z"/>
						<path class="st4" d="M95.6,95.9c0,0,0,0.1,0,0.1c0,0.1,0,0.1,0,0.2c0,0.2,0.1,0.3,0.3,0.5s0.5,0.3,0.8,0.4
							c0.3,0.1,0.6,0.2,0.9,0.2c0.3,0.1,0.5,0.1,0.7,0.1c0.2,0,0.4,0,0.6,0c0.2,0,0.5-0.1,0.7-0.1c0.2-0.1,0.4-0.2,0.6-0.3
							c0.2-0.1,0.2-0.3,0.2-0.5c0-0.2-0.1-0.4-0.4-0.5c-0.3-0.1-0.6-0.2-1-0.3c-0.4-0.1-0.9-0.1-1.4-0.2s-0.9-0.2-1.4-0.3
							c-0.4-0.1-0.8-0.3-1-0.6c-0.3-0.3-0.4-0.6-0.4-1.1c0-0.7,0.3-1.3,0.9-1.7s1.4-0.6,2.5-0.6c0.5,0,1,0,1.4,0.1
							c0.4,0.1,0.7,0.2,1,0.3c0.3,0.1,0.5,0.2,0.6,0.3c0.2,0.1,0.3,0.1,0.4,0.1c0.1,0,0.2,0,0.2,0c0,0,0.1-0.1,0.2-0.1l0.2,0.2
							l-0.9,1.6l-0.3-0.1c0-0.1,0-0.1,0-0.2c0-0.1-0.1-0.1-0.2-0.2c-0.2-0.2-0.6-0.4-1.1-0.5s-1-0.2-1.6-0.2c-0.2,0-0.4,0-0.6,0
							s-0.4,0.1-0.5,0.1c-0.2,0.1-0.3,0.2-0.4,0.3c-0.1,0.1-0.1,0.2-0.1,0.4c0,0.2,0.1,0.4,0.4,0.5s0.6,0.2,1,0.3
							c0.4,0.1,0.9,0.1,1.4,0.2c0.5,0.1,0.9,0.2,1.4,0.3s0.8,0.4,1,0.6c0.3,0.3,0.4,0.7,0.4,1.2c0,0.5-0.1,0.9-0.4,1.2
							s-0.5,0.6-0.9,0.7c-0.4,0.2-0.8,0.3-1.2,0.4c-0.4,0.1-0.8,0.1-1.2,0.1c-0.4,0-0.8,0-1.1-0.1c-0.4-0.1-0.7-0.2-1-0.3
							c-0.3-0.1-0.6-0.2-0.8-0.3c-0.2-0.1-0.3-0.1-0.4-0.1c-0.1,0-0.1,0-0.2,0.1l-0.2-0.2l0.8-1.9L95.6,95.9z"/>
						<path class="st4" d="M117.7,90.1c0-0.2-0.1-0.3-0.4-0.3v-0.3h2.6v0.3c-0.1,0-0.2,0-0.2,0.1s-0.1,0.1-0.1,0.2v7.7
							c0,0.1,0,0.2,0.1,0.2c0.1,0.1,0.1,0.1,0.2,0.1v0.3h-2.6v-0.3c0.2,0,0.4-0.1,0.4-0.3v-3.2h-5.5v3.2c0,0.1,0,0.2,0.1,0.2
							c0.1,0.1,0.1,0.1,0.2,0.1v0.3H110v-0.3c0.2,0,0.3-0.1,0.3-0.3v-7.7c0-0.2-0.1-0.3-0.3-0.3v-0.3h2.6v0.3c-0.1,0-0.2,0-0.2,0.1
							c-0.1,0.1-0.1,0.1-0.1,0.2V93h5.5V90.1z"/>
						<path class="st4" d="M126.8,90.9c0.6,0,1.2,0.1,1.8,0.2c0.5,0.2,1,0.4,1.4,0.7c0.4,0.3,0.7,0.7,1,1.2c0.2,0.5,0.4,1,0.4,1.7
							c0,0.6-0.1,1.2-0.4,1.7c-0.2,0.5-0.6,0.9-1,1.2c-0.4,0.3-0.9,0.5-1.4,0.7s-1.1,0.2-1.8,0.2c-0.6,0-1.2-0.1-1.8-0.2
							s-1-0.4-1.4-0.7s-0.7-0.7-1-1.2c-0.2-0.5-0.4-1-0.4-1.7c0-0.6,0.1-1.2,0.4-1.7c0.2-0.5,0.6-0.9,1-1.2s0.9-0.6,1.4-0.7
							C125.6,91,126.2,90.9,126.8,90.9z M126.8,92.1c-0.4,0-0.7,0.1-1.1,0.2s-0.7,0.3-0.9,0.5c-0.3,0.2-0.5,0.5-0.7,0.8
							c-0.2,0.3-0.2,0.7-0.2,1.1s0.1,0.8,0.2,1.1c0.2,0.3,0.4,0.6,0.7,0.8c0.3,0.2,0.6,0.4,0.9,0.5c0.3,0.1,0.7,0.2,1.1,0.2
							c0.4,0,0.7-0.1,1.1-0.2c0.3-0.1,0.7-0.3,0.9-0.5c0.3-0.2,0.5-0.5,0.7-0.8c0.2-0.3,0.2-0.7,0.2-1.1s-0.1-0.8-0.2-1.1
							c-0.2-0.3-0.4-0.6-0.7-0.8c-0.3-0.2-0.6-0.4-0.9-0.5S127.2,92.1,126.8,92.1z"/>
						<path class="st4" d="M135.8,91v0.3c-0.3,0-0.4,0.1-0.4,0.3v5.7h4.6c0.1,0,0.2,0,0.3-0.1s0.1-0.2,0.1-0.3h0.3v1.8h-0.3
							c0-0.1,0-0.1-0.1-0.2c-0.1,0-0.2,0-0.3,0h-6.7v-0.3c0.3,0,0.4-0.1,0.4-0.3v-6.4c0-0.2-0.1-0.3-0.4-0.3V91H135.8z"/>
						<path class="st4" d="M142.6,98.2c0.3,0,0.4-0.1,0.4-0.3v-6.4c0-0.2-0.1-0.3-0.4-0.3V91h4.7c0.7,0,1.2,0.1,1.7,0.3
							c0.5,0.2,0.9,0.5,1.2,0.8c0.3,0.3,0.5,0.7,0.7,1.2c0.1,0.4,0.2,0.9,0.2,1.4c0,0.5-0.1,0.9-0.2,1.4c-0.1,0.4-0.4,0.8-0.6,1.2
							c-0.3,0.3-0.7,0.6-1.1,0.8c-0.5,0.2-1,0.3-1.7,0.3h-4.8V98.2z M146.8,97.2c0.4,0,0.7,0,1-0.1c0.3-0.1,0.6-0.2,0.8-0.3
							c0.2-0.2,0.4-0.4,0.6-0.8s0.2-0.8,0.2-1.4s-0.1-1-0.2-1.3c-0.1-0.3-0.3-0.6-0.6-0.7c-0.2-0.2-0.5-0.3-0.8-0.3
							c-0.3,0-0.7-0.1-1-0.1h-2.2v5H146.8z"/>
						<path class="st4" d="M153.4,98.2c0.2,0,0.3,0,0.4-0.1s0.1-0.1,0.1-0.2v-6.4c0-0.1,0-0.2-0.1-0.2s-0.2-0.1-0.4-0.1V91h2.6v0.3
							c-0.3,0-0.5,0.1-0.5,0.3v6.4c0,0.2,0.2,0.3,0.5,0.3v0.3h-2.6V98.2z"/>
						<path class="st4" d="M158.9,98.2c0.2,0,0.3-0.1,0.3-0.3v-6.4c0-0.2-0.1-0.3-0.3-0.3V91h2.5v0.3c-0.1,0-0.1,0-0.1,0.1
							c0,0.1,0.1,0.2,0.4,0.5l4.1,4.3v-4.6c0-0.2-0.1-0.3-0.3-0.3V91h2.1v0.3c-0.2,0-0.3,0.1-0.3,0.3v6.4c0,0.2,0.1,0.3,0.3,0.3v0.3
							h-2.2v-0.3c0.1,0,0.1,0,0.1-0.1c0,0-0.1-0.1-0.2-0.2c-0.1-0.1-0.2-0.2-0.4-0.4l-4.2-4.5v4.9c0,0.2,0.1,0.3,0.4,0.3v0.3h-2.1
							V98.2z"/>
						<path class="st4" d="M176.9,93.5l-0.2-0.1c0-0.1,0-0.2,0-0.2c0-0.1-0.1-0.2-0.2-0.3c-0.1-0.1-0.3-0.2-0.6-0.3
							c-0.2-0.1-0.5-0.2-0.8-0.2c-0.3-0.1-0.6-0.1-0.9-0.1c-0.4,0-0.8,0-1.2,0.1c-0.4,0.1-0.7,0.2-1,0.5c-0.3,0.2-0.5,0.5-0.7,0.8
							c-0.2,0.3-0.3,0.7-0.3,1.2s0.1,0.9,0.3,1.2c0.2,0.3,0.4,0.6,0.7,0.8s0.6,0.3,1,0.4s0.7,0.1,1,0.1c0.5,0,0.9,0,1.4-0.1
							c0.4-0.1,0.8-0.2,1.2-0.4v-1.1h-1.8c-0.1,0-0.2,0-0.3,0.1s-0.1,0.1-0.2,0.3H174v-1.8h0.3c0,0.1,0.1,0.2,0.2,0.2
							c0.1,0,0.2,0.1,0.3,0.1h3.3v0.3c-0.1,0-0.2,0.1-0.2,0.2s-0.1,0.1-0.1,0.3V97c0,0.1,0,0.2,0,0.2c0,0,0.1,0.1,0.2,0.1v0.2
							c-0.1,0.1-0.3,0.2-0.5,0.3c-0.2,0.1-0.5,0.2-0.8,0.3c-0.3,0.1-0.7,0.2-1.2,0.3c-0.4,0.1-0.9,0.1-1.5,0.1c-0.7,0-1.4-0.1-2-0.2
							c-0.6-0.2-1.1-0.4-1.5-0.7c-0.4-0.3-0.7-0.7-1-1.2c-0.2-0.5-0.3-1-0.3-1.6c0-0.6,0.1-1.1,0.3-1.6c0.2-0.5,0.5-0.9,1-1.2
							c0.4-0.3,0.9-0.6,1.5-0.8c0.6-0.2,1.3-0.3,2-0.3c0.4,0,0.8,0,1.2,0.1s0.6,0.2,0.9,0.3c0.3,0.1,0.5,0.2,0.6,0.3
							s0.3,0.1,0.4,0.1c0.1,0,0.2,0,0.2,0c0,0,0.1-0.1,0.2-0.1l0.2,0.1L176.9,93.5z"/>
					</g>
				</g>
			</g>
		</g>
	</g>
</g>
</svg>
