<svg version="1.2" xmlns="http://www.w3.org/2000/svg" viewBox="0 0 193 66" width="193" height="66">
	<title>logo-1siUyLjZ-svg</title>
	<defs>
		<clipPath clipPathUnits="userSpaceOnUse" id="cp1">
			<path d="m0 0h192.4v109.9h-192.4z"/>
		</clipPath>
		<clipPath clipPathUnits="userSpaceOnUse" id="cp2">
			<path d="m0 0h192.4v109.9h-192.4z"/>
		</clipPath>
	</defs>
	<style>
		.s0 { fill: #ababab } 
		.s1 { fill: #e8732c } 
		.s2 { fill: #faf8ef } 
	</style>
	<g id="Logo_header">
		<g id="Grupo_9">
			<g id="Logo_Minera">
				<g id="Layer">
					<g id="Clip-Path: Grupo_5" clip-path="url(#cp1)">
						<g id="Grupo_5">
							<path id="Trazado_2" class="s0" d="m-1.7 59.4c0 0 12.6-4.8 21.7-12 10.5-8.3 29.4-41.1 52.5-46.3 20.3-4.7 40.3 6.6 63.2 24.6 0 0-36.6-22.4-59.3-16.8-23.4 5.7-31.4 26.9-44.8 37.6-8.7 7-17.8 12.7-33.3 12.9z"/>
							<path id="Trazado_3" class="s1" d="m37.6 62c0 0 10.1-9.7 14.9-15.3 4.8-5.6 21.7-25.9 38.1-26.1 16.4-0.2 20.3 3.3 32.7 11 12.4 7.7 27.9 19 41.1 20.5 8 0.9 16.1 0.4 24-1.5 0 0-10.4 8.9-28.7 8.9-24.1 0-44.3-20.9-66.7-20-22.4 0.9-31.5 13.5-55.4 22.5z"/>
						</g>
					</g>
				</g>
			</g>
			<g id="Layer">
				<path id="Layer" class="s2" d="m28.9 81.8c-0.1 0-0.2 0-0.2 0-0.1 0-0.2 0.1-0.5 0.2-0.3 0.1-0.6 0.3-1 0.5-0.4 0.2-0.8 0.3-1.3 0.4-0.5 0.1-1 0.2-1.6 0.2q-1 0-2.1-0.3c-0.7-0.2-1.2-0.5-1.7-0.8-0.5-0.4-0.9-0.9-1.2-1.4-0.3-0.6-0.4-1.2-0.4-2 0-0.7 0.1-1.4 0.4-2 0.3-0.6 0.7-1.1 1.2-1.4 0.5-0.4 1.1-0.7 1.7-0.9q0.9-0.3 2.1-0.3c0.6 0 1.1 0 1.6 0.1q0.8 0.2 1.2 0.3c0.4 0.1 0.6 0.2 0.8 0.3 0.2 0.1 0.3 0.1 0.4 0.1 0.1 0 0.1 0 0.1-0.1 0-0.1 0.1-0.1 0.1-0.1l0.3 0.2-1.3 2.1-0.2-0.1v-0.1-0.1c0-0.1-0.1-0.3-0.3-0.4-0.2-0.1-0.5-0.2-0.8-0.3-0.3-0.1-0.6-0.2-1-0.3-0.3-0.1-0.6-0.1-0.9-0.1-0.5 0-0.9 0.1-1.4 0.2-0.4 0.1-0.8 0.3-1.1 0.6-0.3 0.3-0.6 0.6-0.8 1-0.2 0.4-0.3 0.8-0.3 1.3 0 0.5 0.1 0.9 0.3 1.3 0.2 0.4 0.5 0.7 0.8 1 0.3 0.3 0.7 0.5 1.1 0.6 0.4 0.1 0.9 0.2 1.4 0.2 0.4 0 0.7 0 1.1-0.1 0.4-0.1 0.8-0.2 1.1-0.3 0.3-0.1 0.6-0.3 0.8-0.4 0.2-0.2 0.3-0.3 0.3-0.5 0-0.1 0-0.1-0.1-0.2l0.2-0.1 1.1 1.8z"/>
				<path id="Layer" fill-rule="evenodd" class="s2" d="m35.5 75.4c0.6 0 1.2 0.1 1.8 0.2 0.5 0.2 1 0.4 1.4 0.7 0.4 0.3 0.7 0.7 1 1.2 0.2 0.5 0.4 1 0.4 1.7 0 0.6-0.1 1.2-0.4 1.7-0.2 0.5-0.6 0.9-1 1.2-0.4 0.3-0.9 0.5-1.4 0.7-0.5 0.2-1.1 0.2-1.8 0.2-0.6 0-1.2-0.1-1.8-0.2-0.6-0.1-1-0.4-1.4-0.7-0.4-0.3-0.7-0.7-1-1.2-0.2-0.5-0.4-1-0.4-1.7 0-0.6 0.1-1.2 0.4-1.7 0.2-0.5 0.6-0.9 1-1.2 0.4-0.3 0.9-0.6 1.4-0.7 0.6-0.1 1.2-0.2 1.8-0.2zm0 1.3c-0.4 0-0.7 0.1-1.1 0.2-0.4 0.1-0.7 0.3-0.9 0.5-0.3 0.2-0.5 0.5-0.7 0.8-0.2 0.3-0.2 0.7-0.2 1.1 0 0.4 0.1 0.8 0.2 1.1 0.2 0.3 0.4 0.6 0.7 0.8 0.3 0.2 0.6 0.4 0.9 0.5 0.3 0.1 0.7 0.2 1.1 0.2 0.4 0 0.7-0.1 1.1-0.2 0.3-0.1 0.7-0.3 0.9-0.5 0.3-0.2 0.5-0.5 0.7-0.8 0.2-0.3 0.2-0.7 0.2-1.1 0-0.4-0.1-0.8-0.2-1.1-0.2-0.3-0.4-0.6-0.7-0.8-0.3-0.2-0.6-0.4-0.9-0.5-0.3-0.1-0.7-0.2-1.1-0.2z"/>
				<path id="Layer" class="s2" d="m42.3 82.7c0.1 0 0.1 0 0.1-0.1 0 0 0.1-0.1 0.1-0.2v-6.2q0-0.3 0-0.3c0 0-0.1-0.1-0.2-0.1v-0.3h2.4v0.3c-0.1 0-0.2 0.1-0.2 0.2 0 0 0 0.1 0.1 0.2 0 0.1 0.1 0.2 0.2 0.3l2.1 3.8 2.1-3.8c0.1-0.1 0.1-0.2 0.2-0.3 0.1-0.1 0.1-0.1 0.1-0.2 0-0.1 0-0.2-0.1-0.2v-0.3h2.4v0.3c-0.1 0-0.1 0-0.2 0-0.1 0-0.1 0.1-0.1 0.2v6.4c0 0.1 0 0.2 0.1 0.2 0.1 0 0.1 0.1 0.2 0.1v0.3h-2v-0.3q0.3 0 0.3-0.3v-4.8l-3.1 5.4h-0.1l-2.7-5.3v4.8q0 0.3 0.3 0.3v0.2h-1.9v-0.3z"/>
				<path id="Layer" fill-rule="evenodd" class="s2" d="m54.5 76.1c0-0.2-0.1-0.3-0.4-0.3v-0.3h4.9c0.9 0 1.6 0.2 2.1 0.5 0.5 0.3 0.7 0.9 0.7 1.7 0 0.8-0.2 1.4-0.7 1.7-0.5 0.3-1.1 0.5-2.1 0.5h-2.9v2.6c0 0.2 0.1 0.3 0.4 0.3v0.2h-2.4v-0.3c0.3 0 0.4-0.1 0.4-0.3zm4.5 2.5c0.3 0 0.6-0.1 0.8-0.2 0.2-0.1 0.3-0.4 0.3-0.7 0-0.4-0.1-0.6-0.3-0.7-0.2-0.1-0.5-0.2-0.8-0.2h-2.9v1.9h2.9z"/>
				<path id="Layer" fill-rule="evenodd" class="s2" d="m62.7 82.7c0.1 0 0.2-0.1 0.3-0.2 0.1-0.1 0.2-0.2 0.2-0.3l2.5-5.5c0.1-0.2 0.1-0.3 0.2-0.4 0-0.1 0.1-0.2 0.1-0.3 0-0.1 0-0.1 0-0.1 0 0-0.1 0-0.1-0.1v-0.3h2.6v0.3c0 0-0.1 0-0.1 0.1l-0.1 0.1c0 0.1 0 0.2 0.1 0.2 0.1 0.1 0.1 0.2 0.2 0.3l2.8 5.8c0.1 0.1 0.1 0.2 0.2 0.2 0.1 0 0.1 0.1 0.2 0.1v0.4h-2.4v-0.3c0.1 0 0.1 0 0.2-0.1 0.1 0 0.1-0.1 0.1-0.2 0-0.1 0-0.1 0-0.2 0-0.1-0.1-0.1-0.1-0.2l-0.5-1h-3.6l-0.7 1c0 0.1-0.1 0.2-0.1 0.2 0 0.1 0 0.1 0 0.2 0 0.1 0 0.1 0.1 0.2 0.1 0.1 0.1 0 0.2 0v0.4h-2.3zm5.7-2.8l-1.4-2.9-1.2 2.9z"/>
				<path id="Layer" class="s2" d="m73.3 82.7q0.3 0 0.3-0.3v-6.4q0-0.3-0.3-0.3v-0.3h2.5v0.3c-0.1 0-0.1 0-0.1 0.1 0 0.1 0.1 0.2 0.4 0.5l4.1 4.3v-4.6q0-0.3-0.3-0.3v-0.3h2.1v0.3q-0.3 0-0.3 0.3v6.4q0 0.3 0.3 0.3v0.3h-2.2v-0.3c0.1 0 0.1 0 0.1-0.1 0 0-0.1-0.1-0.2-0.2-0.1-0.1-0.2-0.2-0.4-0.4l-4.3-4.5v4.9c0 0.2 0.1 0.3 0.4 0.3v0.3h-2.1zm7.2-10.2c-0.1 0.3-0.1 0.5-0.2 0.7-0.1 0.2-0.2 0.4-0.4 0.6-0.1 0.2-0.3 0.3-0.5 0.4-0.2 0.1-0.5 0.2-0.8 0.2-0.2 0-0.4 0-0.6-0.1-0.2-0.1-0.4-0.1-0.7-0.2-0.1-0.1-0.3-0.1-0.5-0.2-0.2-0.1-0.4-0.1-0.6-0.1-0.2 0-0.4 0.1-0.5 0.2-0.1 0.2-0.2 0.3-0.2 0.5h-1c0.1-0.5 0.3-1 0.5-1.4 0.3-0.4 0.7-0.6 1.3-0.6 0.2 0 0.4 0 0.6 0.1 0.2 0.1 0.4 0.1 0.7 0.2 0.3 0.1 0.4 0.2 0.7 0.2 0.3 0 0.4 0.1 0.6 0.1 0.2 0 0.4-0.1 0.5-0.2 0.1-0.1 0.2-0.3 0.3-0.5h0.8z"/>
				<path id="Layer" class="s2" d="m84.7 82.7c0.2 0 0.3 0 0.4-0.1 0.1 0 0.1-0.1 0.1-0.2v-6.4c0-0.1 0-0.2-0.1-0.2-0.1 0-0.2-0.1-0.4-0.1v-0.3h2.6v0.3c-0.3 0-0.5 0.1-0.5 0.3v6.4c0 0.2 0.2 0.3 0.5 0.3v0.3h-2.6zm1.5-8h-1.4l1.5-2.4h2.3z"/>
				<path id="Layer" fill-rule="evenodd" class="s2" d="m89.1 82.7c0.1 0 0.2-0.1 0.3-0.2 0.1-0.1 0.2-0.2 0.2-0.3l2.5-5.5c0.1-0.2 0.1-0.3 0.2-0.4 0-0.1 0.1-0.2 0.1-0.3 0-0.1 0-0.1 0-0.1 0 0-0.1 0-0.1-0.1v-0.3h2.6v0.3c0 0-0.1 0-0.1 0.1l-0.1 0.1c0 0.1 0 0.2 0.1 0.2 0.1 0.1 0.1 0.2 0.2 0.3l2.8 5.8c0.1 0.1 0.1 0.2 0.2 0.2 0.1 0 0.1 0.1 0.2 0.1v0.4h-2.4v-0.3c0.1 0 0.1 0 0.2-0.1 0.1 0 0.1-0.1 0.1-0.2 0-0.1 0-0.1 0-0.2 0-0.1-0.1-0.1-0.1-0.2l-0.5-1h-3.6l-0.7 1c0 0.1-0.1 0.2-0.1 0.2 0 0.1 0 0.1 0 0.2 0 0.1 0 0.1 0.1 0.2 0.1 0.1 0.1 0 0.2 0v0.4h-2.3zm5.7-2.8l-1.4-2.9-1.2 2.9z"/>
				<path id="Layer" class="s2" d="m105 82.7c0.1 0 0.2 0 0.2-0.1 0.1-0.1 0.1-0.1 0.1-0.2v-7.8c0-0.1 0-0.2-0.1-0.2-0.1 0-0.1-0.1-0.2-0.1v-0.3h3.2v0.3c-0.1 0-0.1 0-0.2 0.1-0.1 0-0.1 0.1-0.1 0.2 0 0.1 0 0.1 0.1 0.2 0 0.1 0.1 0.2 0.2 0.3l2.4 4.4 2.4-4.4c0.1-0.1 0.1-0.3 0.2-0.3 0.1 0 0.1-0.2 0.1-0.2 0-0.1-0.1-0.2-0.2-0.2v-0.3h3.1v0.3c-0.1 0-0.2 0-0.2 0.1-0.1 0-0.1 0.1-0.1 0.2v7.8c0 0.1 0 0.2 0.1 0.2 0.1 0.1 0.1 0.1 0.2 0.1v0.2h-2.7v-0.3c0.3 0 0.5-0.1 0.5-0.3v-5.6l-3.4 6.3h-0.1l-3.3-6.3v5.7c0 0.2 0.2 0.3 0.5 0.3v0.2h-2.7z"/>
				<path id="Layer" class="s2" d="m119.2 82.7c0.2 0 0.3 0 0.4-0.1 0.1 0 0.1-0.1 0.1-0.2v-6.4c0-0.1 0-0.2-0.1-0.2-0.1 0-0.2-0.1-0.4-0.1v-0.3h2.6v0.3c-0.3 0-0.5 0.1-0.5 0.3v6.4c0 0.2 0.2 0.3 0.5 0.3v0.3h-2.6z"/>
				<path id="Layer" class="s2" d="m124.7 82.7q0.3 0 0.3-0.3v-6.4q0-0.3-0.3-0.3v-0.3h2.5v0.3c-0.1 0-0.1 0-0.1 0.1 0 0.1 0.1 0.2 0.4 0.5l4.1 4.3v-4.6q0-0.3-0.3-0.3v-0.3h2.1v0.3q-0.3 0-0.3 0.3v6.4q0 0.3 0.3 0.3v0.3h-2.2v-0.3c0.1 0 0.1 0 0.1-0.1 0 0-0.1-0.1-0.2-0.2-0.1-0.1-0.2-0.2-0.4-0.4l-4.2-4.5v4.9c0 0.2 0.1 0.3 0.4 0.3v0.3h-2.1v-0.3z"/>
				<path id="Layer" class="s2" d="m142.6 77.1c0-0.2-0.2-0.3-0.5-0.3h-4.1v1.7h2.6c0.2 0 0.3 0 0.4 0 0.1 0 0.1-0.1 0.1-0.2h0.3v1.7h-0.3c0-0.1 0-0.2-0.1-0.2-0.1 0-0.3 0-0.5 0h-2.5v2h4.4c0.1 0 0.2 0 0.3-0.1 0.1-0.1 0.1-0.1 0.1-0.2h0.3v1.8h-0.3c0-0.1 0-0.2-0.1-0.2q-0.1 0-0.3 0h-6.2v-0.3c0.1 0 0.1 0 0.2-0.1 0.1-0.1 0.1-0.1 0.1-0.2v-6.4c0-0.1 0-0.2-0.1-0.2-0.1 0-0.1-0.1-0.2-0.1v-0.3h6c0.4 0 0.5-0.1 0.5-0.3h0.3v1.9z"/>
				<path id="Layer" fill-rule="evenodd" class="s2" d="m150.1 75.5c1 0 1.8 0.2 2.4 0.5 0.6 0.3 0.9 0.9 0.9 1.7 0 0.3-0.1 0.6-0.2 0.8-0.1 0.2-0.3 0.4-0.5 0.6-0.2 0.2-0.4 0.3-0.6 0.4-0.2 0.1-0.5 0.2-0.7 0.2l1.7 2.4q0.2 0.2 0.3 0.3c0.1 0.1 0.2 0.1 0.3 0.1v0.5h-2.6v-0.3c0.1 0 0.2-0.1 0.2-0.2 0-0.1-0.1-0.3-0.3-0.5l-1.3-2h-2.4v2.4c0 0.1 0 0.2 0.1 0.2 0.1 0 0.1 0.1 0.2 0.1v0.3h-2.3v-0.3q0.3 0 0.3-0.3v-6.4q0-0.3-0.3-0.3v-0.3h4.8zm0 3.3c1.1 0 1.7-0.4 1.7-1.1 0-0.3-0.1-0.5-0.4-0.7-0.3-0.2-0.7-0.2-1.3-0.2h-2.7v2z"/>
				<path id="Layer" fill-rule="evenodd" class="s2" d="m154.8 82.7c0.1 0 0.2-0.1 0.3-0.2 0.1-0.1 0.2-0.2 0.2-0.3l2.5-5.5c0.1-0.2 0.1-0.3 0.2-0.4 0-0.1 0.1-0.2 0.1-0.3 0-0.1 0-0.1 0-0.1 0 0-0.1 0-0.1-0.1v-0.3h2.6v0.3c0 0-0.1 0-0.1 0.1l-0.1 0.1c0 0.1 0 0.2 0.1 0.2 0.1 0.1 0.1 0.2 0.2 0.3l2.8 5.8c0.1 0.1 0.1 0.2 0.2 0.2 0.1 0 0.1 0.1 0.2 0.1v0.4h-2.4v-0.3c0.1 0 0.1 0 0.2-0.1 0.1 0 0.1-0.1 0.1-0.2 0-0.1 0-0.1 0-0.2 0-0.1-0.1-0.1-0.1-0.2l-0.5-1h-3.6l-0.5 0.9c0 0.1-0.1 0.2-0.1 0.2 0 0.1 0 0.1 0 0.2 0 0.1 0 0.1 0.1 0.2 0.1 0.1 0.1 0 0.2 0v0.5h-2.3v-0.3zm5.6-2.8l-1.4-2.9-1.2 2.9z"/>
			</g>
			<g id="Grupo_8">
				<g id="Layer">
					<g id="Clip-Path: Grupo_7" clip-path="url(#cp2)">
						<g id="Grupo_7">
							<g id="Layer">
								<path id="Layer" class="s2" d="m14.9 89.8c-0.2 0-0.4 0.1-0.5 0.2-0.1 0.2-0.2 0.3-0.2 0.4l-3 6.6c-0.1 0.2-0.2 0.4-0.3 0.5-0.1 0.1-0.1 0.2-0.1 0.3 0 0.1 0 0.1 0 0.1l0.1 0.1v0.3h-2.5v-0.3c0.1 0 0.2-0.1 0.2-0.2 0-0.1 0-0.2-0.1-0.3-0.1-0.1-0.2-0.4-0.3-0.7l-3.1-6.6c-0.1 0-0.2-0.1-0.3-0.2-0.1-0.1-0.2-0.1-0.4-0.2v-0.3h3v0.3c-0.1 0-0.2 0-0.2 0.1-0.1 0-0.1 0.1-0.1 0.2 0 0.1 0 0.3 0.1 0.5 0.1 0.2 0.2 0.4 0.3 0.7l2.3 4.7 2.1-4.6c0.1-0.3 0.3-0.6 0.4-0.8 0.1-0.2 0.2-0.4 0.2-0.5 0-0.2-0.2-0.3-0.5-0.3v-0.3h3v0.3z"/>
								<path id="Layer" class="s2" d="m16.9 98.2c0.2 0 0.3 0 0.4-0.1 0.1 0 0.1-0.1 0.1-0.2v-6.4c0-0.1 0-0.2-0.1-0.2-0.1 0-0.2-0.1-0.4-0.1v-0.2h2.6v0.3c-0.3 0-0.5 0.1-0.5 0.3v6.4c0 0.2 0.2 0.3 0.5 0.3v0.3h-2.6z"/>
								<path id="Layer" class="s2" d="m26.6 92.3h-3.9c-0.1 0-0.3 0-0.3 0.1 0 0.1-0.1 0.1-0.1 0.2h-0.3v-2h0.3c0 0.3 0.1 0.4 0.4 0.4h6.8v0.3l-4.7 5.9h4.1c0.3 0 0.4-0.1 0.4-0.4h0.3v1.8h-0.3c0-0.1-0.1-0.2-0.4-0.2h-6.9v-0.3z"/>
								<path id="Layer" class="s2" d="m37.7 93.1c0-0.1 0-0.1 0-0.2 0-0.1-0.1-0.1-0.2-0.2-0.1-0.1-0.3-0.2-0.5-0.3-0.2-0.1-0.5-0.2-0.7-0.2-0.2 0-0.6-0.1-0.9-0.1-0.4 0-0.8 0.1-1.1 0.2-0.3 0.1-0.6 0.3-0.9 0.5-0.2 0.2-0.4 0.5-0.6 0.8-0.1 0.3-0.2 0.7-0.2 1.1 0 0.4 0.1 0.8 0.2 1.1 0.2 0.3 0.4 0.6 0.6 0.8 0.2 0.2 0.5 0.4 0.9 0.5 0.3 0.1 0.6 0.2 1 0.2 0.3 0 0.6 0 0.9-0.1q0.4-0.2 0.9-0.3 0.4-0.1 0.6-0.3c0.2-0.1 0.2-0.2 0.2-0.3v-0.1c0-0.1 0-0.1 0-0.2l0.2-0.2 1.3 1.8-0.2 0.1c-0.1-0.1-0.2-0.1-0.3-0.1-0.1 0-0.2 0.1-0.4 0.2-0.2 0.1-0.5 0.2-0.8 0.3-0.3 0.1-0.7 0.2-1.1 0.3-0.4 0.1-0.9 0.1-1.4 0.1-0.5 0-1-0.1-1.5-0.2-0.5-0.1-1-0.4-1.4-0.7-0.4-0.3-0.7-0.7-1-1.2-0.2-0.5-0.4-1-0.4-1.7 0-0.7 0.1-1.2 0.4-1.7 0.2-0.5 0.6-0.9 1-1.2 0.4-0.3 0.9-0.6 1.4-0.7 0.5-0.2 1.1-0.2 1.6-0.2 0.4 0 0.8 0 1.2 0.1q0.6 0.1 0.9 0.3c0.3 0.1 0.5 0.2 0.7 0.3 0.2 0.1 0.3 0.1 0.4 0.1 0.1 0 0.1 0 0.1-0.1l0.1-0.1 0.2 0.1-1.1 1.6z"/>
								<path id="Layer" fill-rule="evenodd" class="s2" d="m40.2 98.2c0.1 0 0.2-0.1 0.3-0.2 0.1-0.1 0.2-0.2 0.2-0.3l2.5-5.5c0.1-0.2 0.1-0.3 0.2-0.4 0-0.1 0.1-0.2 0.1-0.3 0-0.1 0-0.1 0-0.1 0 0-0.1 0-0.1-0.1v-0.3h2.6v0.3c0 0-0.1 0-0.1 0.1l-0.1 0.1c0 0.1 0 0.2 0.1 0.2 0.1 0.1 0.1 0.2 0.2 0.3l2.8 5.8c0.1 0.1 0.1 0.2 0.2 0.2 0.1 0 0.1 0.1 0.2 0.1v0.3h-2.4v-0.3c0.1 0 0.1 0 0.2-0.1 0.1 0 0.1-0.1 0.1-0.2 0-0.1 0-0.1 0-0.2 0-0.1-0.1-0.1-0.1-0.2l-0.5-1h-3.6l-0.5 0.9c0 0.1-0.1 0.2-0.1 0.2 0 0.1 0 0.1 0 0.2 0 0.1 0 0.1 0.1 0.2 0.1 0.1 0.1 0 0.2 0v0.3zm5.6-2.9l-1.4-2.9-1.2 2.9z"/>
								<path id="Layer" class="s2" d="m56.6 93.1c0-0.1 0-0.1 0-0.2 0-0.1-0.1-0.1-0.2-0.2-0.1-0.1-0.3-0.2-0.5-0.3-0.2-0.1-0.5-0.2-0.7-0.2-0.2 0-0.6-0.1-0.9-0.1-0.4 0-0.8 0.1-1.1 0.2-0.3 0.1-0.6 0.3-0.9 0.5-0.2 0.2-0.4 0.5-0.6 0.8-0.1 0.3-0.2 0.7-0.2 1.1 0 0.4 0.1 0.8 0.2 1.1 0.2 0.3 0.4 0.6 0.6 0.8 0.2 0.2 0.5 0.4 0.9 0.5 0.3 0.1 0.6 0.2 1 0.2 0.3 0 0.6 0 0.9-0.1q0.4-0.2 0.9-0.3 0.4-0.1 0.6-0.3c0.2-0.1 0.2-0.2 0.2-0.3v-0.1c0-0.1 0-0.1 0-0.2l0.2-0.2 1.3 1.8-0.2 0.1c-0.1-0.1-0.2-0.1-0.3-0.1-0.1 0-0.2 0.1-0.4 0.2-0.2 0.1-0.5 0.2-0.8 0.3-0.3 0.1-0.7 0.2-1.1 0.3-0.4 0.1-0.9 0.1-1.4 0.1-0.5 0-1-0.1-1.5-0.2-0.5-0.1-1-0.4-1.4-0.7-0.4-0.3-0.7-0.7-1-1.2-0.2-0.5-0.4-1-0.4-1.7 0-0.7 0.1-1.2 0.4-1.7 0.2-0.5 0.6-0.9 1-1.2 0.4-0.3 0.9-0.6 1.4-0.7 0.5-0.2 1.1-0.2 1.6-0.2 0.4 0 0.8 0 1.2 0.1q0.6 0.1 0.9 0.3c0.3 0.1 0.5 0.2 0.7 0.3 0.2 0.1 0.3 0.1 0.4 0.1 0.1 0 0.1 0 0.1-0.1l0.1-0.1 0.2 0.1-1.1 1.6z"/>
								<path id="Layer" class="s2" d="m62.2 97.9c0 0.1 0 0.2 0.1 0.2 0.1 0 0.1 0.1 0.2 0.1v0.3h-2.1v-0.3c0.1 0 0.1 0 0.2-0.1 0.1 0 0.1-0.1 0.1-0.2v-6.4c0-0.1 0-0.2-0.1-0.2-0.1 0-0.1-0.1-0.2-0.1v-0.2h2.1v0.3c-0.1 0-0.1 0-0.2 0.1-0.1 0-0.1 0.1-0.1 0.2v2.4h4.6v-2.4c0-0.1 0-0.2-0.1-0.2-0.1 0-0.1-0.1-0.2-0.1v-0.3h2.1v0.3c-0.1 0-0.1 0-0.2 0.1-0.1 0-0.1 0.1-0.1 0.2v6.4c0 0.1 0 0.2 0.1 0.2 0.1 0 0.1 0.1 0.2 0.1v0.3h-2.1v-0.3c0.1 0 0.1 0 0.2-0.1 0.1 0 0.1-0.1 0.1-0.2v-2.6h-4.6z"/>
								<path id="Layer" class="s2" d="m71.7 98.2c0.2 0 0.3 0 0.4-0.1 0.1 0 0.1-0.1 0.1-0.2v-6.4c0-0.1 0-0.2-0.1-0.2-0.1 0-0.2-0.1-0.4-0.1v-0.2h2.6v0.3c-0.3 0-0.5 0.1-0.5 0.3v6.4c0 0.2 0.2 0.3 0.5 0.3v0.3h-2.6z"/>
								<path id="Layer" class="s2" d="m79 98.2c0.1 0 0.1 0 0.2-0.1 0.1 0 0.1-0.1 0.1-0.2v-5.7h-2.3c-0.1 0-0.2 0-0.3 0.1-0.1 0-0.1 0.1-0.1 0.2h-0.3v-2h0.3c0 0.2 0 0.3 0.1 0.3 0.2 0.2 0.2 0.2 0.3 0.2h6.1c0.1 0 0.2 0 0.3-0.1 0.1-0.1 0.1-0.2 0.1-0.3h0.3v2h-0.3c0-0.1 0-0.2-0.1-0.2-0.1 0-0.2-0.1-0.3-0.1h-2.2v5.7q0 0.3 0.3 0.3v0.3h-2.2z"/>
								<path id="Layer" fill-rule="evenodd" class="s2" d="m84.6 98.2c0.1 0 0.2-0.1 0.3-0.2 0.1-0.1 0.2-0.2 0.2-0.3l2.5-5.5c0.1-0.2 0.1-0.3 0.2-0.4 0-0.1 0.1-0.2 0.1-0.3 0-0.1 0-0.1 0-0.1 0 0-0.1 0-0.1-0.1v-0.3h2.6v0.3c0 0-0.1 0-0.1 0.1l-0.1 0.1c0 0.1 0 0.2 0.1 0.2 0.1 0.1 0.1 0.2 0.2 0.3l2.8 5.8c0.1 0.1 0.1 0.2 0.2 0.2 0.1 0 0.1 0.1 0.2 0.1v0.3h-2.4v-0.3c0.1 0 0.1 0 0.2-0.1 0.1 0 0.1-0.1 0.1-0.2 0-0.1 0-0.1 0-0.2 0-0.1-0.1-0.1-0.1-0.2l-0.5-1h-3.6l-0.5 0.9c0 0.1-0.1 0.2-0.1 0.2 0 0.1 0 0.1 0 0.2 0 0.1 0 0.1 0.1 0.2 0.1 0.1 0.1 0 0.2 0v0.3zm5.6-2.9l-1.4-2.9-1.2 2.9z"/>
								<path id="Layer" class="s2" d="m95.6 95.9v0.1c0 0.1 0 0.1 0 0.2 0 0.2 0.1 0.3 0.3 0.5 0.2 0.2 0.5 0.3 0.8 0.4 0.3 0.1 0.6 0.2 0.9 0.2 0.3 0.1 0.5 0.1 0.7 0.1q0.3 0 0.6 0c0.2 0 0.5-0.1 0.7-0.1q0.3-0.2 0.6-0.3c0.2-0.1 0.2-0.3 0.2-0.5 0-0.2-0.1-0.4-0.4-0.5-0.3-0.1-0.6-0.2-1-0.3-0.4-0.1-0.9-0.1-1.4-0.2-0.5-0.1-0.9-0.2-1.4-0.3-0.4-0.1-0.8-0.3-1-0.6-0.3-0.3-0.4-0.6-0.4-1.1 0-0.7 0.3-1.3 0.9-1.7 0.6-0.4 1.4-0.6 2.5-0.6 0.5 0 1 0 1.4 0.1 0.4 0.1 0.7 0.2 1 0.3q0.4 0.2 0.6 0.3c0.2 0.1 0.3 0.1 0.4 0.1 0.1 0 0.2 0 0.2 0 0 0 0.1-0.1 0.2-0.1l0.2 0.2-0.9 1.6-0.3-0.1c0-0.1 0-0.1 0-0.2 0-0.1-0.1-0.1-0.2-0.2-0.2-0.2-0.6-0.4-1.1-0.5-0.5-0.1-1-0.2-1.6-0.2q-0.3 0-0.6 0c-0.2 0-0.4 0.1-0.5 0.1-0.2 0.1-0.3 0.2-0.4 0.3-0.1 0.1-0.1 0.2-0.1 0.4 0 0.2 0.1 0.4 0.4 0.5 0.3 0.1 0.6 0.2 1 0.3 0.4 0.1 0.9 0.1 1.4 0.2 0.5 0.1 0.9 0.2 1.4 0.3 0.5 0.1 0.8 0.4 1 0.6 0.3 0.3 0.4 0.7 0.4 1.2 0 0.5-0.1 0.9-0.4 1.2-0.3 0.3-0.5 0.6-0.9 0.7-0.4 0.2-0.8 0.3-1.2 0.4-0.4 0.1-0.8 0.1-1.2 0.1-0.4 0-0.8 0-1.1-0.1-0.4-0.1-0.7-0.2-1-0.3-0.3-0.1-0.6-0.2-0.8-0.3-0.2-0.1-0.3-0.1-0.4-0.1-0.1 0-0.1 0-0.2 0.1l-0.2-0.2 0.8-1.9z"/>
								<path id="Layer" class="s2" d="m117.7 90.1c0-0.2-0.1-0.3-0.4-0.3v-0.3h2.6v0.3c-0.1 0-0.2 0-0.2 0.1 0 0.1-0.1 0.1-0.1 0.2v7.7c0 0.1 0 0.2 0.1 0.2 0.1 0.1 0.1 0.1 0.2 0.1v0.3h-2.6v-0.3c0.2 0 0.4-0.1 0.4-0.3v-3.2h-5.5v3.2c0 0.1 0 0.2 0.1 0.2 0.1 0.1 0.1 0.1 0.2 0.1v0.3h-2.5v-0.3q0.3 0 0.3-0.3v-7.7q0-0.3-0.3-0.3v-0.3h2.6v0.3c-0.1 0-0.2 0-0.2 0.1-0.1 0.1-0.1 0.1-0.1 0.2v2.9h5.5v-2.9z"/>
								<path id="Layer" fill-rule="evenodd" class="s2" d="m126.8 90.9c0.6 0 1.2 0.1 1.8 0.2 0.5 0.2 1 0.4 1.4 0.7 0.4 0.3 0.7 0.7 1 1.2 0.2 0.5 0.4 1 0.4 1.7 0 0.6-0.1 1.2-0.4 1.7-0.2 0.5-0.6 0.9-1 1.2-0.4 0.3-0.9 0.5-1.4 0.7-0.5 0.2-1.1 0.2-1.8 0.2-0.6 0-1.2-0.1-1.8-0.2-0.6-0.1-1-0.4-1.4-0.7-0.4-0.3-0.7-0.7-1-1.2-0.2-0.5-0.4-1-0.4-1.7 0-0.6 0.1-1.2 0.4-1.7 0.2-0.5 0.6-0.9 1-1.2 0.4-0.3 0.9-0.6 1.4-0.7 0.6-0.1 1.2-0.2 1.8-0.2zm0 1.2c-0.4 0-0.7 0.1-1.1 0.2-0.4 0.1-0.7 0.3-0.9 0.5-0.3 0.2-0.5 0.5-0.7 0.8-0.2 0.3-0.2 0.7-0.2 1.1 0 0.4 0.1 0.8 0.2 1.1 0.2 0.3 0.4 0.6 0.7 0.8 0.3 0.2 0.6 0.4 0.9 0.5 0.3 0.1 0.7 0.2 1.1 0.2 0.4 0 0.7-0.1 1.1-0.2 0.3-0.1 0.7-0.3 0.9-0.5 0.3-0.2 0.5-0.5 0.7-0.8 0.2-0.3 0.2-0.7 0.2-1.1 0-0.4-0.1-0.8-0.2-1.1-0.2-0.3-0.4-0.6-0.7-0.8-0.3-0.2-0.6-0.4-0.9-0.5-0.3-0.1-0.7-0.2-1.1-0.2z"/>
								<path id="Layer" class="s2" d="m135.8 91v0.3c-0.3 0-0.4 0.1-0.4 0.3v5.7h4.6c0.1 0 0.2 0 0.3-0.1 0.1-0.1 0.1-0.2 0.1-0.3h0.3v1.8h-0.3c0-0.1 0-0.1-0.1-0.2q-0.1 0-0.3 0h-6.7v-0.3c0.3 0 0.4-0.1 0.4-0.3v-6.4c0-0.2-0.1-0.3-0.4-0.3v-0.2z"/>
								<path id="Layer" fill-rule="evenodd" class="s2" d="m142.6 98.2c0.3 0 0.4-0.1 0.4-0.3v-6.4c0-0.2-0.1-0.3-0.4-0.3v-0.2h4.7c0.7 0 1.2 0.1 1.7 0.3 0.5 0.2 0.9 0.5 1.2 0.8 0.3 0.3 0.5 0.7 0.7 1.2 0.1 0.4 0.2 0.9 0.2 1.4 0 0.5-0.1 0.9-0.2 1.4-0.1 0.4-0.4 0.8-0.6 1.2-0.3 0.3-0.7 0.6-1.1 0.8-0.5 0.2-1 0.3-1.7 0.3h-4.8v-0.2zm4.2-1c0.4 0 0.7 0 1-0.1 0.3-0.1 0.6-0.2 0.8-0.3 0.2-0.2 0.4-0.4 0.6-0.8 0.2-0.4 0.2-0.8 0.2-1.4 0-0.6-0.1-1-0.2-1.3-0.1-0.3-0.3-0.6-0.6-0.7-0.2-0.2-0.5-0.3-0.8-0.3-0.3 0-0.7-0.1-1-0.1h-2.2v5z"/>
								<path id="Layer" class="s2" d="m153.4 98.2c0.2 0 0.3 0 0.4-0.1 0.1-0.1 0.1-0.1 0.1-0.2v-6.4c0-0.1 0-0.2-0.1-0.2-0.1 0-0.2-0.1-0.4-0.1v-0.2h2.6v0.3c-0.3 0-0.5 0.1-0.5 0.3v6.4c0 0.2 0.2 0.3 0.5 0.3v0.3h-2.6z"/>
								<path id="Layer" class="s2" d="m158.9 98.2q0.3 0 0.3-0.3v-6.4q0-0.3-0.3-0.3v-0.2h2.5v0.3c-0.1 0-0.1 0-0.1 0.1 0 0.1 0.1 0.2 0.4 0.5l4.1 4.3v-4.6q0-0.3-0.3-0.3v-0.3h2.1v0.3q-0.3 0-0.3 0.3v6.4q0 0.3 0.3 0.3v0.3h-2.2v-0.3c0.1 0 0.1 0 0.1-0.1 0 0-0.1-0.1-0.2-0.2-0.1-0.1-0.2-0.2-0.4-0.4l-4.2-4.5v4.9c0 0.2 0.1 0.3 0.4 0.3v0.3h-2.1v-0.4z"/>
								<path id="Layer" class="s2" d="m176.9 93.5l-0.2-0.1c0-0.1 0-0.2 0-0.2 0-0.1-0.1-0.2-0.2-0.3q-0.1-0.1-0.6-0.3c-0.2-0.1-0.5-0.2-0.8-0.2-0.3-0.1-0.6-0.1-0.9-0.1-0.4 0-0.8 0-1.2 0.1-0.4 0.1-0.7 0.2-1 0.5-0.3 0.2-0.5 0.5-0.7 0.8q-0.3 0.5-0.3 1.2 0 0.8 0.3 1.2c0.2 0.3 0.4 0.6 0.7 0.8 0.3 0.2 0.6 0.3 1 0.4 0.4 0.1 0.7 0.1 1 0.1 0.5 0 0.9 0 1.4-0.1 0.4-0.1 0.8-0.2 1.2-0.4v-1.1h-1.8c-0.1 0-0.2 0-0.3 0.1-0.1 0.1-0.1 0.1-0.2 0.3h-0.3v-1.8h0.3c0 0.1 0.1 0.2 0.2 0.2 0.1 0 0.2 0.1 0.3 0.1h3.3v0.3c-0.1 0-0.2 0.1-0.2 0.2 0 0.1-0.1 0.1-0.1 0.3v1.5c0 0.1 0 0.2 0 0.2 0 0 0.1 0.1 0.2 0.1v0.2c-0.1 0.1-0.3 0.2-0.5 0.3-0.2 0.1-0.5 0.2-0.8 0.3q-0.4 0.2-1.2 0.3c-0.4 0.1-0.9 0.1-1.5 0.1-0.7 0-1.4-0.1-2-0.2-0.6-0.2-1.1-0.4-1.5-0.7-0.4-0.3-0.7-0.7-1-1.2-0.2-0.5-0.3-1-0.3-1.6 0-0.6 0.1-1.1 0.3-1.6 0.2-0.5 0.5-0.9 1-1.2 0.4-0.3 0.9-0.6 1.5-0.8 0.6-0.2 1.3-0.3 2-0.3 0.4 0 0.8 0 1.2 0.1 0.4 0.1 0.6 0.2 0.9 0.3q0.5 0.1 0.6 0.3c0.1 0.1 0.3 0.1 0.4 0.1 0.1 0 0.2 0 0.2 0 0 0 0.1-0.1 0.2-0.1l0.2 0.1z"/>
							</g>
						</g>
					</g>
				</g>
			</g>
		</g>
	</g>
</svg>