<svg xmlns="http://www.w3.org/2000/svg" xmlns:xlink="http://www.w3.org/1999/xlink" xml:space="preserve" id="Capa_1" x="0" y="0" style="enable-background:new 0 0 192.4 109.9" version="1.1" viewBox="0 0 192.4 109.9"><style>.st3{enable-background:new}.st4{fill:#faf8ef}</style><g id="Logo_header" transform="translate(-68 -39)"><g id="Grupo_9" transform="translate(68 39)"><g id="Logo_Minera"><defs><path id="SVGID_1_" d="M0 0h192.4v109.9H0z"/></defs><clipPath id="SVGID_00000059286761337995729040000017636896293610309045_"><use xlink:href="#SVGID_1_" style="overflow:visible"/></clipPath><g id="Grupo_5" style="clip-path:url(#SVGID_00000059286761337995729040000017636896293610309045_)"><path id="Trazado_2" d="M-1.7 59.4s12.6-4.8 21.7-12C30.5 39.1 49.4 6.3 72.5 1.1c20.3-4.7 40.3 6.6 63.2 24.6 0 0-36.6-22.4-59.3-16.8C53 14.6 45 35.8 31.6 46.5A49.7 49.7 0 0 1-1.7 59.4" style="fill:#ababab"/><path id="Trazado_3" d="M37.6 62s10.1-9.7 14.9-15.3 21.7-25.9 38.1-26.1c16.4-.2 20.3 3.3 32.7 11s27.9 19 41.1 20.5c8 .9 16.1.4 24-1.5 0 0-10.4 8.9-28.7 8.9-24.1 0-44.3-20.9-66.7-20S61.5 53 37.6 62" style="fill:#e8732c"/></g></g><g class="st3"><path d="M28.9 81.8h-.2l-.5.2-1 .5-1.3.4-1.6.2-2.1-.3c-.7-.2-1.2-.5-1.7-.8-.5-.4-.9-.9-1.2-1.4-.3-.6-.4-1.2-.4-2 0-.7.1-1.4.4-2s.7-1.1 1.2-1.4c.5-.4 1.1-.7 1.7-.9s1.3-.3 2.1-.3a8 8 0 0 1 2.8.4l.8.3.4.1.1-.1.1-.1.3.2-1.3 2.1-.2-.1v-.2l-.3-.4-.8-.3-1-.3-.9-.1-1.4.2c-.4.1-.8.3-1.1.6l-.8 1c-.2.4-.3.8-.3 1.3s.1.9.3 1.3l.8 1c.3.3.7.5 1.1.6l1.4.2 1.1-.1 1.1-.3.8-.4c.2-.2.3-.3.3-.5l-.1-.2.2-.1 1.1 1.8.1-.1zM35.5 75.4l1.8.2 1.4.7c.4.3.7.7 1 1.2.2.5.4 1 .4 1.7 0 .6-.1 1.2-.4 1.7a3 3 0 0 1-1 1.2l-1.4.7a5 5 0 0 1-1.8.2l-1.8-.2c-.6-.1-1-.4-1.4-.7a4 4 0 0 1-1-1.2c-.2-.5-.4-1-.4-1.7 0-.6.1-1.2.4-1.7a3 3 0 0 1 1-1.2c.4-.3.9-.6 1.4-.7a11 11 0 0 1 1.8-.2zm0 1.3-1.1.2a2 2 0 0 0-.9.5l-.7.8c-.2.3-.2.7-.2 1.1l.2 1.1.7.8.9.5 1.1.2 1.1-.2.9-.5.7-.8c.2-.3.2-.7.2-1.1l-.2-1.1-.7-.8-.9-.5-1.1-.2zM42.3 82.7l.1-.1.1-.2v-6.5l-.2-.1v-.3h2.4v.3l-.2.2.1.2.2.3 2.1 3.8 2.1-3.8.2-.3.1-.2-.1-.2v-.3h2.4v.3h-.2l-.1.2v6.4l.1.2.2.1v.3h-2v-.3c.2 0 .3-.1.3-.3v-4.8L46.8 83h-.1L44 77.7v4.8c0 .2.1.3.3.3v.2h-1.9v-.3zM54.5 76.1c0-.2-.1-.3-.4-.3v-.3H59a4 4 0 0 1 2.1.5c.5.3.7.9.7 1.7 0 .8-.2 1.4-.7 1.7s-1.1.5-2.1.5h-2.9v2.6c0 .2.1.3.4.3v.2h-2.4v-.3c.3 0 .4-.1.4-.3v-6.3zm4.5 2.5.8-.2c.2-.1.3-.4.3-.7 0-.4-.1-.6-.3-.7l-.8-.2h-2.9v1.9H59zM62.7 82.7l.3-.2.2-.3 2.5-5.5.2-.4.1-.3v-.1l-.1-.1v-.3h2.6v.3l-.1.1-.1.1.1.2.2.3 2.8 5.8.2.2.2.1v.4h-2.4v-.3l.2-.1.1-.2v-.2l-.1-.2-.5-1h-3.6l-.7 1-.1.2v.2l.1.2c.1.1.1 0 .2 0v.4h-2.3v-.3zm5.7-2.8L67 77l-1.2 2.9h2.6zM73.3 82.7c.2 0 .3-.1.3-.3V76c0-.2-.1-.3-.3-.3v-.3h2.5v.3l-.1.1.4.5 4.1 4.3V76c0-.2-.1-.3-.3-.3v-.3H82v.3c-.2 0-.3.1-.3.3v6.4c0 .2.1.3.3.3v.3h-2.2v-.3l.1-.1-.2-.2-.4-.4-4.3-4.5v4.9c0 .2.1.3.4.3v.3h-2.1v-.3zm7.2-10.2-.2.7a2 2 0 0 1-.4.6l-.5.4-.8.2-.6-.1-.7-.2-.5-.2-.6-.1-.5.2-.2.5h-1l.5-1.4c.3-.4.7-.6 1.3-.6l.6.1.7.2.7.2.6.1.5-.2.3-.5h.8zM84.7 82.7l.4-.1.1-.2V76l-.1-.2-.4-.1v-.3h2.6v.3c-.3 0-.5.1-.5.3v6.4c0 .2.2.3.5.3v.3h-2.6v-.3zm1.5-8h-1.4l1.5-2.4h2.3l-2.4 2.4zM89.1 82.7l.3-.2.2-.3 2.5-5.5.2-.4.1-.3v-.1l-.1-.1v-.3h2.6v.3l-.1.1-.1.1.1.2.2.3 2.8 5.8.2.2.2.1v.4h-2.4v-.3l.2-.1.1-.2v-.2L96 82l-.5-1h-3.6l-.7 1-.1.2v.2l.1.2c.1.1.1 0 .2 0v.4h-2.3v-.3zm5.7-2.8L93.4 77l-1.2 2.9h2.6zM105 82.7l.2-.1.1-.2v-7.8l-.1-.2-.2-.1V74h3.2v.3l-.2.1-.1.2.1.2.2.3 2.4 4.4 2.4-4.4.2-.3.1-.2-.2-.2v-.3h3.1v.3l-.2.1-.1.2v7.8l.1.2.2.1v.2h-2.7v-.3c.3 0 .5-.1.5-.3v-5.6l-3.4 6.3h-.1l-3.3-6.3v5.7c0 .2.2.3.5.3v.2H105v-.3zM119.2 82.7l.4-.1.1-.2V76l-.1-.2-.4-.1v-.3h2.6v.3c-.3 0-.5.1-.5.3v6.4c0 .2.2.3.5.3v.3h-2.6v-.3zM124.7 82.7c.2 0 .3-.1.3-.3V76c0-.2-.1-.3-.3-.3v-.3h2.5v.3l-.1.1.4.5 4.1 4.3V76c0-.2-.1-.3-.3-.3v-.3h2.1v.3c-.2 0-.3.1-.3.3v6.4c0 .2.1.3.3.3v.3h-2.2v-.3l.1-.1-.2-.2-.4-.4-4.2-4.5v4.9c0 .2.1.3.4.3v.3h-2.1v-.3zM142.6 77.1c0-.2-.2-.3-.5-.3H138v1.7h3l.1-.2h.3V80h-.3l-.1-.2h-3v2h4.4l.3-.1.1-.2h.3v1.8h-.3l-.1-.2h-6.5v-.3l.2-.1.1-.2v-6.4l-.1-.2-.2-.1v-.3h6c.4 0 .5-.1.5-.3h.3v1.9h-.4zM150.1 75.5c1 0 1.8.2 2.4.5.6.3.9.9.9 1.7l-.2.8-.5.6-.6.4-.7.2 1.7 2.4.3.3.3.1v.5h-2.6v-.3l.2-.2-.3-.5-1.3-2h-2.4v2.4l.1.2.2.1v.3h-2.3v-.3c.2 0 .3-.1.3-.3V76c0-.2-.1-.3-.3-.3v-.3h4.8zm0 3.3c1.1 0 1.7-.4 1.7-1.1 0-.3-.1-.5-.4-.7-.3-.2-.7-.2-1.3-.2h-2.7v2h2.7zM154.8 82.7l.3-.2.2-.3 2.5-5.5.2-.4.1-.3v-.1l-.1-.1v-.3h2.6v.3l-.1.1-.1.1.1.2.2.3 2.8 5.8.2.2.2.1v.4h-2.4v-.3l.2-.1.1-.2v-.2l-.1-.2-.5-1h-3.6l-.5.9-.1.2v.2l.1.2c.1.1.1 0 .2 0v.5H155v-.3zm5.6-2.8L159 77l-1.2 2.9h2.6z" class="st4"/></g><g id="Grupo_8"><defs><path id="SVGID_00000006681464654201170010000018308273925744054182_" d="M0 0h192.4v109.9H0z"/></defs><clipPath id="SVGID_00000121995024255947880880000000102245127414236552_"><use xlink:href="#SVGID_00000006681464654201170010000018308273925744054182_" style="overflow:visible"/></clipPath><g id="Grupo_7" class="st3" style="clip-path:url(#SVGID_00000121995024255947880880000000102245127414236552_)"><path d="m14.9 89.8-.5.2-.2.4-3 6.6-.3.5-.1.3v.1l.1.1v.3H8.4V98l.2-.2-.1-.3-.3-.7-3.1-6.6-.3-.2-.4-.2v-.3h3v.3l-.2.1-.1.2.1.5.3.7L9.8 96l2.1-4.6.4-.8.2-.5c0-.2-.2-.3-.5-.3v-.3h3v.3zM16.9 98.2l.4-.1.1-.2v-6.4l-.1-.2-.4-.1V91h2.6v.3c-.3 0-.5.1-.5.3V98c0 .2.2.3.5.3v.3h-2.6v-.4zM26.6 92.3h-3.9l-.3.1-.1.2H22v-2h.3c0 .3.1.4.4.4h6.8v.3l-4.7 5.9h4.1c.3 0 .4-.1.4-.4h.3v1.8h-.3c0-.1-.1-.2-.4-.2H22v-.3l4.6-5.8zM37.7 93.1v-.2l-.2-.2-.5-.3-.7-.2-.9-.1-1.1.2-.9.5-.6.8-.2 1.1.2 1.1.6.8c.2.2.5.4.9.5l1 .2.9-.1.9-.3.6-.3c.2-.1.2-.2.2-.3V96l.2-.2 1.3 1.8-.2.1-.3-.1-.4.2-.8.3-1.1.3-1.4.1-1.5-.2c-.5-.1-1-.4-1.4-.7a4 4 0 0 1-1-1.2c-.2-.5-.4-1-.4-1.7s.1-1.2.4-1.7a3 3 0 0 1 1-1.2c.4-.3.9-.6 1.4-.7.5-.2 1.1-.2 1.6-.2l1.2.1.9.3.7.3.4.1.1-.1.1-.1.2.1-1.1 1.6-.1-.1zM40.2 98.2l.3-.2.2-.3 2.5-5.5.2-.4.1-.3v-.1l-.1-.1V91H46v.3l-.1.1-.1.1.1.2.2.3 2.8 5.8.2.2.2.1v.3h-2.4v-.3l.2-.1.1-.2v-.2l-.1-.2-.5-1H43l-.5.9-.1.2v.2l.1.2c.1.1.1 0 .2 0v.3h-2.3zm5.6-2.9-1.4-2.9-1.2 2.9h2.6zM56.6 93.1v-.2l-.2-.2-.5-.3-.7-.2-.9-.1-1.1.2-.9.5-.6.8-.2 1.1.2 1.1.6.8c.2.2.5.4.9.5l1 .2.9-.1.9-.3.6-.3c.2-.1.2-.2.2-.3V96l.2-.2 1.3 1.8-.2.1-.3-.1-.4.2-.8.3-1.1.3-1.4.1-1.5-.2c-.5-.1-1-.4-1.4-.7a4 4 0 0 1-1-1.2c-.2-.5-.4-1-.4-1.7s.1-1.2.4-1.7a3 3 0 0 1 1-1.2c.4-.3.9-.6 1.4-.7.5-.2 1.1-.2 1.6-.2l1.2.1.9.3.7.3.4.1.1-.1.1-.1.2.1-1.1 1.6-.1-.1zM62.2 97.9l.1.2.2.1v.3h-2.1v-.3l.2-.1.1-.2v-6.4l-.1-.2-.2-.1V91h2.1v.3l-.2.1-.1.2V94h4.6v-2.4l-.1-.2-.2-.1V91h2.1v.3l-.2.1-.1.2V98l.1.2.2.1v.3h-2.1v-.3l.2-.1.1-.2v-2.6h-4.6v2.5zM71.7 98.2l.4-.1.1-.2v-6.4l-.1-.2-.4-.1V91h2.6v.3c-.3 0-.5.1-.5.3V98c0 .2.2.3.5.3v.3h-2.6v-.4zM79 98.2l.2-.1.1-.2v-5.7H77l-.3.1-.1.2h-.3v-2h.3l.1.3.3.2h6.1l.3-.1.1-.3h.3v2h-.3l-.1-.2-.3-.1h-2.2V98c0 .2.1.3.3.3v.3H79v-.4zM84.6 98.2l.3-.2.2-.3 2.5-5.5.2-.4.1-.3v-.1l-.1-.1V91h2.6v.3l-.1.1-.1.1.1.2.2.3 2.8 5.8.2.2.2.1v.3h-2.4v-.3l.2-.1.1-.2v-.2l-.1-.2-.5-1h-3.6l-.5.9-.1.2v.2l.1.2c.1.1.1 0 .2 0v.3h-2.3zm5.6-2.9-1.4-2.9-1.2 2.9h2.6zM95.6 95.9V96.2c0 .2.1.3.3.5l.8.4.9.2.7.1h.6l.7-.1.6-.3c.2-.1.2-.3.2-.5s-.1-.4-.4-.5l-1-.3-1.4-.2-1.4-.3c-.4-.1-.8-.3-1-.6-.3-.3-.4-.6-.4-1.1 0-.7.3-1.3.9-1.7s1.4-.6 2.5-.6a6.1 6.1 0 0 1 2.4.4l.6.3.4.1h.2l.2-.1.2.2-.9 1.6-.3-.1v-.2l-.2-.2c-.2-.2-.6-.4-1.1-.5l-1.6-.2h-.6l-.5.1-.4.3-.1.4c0 .2.1.4.4.5l1 .3 1.4.2 1.4.3c.5.1.8.4 1 .6.3.3.4.7.4 1.2s-.1.9-.4 1.2-.5.6-.9.7l-1.2.4-1.2.1-1.1-.1-1-.3-.8-.3-.4-.1-.2.1-.2-.2.8-1.9.1-.1zM117.7 90.1c0-.2-.1-.3-.4-.3v-.3h2.6v.3l-.2.1-.1.2v7.7l.1.2.2.1v.3h-2.6v-.3c.2 0 .4-.1.4-.3v-3.2h-5.5v3.2l.1.2.2.1v.3H110v-.3c.2 0 .3-.1.3-.3v-7.7c0-.2-.1-.3-.3-.3v-.3h2.6v.3l-.2.1-.1.2V93h5.5v-2.9zM126.8 90.9l1.8.2 1.4.7c.4.3.7.7 1 1.2.2.5.4 1 .4 1.7 0 .6-.1 1.2-.4 1.7a3 3 0 0 1-1 1.2l-1.4.7a5 5 0 0 1-1.8.2l-1.8-.2c-.6-.1-1-.4-1.4-.7s-.7-.7-1-1.2c-.2-.5-.4-1-.4-1.7 0-.6.1-1.2.4-1.7.2-.5.6-.9 1-1.2s.9-.6 1.4-.7a11 11 0 0 1 1.8-.2zm0 1.2-1.1.2a2 2 0 0 0-.9.5l-.7.8c-.2.3-.2.7-.2 1.1l.2 1.1.7.8.9.5 1.1.2 1.1-.2.9-.5.7-.8c.2-.3.2-.7.2-1.1l-.2-1.1-.7-.8-.9-.5-1.1-.2zM135.8 91v.3c-.3 0-.4.1-.4.3v5.7h4.6l.3-.1.1-.3h.3v1.8h-.3l-.1-.2h-7v-.3c.3 0 .4-.1.4-.3v-6.4c0-.2-.1-.3-.4-.3V91h2.5zM142.6 98.2c.3 0 .4-.1.4-.3v-6.4c0-.2-.1-.3-.4-.3V91h4.7c.7 0 1.2.1 1.7.3.5.2.9.5 1.2.8.3.3.5.7.7 1.2l.2 1.4-.2 1.4-.6 1.2-1.1.8c-.5.2-1 .3-1.7.3h-4.8v-.2zm4.2-1 1-.1.8-.3.6-.8c.2-.4.2-.8.2-1.4l-.2-1.3c-.1-.3-.3-.6-.6-.7-.2-.2-.5-.3-.8-.3l-1-.1h-2.2v5h2.2zM153.4 98.2l.4-.1.1-.2v-6.4l-.1-.2-.4-.1V91h2.6v.3c-.3 0-.5.1-.5.3V98c0 .2.2.3.5.3v.3h-2.6v-.4zM158.9 98.2c.2 0 .3-.1.3-.3v-6.4c0-.2-.1-.3-.3-.3V91h2.5v.3l-.1.1.4.5 4.1 4.3v-4.6c0-.2-.1-.3-.3-.3V91h2.1v.3c-.2 0-.3.1-.3.3V98c0 .2.1.3.3.3v.3h-2.2v-.3l.1-.1-.2-.2-.4-.4-4.2-4.5V98c0 .2.1.3.4.3v.3H159v-.4zM176.9 93.5l-.2-.1v-.2l-.2-.3-.6-.3-.8-.2-.9-.1-1.2.1a2 2 0 0 0-1 .5l-.7.8c-.2.3-.3.7-.3 1.2s.1.9.3 1.2l.7.8 1 .4 1 .1 1.4-.1 1.2-.4v-1.1h-1.8l-.3.1-.2.3h-.3v-1.8h.3l.2.2.3.1h3.3v.3l-.2.2-.1.3v1.7l.2.1v.2l-.5.3-.8.3-1.2.3-1.5.1-2-.2c-.6-.2-1.1-.4-1.5-.7a4 4 0 0 1-1-1.2c-.2-.5-.3-1-.3-1.6 0-.6.1-1.1.3-1.6.2-.5.5-.9 1-1.2a5.3 5.3 0 0 1 3.5-1.1l1.2.1.9.3.6.3.4.1h.2l.2-.1.2.1-.8 1.8z" class="st4"/></g></g></g></g></svg>